<svg width="643" height="600" viewBox="0 0 643 600" fill="none" xmlns="http://www.w3.org/2000/svg">
<rect width="643" height="600" fill="#F0EEE7"/>
<mask id="mask0_1224_9349" style="mask-type:luminance" maskUnits="userSpaceOnUse" x="0" y="0" width="643" height="600">
<rect width="643" height="600" fill="white"/>
</mask>
<g mask="url(#mask0_1224_9349)">
<path fill-rule="evenodd" clip-rule="evenodd" d="M1033 15.2025C1025.19 7.37381 1012.02 2.61234 1002.34 0L1002 0.984833C1013.28 5.95081 1022.09 10.9001 1028.48 18.9165L1029.2 19C1030.45 18.0152 1031.71 17.0094 1032.96 15.9787L1033 15.2025ZM1015 32.66L1014.5 32.1853C998.77 17.1356 980.77 7.51178 954.318 0L954 1.03641C979.075 10.2857 995.712 20.6454 1009.62 35.6778L1009.92 36L1010.29 35.7648C1011.66 34.8852 1013.05 33.9707 1014.44 33.0388L1015 32.66ZM991 42.0849L990.527 41.5799C980.947 31.3154 969.542 22.8204 956.634 16.3324C944.484 10.2008 930.884 5.71994 916.218 3L916 4.03961C930.311 7.58273 943.424 12.7808 954.976 19.4894C966.569 26.2065 976.756 34.6846 985.247 44.686L985.511 45L985.879 44.8133C987.135 44.1683 988.433 43.4724 989.719 42.7723L991 42.0849ZM971 55.6224L970.476 55.0452C962.258 46.0474 952.37 38.6561 941.095 33.0826C930.6 27.888 918.859 24.1579 906.202 22L906 23.0553C918.327 26.0617 929.602 30.524 939.494 36.313H939.498C949.234 41.9986 957.77 49.2003 964.857 57.72L965.092 58L965.427 57.8708C966.969 57.2764 968.607 56.6174 970.29 55.9153L971 55.6224ZM706.06 221.455L706.064 221.463C708.747 225.861 712.152 229.97 716.183 233.666C724.016 240.839 733.764 245.776 744.379 247.942C755.437 250.145 766.595 248.882 775.817 244.393C780.604 242.085 784.968 238.987 788.786 235.187C792.55 231.287 795.647 227.01 798 222.466L797.115 221.923C790.706 230.932 782.819 237.528 774.307 240.998C765.456 244.652 755.141 245.546 745.264 243.523C735.145 241.537 725.927 237.165 718.604 230.873C710.504 223.917 705.822 216.927 704.061 214.298C703.243 213.073 703.156 212.939 702.759 213.018H702L702.351 213.721C703.352 216.354 704.6 218.955 706.06 221.455ZM787 210.767L786.137 210.173C780.655 217.16 774.193 222.238 767.437 224.866C760.283 227.659 752.371 228.175 744.559 226.364C737.129 224.724 729.912 221.067 723.689 215.792C717.34 210.341 712.608 203.491 710.01 196L709 196.258C709.788 201.735 712.143 207.234 715.802 212.169C717.868 215.241 720.403 218.128 723.328 220.719C729.045 225.774 736.027 229.346 743.524 231.036C751.286 232.749 759.286 232.164 766.054 229.401C769.562 227.973 772.822 226.011 775.735 223.563C780.228 220.478 784.133 216.042 787 210.767ZM777 201.172L776.19 200.53C771.973 204.79 767.492 207.716 762.878 209.227C758.042 210.797 752.813 210.898 747.766 209.521C742.946 208.283 738.241 205.731 734.152 202.154C729.886 198.322 726.8 193.894 725 189L724 189.243C724.603 194.889 727.271 200.467 731.517 204.946C735.581 209.328 740.802 212.476 746.597 214.05C752.664 215.645 758.926 215.221 764.221 212.862C769.301 210.704 773.836 206.553 777 201.172ZM584.649 213.721L585 213.018H584.245C583.844 212.939 583.761 213.073 582.939 214.298C581.178 216.927 576.495 223.917 568.396 230.873C561.072 237.165 551.854 241.537 541.734 243.523C531.857 245.546 521.541 244.652 512.69 240.998C504.177 237.528 496.294 230.932 489.88 221.923L489 222.466C491.349 227.01 494.446 231.287 498.214 235.187C502.032 238.987 506.393 242.085 511.18 244.393C520.402 248.882 531.565 250.145 542.619 247.942C553.235 245.776 562.983 240.839 570.816 233.666C574.851 229.97 578.252 225.861 580.94 221.463L580.944 221.455C582.4 218.955 583.648 216.354 584.649 213.721ZM514.264 223.563C517.177 226.011 520.441 227.973 523.945 229.401C530.717 232.164 538.712 232.749 546.473 231.036C553.971 229.346 560.956 225.774 566.672 220.719C569.593 218.128 572.133 215.241 574.199 212.169C577.857 207.234 580.208 201.735 581 196.258L579.99 196C577.388 203.491 572.656 210.341 566.312 215.792C560.085 221.067 552.873 224.724 545.438 226.364C537.627 228.175 529.715 227.659 522.562 224.866C515.807 222.238 509.345 217.16 503.863 210.173L503 210.767C505.866 216.042 509.776 220.478 514.264 223.563ZM526.775 212.862C532.074 215.221 538.332 215.645 544.399 214.05C550.194 212.476 555.415 209.328 559.479 204.946C563.729 200.467 566.393 194.889 567 189.243L565.996 189C564.196 193.894 561.114 198.322 556.848 202.154C552.755 205.731 548.054 208.283 543.234 209.521C538.183 210.898 532.954 210.797 528.121 209.227C523.504 207.716 519.022 204.79 514.805 200.53L514 201.172C517.16 206.553 521.699 210.704 526.775 212.862ZM899.719 58.3505L899.017 58V58.7595C898.942 59.1559 899.071 59.2393 900.296 60.0614C902.93 61.8223 909.92 66.5042 916.876 74.6078C923.168 81.9312 927.54 91.1447 929.522 101.264C931.549 111.141 930.655 121.456 927.001 130.307C923.531 138.819 916.935 146.706 907.921 153.115L908.465 154C913.009 151.647 917.29 148.55 921.186 144.786C924.986 140.964 928.088 136.604 930.391 131.817C934.881 122.599 936.144 111.433 933.945 100.379C931.775 89.7635 926.842 80.0158 919.669 72.1834C915.969 68.1525 911.864 64.7475 907.466 62.0643L907.457 62.056C904.953 60.5997 902.353 59.352 899.719 58.3505ZM909.561 131.739C912.013 128.822 913.975 125.562 915.404 122.054C918.166 115.286 918.746 107.286 917.038 99.5242C915.343 92.0268 911.772 85.0448 906.717 79.3285C904.131 76.4033 901.244 73.8678 898.168 71.8017C893.238 68.1431 887.735 65.7879 882.262 65L882 66.01C889.49 68.6083 896.34 73.3398 901.795 79.6889C907.066 85.9123 910.723 93.1289 912.366 100.559C914.177 108.371 913.661 116.283 910.865 123.437C908.24 130.193 903.159 136.655 896.172 142.137L896.77 143C902.04 140.138 906.48 136.228 909.561 131.739ZM896.86 119.221C899.224 113.922 899.644 107.664 898.048 101.601C896.474 95.8021 893.326 90.5855 888.943 86.5172C884.464 82.2712 878.89 79.603 873.239 79L873 79.9995C877.895 81.8045 882.319 84.8857 886.152 89.1523C889.732 93.2413 892.281 97.9457 893.519 102.766C894.896 107.813 894.799 113.042 893.229 117.879C891.718 122.492 888.788 126.973 884.531 131.195L885.174 132C890.551 128.836 894.703 124.297 896.86 119.221ZM878.805 58.5441C883.974 54.1947 886.071 45.2915 881.922 38.9469C877.71 32.5523 868.86 29.501 862.708 32.7819C862.298 33.0114 862.029 33.0573 862.029 33.0573C867.927 26.909 878.647 27.6269 884.185 35.2237C887.377 39.5939 887.356 44.0852 887.502 45.6588C887.551 45.3541 887.609 44.9993 887.696 44.5318C888.662 39.189 887.298 33.6334 883.97 29.2715C880.21 24.4045 874.44 21.8124 867.695 21.9335C858.377 22.1297 848.963 27.3932 843.13 35.6786C842.164 37.0686 841.132 38.6714 839.976 40.579L839.739 40.9421C839.557 41.2051 839.375 41.4639 839.192 41.7519C825.707 62.931 807.174 69.309 788.371 59.2078C772.735 50.8304 769.083 31.3293 764.834 8.74768C764.49 6.8735 764.117 4.93259 763.739 3C763.018 3.5134 762.276 3.99344 761.509 4.41501C759.714 5.40842 757.87 6.16394 756 6.81091C757.252 14.5872 758.408 21.3282 759.884 29.4718C762.807 45.7047 768.432 62.426 790.249 71.9344C808.417 79.8651 831.449 71.6757 843.13 55.7892C848.059 49.1066 851.873 38.8843 860.739 35.9708C870.357 32.8111 876.313 41.5849 877.573 44.1937C877.317 43.7346 876.599 42.666 874.755 41.2802C871.679 38.9886 866.054 38.4711 862.36 41.4305C857.829 45.0786 857.527 50.2962 859.09 54.1572L859.106 54.1739C859.977 55.9269 861.738 58.6735 864.557 59.9382C867.724 61.3407 874.203 62.4176 878.805 58.5441ZM857 56.9879C856.35 56.7111 855.636 56.5727 854.835 56.6817C851.97 57.0633 854.084 57.9189 845.53 65.6145C809.109 98.3723 759.822 75.0841 752.58 39.2145C750.42 28.5664 748.809 18.992 747.042 9.05685C746.291 9.10718 745.549 9.19943 744.794 9.19943C741.66 9.19943 738.714 8.71295 736 8V54.0815C737.368 58.636 738.899 62.8676 740.661 66.7007C742.176 69.9635 744.206 73.0334 746.455 75.969C747 75.8474 747.546 75.7384 748.079 75.5538C751.078 74.5263 753.566 72.5217 755.312 69.7077C755.647 69.1876 755.937 68.6424 756.193 68.0637L759.037 61.6598L763.904 66.7007C770.977 74.0189 773.78 84.3231 771.409 94.233C771.346 94.5224 771.216 94.7908 771.141 95.0802C772.303 95.596 773.465 96.1286 774.665 96.548C790.566 102.143 807.989 100.901 823.676 93.0839C844.196 82.8594 851.403 69.8167 856.677 57.7218L857 56.9879ZM759.173 72C758.828 72.7952 758.435 73.5443 757.988 74.2641C755.696 78.0432 752.326 80.6923 748.512 82.0231C743.928 83.6427 738.725 83.3665 734.051 80.9518C733.645 80.7341 733.239 80.5207 732.854 80.278C732.387 79.985 732.001 79.6669 731.579 79.3572C730.902 80.1231 730.168 80.8262 729.361 81.4372C729.164 81.592 728.971 81.7302 728.779 81.8683C728.192 82.2658 727.594 82.6174 726.962 82.9229C726.679 83.061 726.405 83.1991 726.122 83.3079C726.109 83.3205 726.077 83.3372 726.064 83.3372C725.794 83.4418 725.539 83.5506 725.269 83.626C725.224 83.6427 725.195 83.6595 725.15 83.672C724.97 83.7348 724.789 83.7934 724.596 83.8436C724.416 83.8854 724.236 83.9357 724.055 83.965C723.858 84.0277 723.67 84.0696 723.457 84.1156C723.247 84.1617 723.034 84.1951 722.813 84.2244H722.768C722.604 84.2537 722.452 84.2872 722.288 84.2997C721.96 84.3458 721.624 84.3625 721.296 84.3793C721.046 84.3918 720.804 84.3918 720.55 84.3918H719.303C722.317 90.0207 726.29 93.4942 729.976 95.5574C736.212 99.077 743.436 99.3239 749.353 96.5242C752.371 95.0845 755.052 92.8665 757.073 89.8826C757.299 89.5771 757.496 89.2715 757.684 88.966C758.914 86.9447 759.739 84.7894 760.222 82.5881C760.538 85.4799 760.042 88.3383 758.947 91.2469C758.406 92.6656 757.734 94.1052 756.922 95.5574C756.114 97.0138 755.155 98.3154 754.048 99.4286C747.811 105.915 737.512 106.819 729.209 102.153C724.342 99.416 718.381 94.6242 715.375 84.3918H710C713.608 97.7629 722.813 107.188 728.672 110.473C731.132 111.85 733.678 112.816 736.224 113.381C746.343 115.629 756.61 111.682 762.182 102.689H762.199C762.244 102.626 762.285 102.551 762.334 102.475C763.744 100.161 764.745 97.6876 765.335 95.1306C767.234 86.9949 765.032 78.1938 759.173 72ZM718.843 71.2471C722.238 71.2471 725 68.4474 725 64.9993V1.67883C723.007 0.356873 721.01 -1.27667 719.289 -2.8176C718.483 -3.4491 717.925 -3.8996 717.925 -3.8996C717.925 -3.8996 718.003 -3.94168 718.032 -3.95853C717.515 -4.43848 717.044 -4.88898 716.622 -5.30157L715.055 -3.71014L719.566 0.887329C719.992 1.31256 720.228 1.88934 720.228 2.50824C720.228 3.12292 719.992 3.70392 719.566 4.13757C718.715 5.00906 717.218 5.00485 716.374 4.13757L711.863 -0.455688L707.343 4.13757C706.917 4.5712 706.351 4.81119 705.747 4.81119H705.743C705.139 4.81119 704.573 4.5712 704.151 4.13336C703.729 3.70813 703.485 3.12714 703.485 2.50824C703.485 1.89355 703.725 1.31677 704.155 0.878906L708.658 -3.71014L704.337 -8.11395C703.907 -8.54758 703.671 -9.12857 703.671 -9.74747C703.671 -10.3664 703.907 -10.9474 704.337 -11.3852C705.189 -12.2525 706.681 -12.2483 707.533 -11.381L711.863 -6.9772L716.188 -11.381C716.61 -11.8146 717.176 -12.0546 717.78 -12.0588H717.784C718.392 -12.0588 718.959 -11.8188 719.38 -11.3852C720.013 -10.7411 720.174 -9.81061 719.906 -9.00226C721.56 -9.54959 723.367 -10.2022 725 -10.8884V-79H662.973C662.399 -78.4359 661.824 -77.8717 661.299 -77.3791C657.664 -73.9436 654.389 -71.4723 650.994 -69.6156C649.278 -68.6431 647.425 -67.8936 645.531 -67.2495L645.196 -66.9127L649.708 -62.3152C650.134 -61.89 650.369 -61.3132 650.369 -60.6943C650.369 -60.0797 650.134 -59.5029 649.708 -59.065C648.852 -58.1935 647.359 -58.1977 646.511 -59.065L642 -63.6583L637.484 -59.065C637.063 -58.6313 636.492 -58.3914 635.892 -58.3914H635.888C635.28 -58.3914 634.718 -58.6356 634.288 -59.0692C633.866 -59.4944 633.631 -60.0754 633.631 -60.6943C633.631 -61.309 633.862 -61.8858 634.296 -62.3194L637.447 -65.5318C636.645 -65.4602 635.843 -65.3676 635.053 -65.3676C630.905 -65.3676 626.985 -66.2054 623.404 -67.8558C621.114 -68.9251 619.079 -70.2513 617.334 -71.8007C616.726 -72.2554 616.189 -72.8195 615.738 -73.4847C614.224 -75.1309 613.104 -76.7812 612.314 -78.5074C612.24 -78.6674 612.202 -78.84 612.136 -79H559V-21.9232V-10.3327C560.509 -9.75168 562.068 -9.22119 563.478 -8.7623C563.4 -8.99808 563.338 -9.24646 563.338 -9.5033C563.338 -10.1222 563.573 -10.7032 564.003 -11.141C564.859 -12.0083 566.344 -11.9999 567.196 -11.1368L571.525 -6.73303L575.851 -11.1368C576.281 -11.5663 576.843 -11.8062 577.451 -11.8104H577.455C578.059 -11.8104 578.625 -11.5705 579.051 -11.141C579.928 -10.2358 579.928 -8.77072 579.055 -7.86975L574.722 -3.46594L579.233 1.13153C579.659 1.56094 579.895 2.13773 579.895 2.75662C579.895 3.37131 579.659 3.94809 579.233 4.38174C578.377 5.25323 576.884 5.24902 576.037 4.38174L571.525 -0.211517L567.01 4.38596C566.588 4.81961 566.017 5.05957 565.418 5.05957H565.414C564.806 5.05536 564.243 4.8154 563.813 4.38174C563.391 3.95651 563.156 3.37552 563.156 2.75662C563.156 2.14194 563.387 1.56094 563.822 1.12732L568.329 -3.46594L566.274 -5.55417C564.562 -3.87012 561.845 -1.33984 559 0.73999V3.00082V17.0585V64.9993C559 68.4474 561.754 71.2471 565.137 71.2471H619.203C626.564 71.2471 634.222 74.19 641.979 80C649.613 74.19 657.031 71.2471 664.036 71.2471H718.843ZM701.891 117.858C699.642 114.598 695.501 113.244 693.578 112.785C693.052 112.722 692.539 112.705 692.013 112.722H691.873C691.359 112.739 690.85 112.768 690.32 112.844C690.26 112.861 690.197 112.874 690.12 112.89C689.098 113.046 688.075 113.353 687.095 113.799C687.001 113.845 686.908 113.891 686.819 113.921C686.348 114.152 685.885 114.413 685.431 114.72C685.376 114.75 685.308 114.813 685.262 114.842C684.846 115.137 684.443 115.46 684.069 115.814C683.993 115.873 683.929 115.936 683.853 115.999C683.45 116.382 683.076 116.811 682.707 117.273C682.627 117.379 682.55 117.488 682.487 117.58C682.113 118.089 681.757 118.611 681.451 119.196C678.918 123.886 680.675 130.006 683.853 132.942C684.103 133.157 684.337 133.359 684.549 133.556C686.089 134.848 687.175 135.306 687.672 135.462C686.289 135.096 683.403 133.973 680.734 131.865C679.588 130.974 678.489 129.897 677.556 128.622C677.246 128.189 676.949 127.743 676.686 127.285C676.376 126.759 676.13 126.203 675.893 125.64C675.074 123.625 674.688 121.274 675.057 118.518C676.05 111.094 681.697 105.74 687.188 100.822C689.39 98.8369 691.563 96.9272 693.392 94.9797C696.714 91.4422 699.506 87.3662 701.721 83H685.605C682.72 86.7521 679.245 90.9206 676.47 93.5033C676.194 93.7473 675.944 93.9954 675.697 94.2562L675.341 94.5927C673.444 96.2711 671.878 97.7307 670.563 99.0851C662.573 107.233 658.682 118.733 660.4 129.097C660.85 131.756 661.644 134.233 662.789 136.433C663.133 137.106 663.515 137.767 663.935 138.398C665.785 141.275 668.276 143.614 671.318 145.271C671.522 145.393 671.709 145.485 671.912 145.595C672.422 145.856 672.935 146.104 673.461 146.301C678.485 148.417 684.12 148.552 689.204 146.731C685.24 146.76 680.721 145.351 675.71 141.489C675.672 141.46 675.646 141.426 675.608 141.397C668.747 136.307 668.255 126.334 671.832 119.764C671.832 119.839 671.815 120.134 671.675 120.563C669.303 128.037 674.514 137.216 682.504 140.568C690.396 143.891 699.455 141.107 703.194 133.88C706.932 126.649 704.047 120.979 701.891 117.858ZM678.319 254.496V254.492C672.521 244.604 668.062 233.33 665.055 221L664 221.198C666.167 233.879 669.893 245.619 675.084 256.089C680.654 267.358 688.042 277.246 697.049 285.472L697.622 286L697.919 285.286C698.617 283.599 699.281 281.966 699.871 280.423L700 280.089L699.72 279.858C691.199 272.767 684.001 264.232 678.319 254.496ZM691 301.515L690.678 301.247C680.677 292.756 672.2 282.569 665.488 270.972C658.771 259.412 653.574 246.298 650.035 232L649 232.218C651.715 246.88 656.196 260.475 662.327 272.634C668.814 285.542 677.313 296.947 687.576 306.527L688.081 307L689.002 305.292C689.617 304.145 690.232 302.997 690.809 301.879L691 301.515ZM677 322.917L676.678 322.62C661.637 308.705 651.281 292.069 642.032 267L641 267.318C648.507 293.768 658.131 311.767 673.185 327.5L673.66 328L674.039 327.432C674.971 326.039 675.881 324.658 676.765 323.285L677 322.917ZM663 344.197L662.912 343.475C654.892 337.091 649.947 328.272 644.981 317L644 317.338C646.612 327.018 651.374 340.201 659.203 348L659.975 347.963C661.009 346.705 662.011 345.451 663 344.197ZM637.375 201C641.816 198.168 655.609 188.278 650.672 177.647C649.15 174.349 646.057 171.796 645.049 170.962C644.675 170.653 644.599 170.589 644.552 170.42L644.242 169.196L645.313 169.861C648.759 172.046 652.303 173.13 655.843 173.142C660.849 173.13 665.647 171.025 669.327 167.185C672.93 163.439 675.017 158.409 675 153.426C675 152.202 674.843 151.021 674.617 149.87C673.912 149.637 673.211 149.391 672.522 149.099C672.399 149.057 672.233 148.968 672.106 148.909C672.65 150.416 672.977 152.029 672.977 153.722C672.994 161.631 666.56 168.049 658.622 168.049C658.329 168.049 658.036 168.036 657.755 168.019C660.628 166.843 663.879 164.616 666.794 157.681C668.604 153.354 668.689 149.628 668.086 146.686C665.235 144.806 662.744 142.338 660.815 139.315C660.339 138.591 659.85 137.761 659.43 136.91C659.086 136.25 658.831 135.488 658.537 134.772C657.738 134.671 656.935 134.607 656.107 134.607C655.393 134.607 654.632 134.671 653.808 134.781C654.211 135.708 654.432 136.728 654.432 137.765C654.432 139.793 653.638 141.694 652.21 143.138C650.765 144.561 648.853 145.348 646.821 145.348C644.816 145.348 642.997 144.434 641.697 142.765C640.294 140.937 639.551 138.29 639.551 135.09C639.568 121.127 651.092 104.027 661.873 92.6681C666.488 87.8247 670.929 83.9551 674.715 81H666.594C665.209 81.0931 663.798 81.1693 662.4 81.2159C662.107 81.2625 661.809 81.326 661.516 81.4022C661.499 81.4022 661.499 81.4022 661.482 81.4191C661.206 81.4657 660.909 81.5419 660.628 81.635C660.518 81.6647 660.411 81.6943 660.318 81.7282C660.212 81.7578 660.101 81.8044 659.991 81.851C659.901 81.8679 659.821 81.8976 659.744 81.9272H659.727C659.634 81.9441 659.54 81.9907 659.451 82.0203C659.336 82.0669 659.217 82.1135 659.094 82.177C659.077 82.177 659.043 82.1939 659.013 82.1939C658.984 82.2066 658.95 82.2235 658.92 82.2362H658.873L658.86 82.2532C658.75 82.287 658.639 82.3294 658.533 82.3929C658.363 82.4564 658.176 82.5326 657.989 82.6257C657.772 82.7189 657.551 82.8289 657.335 82.9179C657.292 82.9348 657.258 82.9475 657.228 82.9814C657.042 83.0576 656.855 83.1507 656.668 83.2608C656.574 83.3074 656.498 83.3539 656.404 83.4005C656.357 83.4132 656.311 83.4301 656.264 83.4598C656.094 83.5529 655.907 83.663 655.737 83.7688C655.626 83.8154 655.537 83.8789 655.422 83.9424C655.316 83.989 655.206 84.0652 655.099 84.1245C655.036 84.1414 654.989 84.1711 654.942 84.2176C654.879 84.2515 654.819 84.2811 654.772 84.3108C654.709 84.3404 654.649 84.3912 654.585 84.4335C654.522 84.4674 654.462 84.497 654.398 84.5436C654.262 84.6198 654.122 84.7003 653.978 84.8061C653.918 84.8527 653.842 84.8823 653.778 84.9458C653.578 85.0559 653.391 85.1956 653.204 85.3184C653.123 85.365 653.051 85.4242 652.97 85.475C652.936 85.4877 652.924 85.5047 652.894 85.5343C652.847 85.5682 652.801 85.5978 652.737 85.6274C652.694 85.6613 652.643 85.6867 652.597 85.7206C652.537 85.7672 652.473 85.7968 652.427 85.8434C652.35 85.9069 652.274 85.9534 652.197 86.0296C651.929 86.199 651.683 86.3853 651.432 86.5885C651.279 86.6943 651.122 86.8044 650.965 86.9272C650.706 87.1304 650.425 87.3463 650.174 87.5453C650.111 87.6088 650.038 87.6554 649.975 87.7147C649.834 87.8247 649.694 87.9348 649.567 88.0406C649.46 88.1211 649.354 88.2142 649.244 88.3201C649.133 88.4132 649.04 88.5063 648.933 88.5826L648.916 88.5995C643.027 98.7816 637.426 109.175 635.093 119.158C635.093 119.158 633.461 106.673 639.206 90.1448C639.24 90.1321 639.257 90.1321 639.283 90.1321C638.229 89.1711 636.988 88.1211 635.62 87.0796C635.344 86.8679 635.059 86.6478 634.766 86.4488C634.702 86.4022 634.659 86.3683 634.596 86.326C634.239 86.0593 633.848 85.7968 633.474 85.5512C633.104 85.3015 632.73 85.0559 632.343 84.823C631.952 84.5775 631.566 84.3573 631.175 84.1245C630.571 83.7688 629.947 83.4471 629.314 83.1507C629.114 83.0406 628.91 82.9475 628.706 82.8586C628.289 82.6723 627.839 82.486 627.406 82.3124C627.074 82.1939 626.764 82.0669 626.441 81.9611C626.148 81.851 625.833 81.7578 625.523 81.6816C625.277 81.6054 625.009 81.5419 624.758 81.4784C624.716 81.4657 624.652 81.4488 624.605 81.4318C624.529 81.4191 624.435 81.4022 624.359 81.3853C624.061 81.326 623.768 81.2625 623.475 81.2159C623.288 81.1693 623.101 81.1397 622.914 81.1228C622.727 81.0931 622.54 81.0762 622.34 81.0635C622.2 81.0466 622.06 81.0296 621.919 81.0296C621.873 81.0169 621.843 81.0169 621.796 81.0169C621.55 81 621.299 81 621.048 81H619C620.109 86.2159 621.448 92.8755 622.395 98.481C629.815 108.07 633.21 118.837 631.668 128.172C631.336 130.204 630.814 132.164 630.108 133.993C629.998 134.29 629.828 134.548 629.709 134.84C632.955 150.213 636.346 165.793 637.439 170.234C639.704 179.425 640.031 193.976 637.375 201ZM615.49 99.7397C615.288 99.5253 615.086 99.294 614.876 99.0796C613.568 97.7256 612.017 96.2665 610.142 94.5887L609.789 94.2523C609.541 93.9916 609.293 93.7436 609.02 93.4997C606.27 90.9178 602.823 86.7508 599.986 83H584.002C586.197 87.3647 588.967 91.4393 592.255 94.9756C594.066 96.9225 596.219 98.8315 598.401 100.816C603.841 105.732 611.193 111.085 612.177 118.506C612.543 121.26 612.16 123.611 611.361 125.625C611.13 126.189 610.865 126.744 610.575 127.269C610.302 127.728 610.008 128.173 609.701 128.606C608.776 129.881 607.687 130.957 606.548 131.848C603.908 133.955 601.062 135.078 599.696 135.444C600.175 135.288 601.247 134.83 602.773 133.539C603 133.341 603.231 133.139 603.462 132.925C606.611 129.99 608.351 123.872 605.842 119.183C605.535 118.599 605.186 118.077 604.829 117.569C604.753 117.476 604.677 117.367 604.597 117.262C604.227 116.799 603.857 116.37 603.462 115.988C603.382 115.924 603.328 115.861 603.248 115.803C602.878 115.449 602.479 115.126 602.079 114.831C602.016 114.802 601.953 114.739 601.894 114.709C601.449 114.402 600.99 114.142 600.528 113.91C600.435 113.881 600.343 113.835 600.267 113.788C599.284 113.343 598.266 113.036 597.253 112.88C597.194 112.863 597.114 112.851 597.051 112.834C596.547 112.758 596.021 112.729 595.517 112.712H595.395C594.857 112.695 594.348 112.712 593.827 112.775C591.923 113.233 587.819 114.587 585.591 117.846C583.468 120.966 581.678 126.088 584.326 133.064C588.316 140.889 596.98 143.87 604.799 140.548C612.715 137.197 617.873 128.022 615.528 120.55C615.372 120.045 615.372 119.734 615.372 119.734C617.297 123.287 617.991 127.833 617.192 132.071C617.222 132.033 617.255 131.991 617.255 131.991C617.255 131.991 615.666 146.473 597.594 146.528C597.657 146.549 597.716 146.582 597.774 146.604C603.433 148.773 609.823 148.403 615.292 145.573C620.026 143.147 623.498 139.102 625.403 133.938C625.991 132.416 626.42 130.789 626.697 129.082C628.358 118.998 622.985 107.838 615.49 99.7397ZM576 84.3918H570.621C567.615 94.6242 561.654 99.416 556.787 102.153C548.484 106.819 538.189 105.915 531.952 99.4286C530.845 98.3154 529.882 97.0138 529.074 95.5574C528.266 94.1052 527.59 92.6656 527.053 91.2469C525.954 88.3383 525.462 85.4799 525.778 82.5881C526.257 84.7894 527.082 86.9447 528.312 88.966C528.508 89.2715 528.697 89.5771 528.922 89.8826C530.948 92.8665 533.634 95.0845 536.643 96.5242C542.559 99.3239 549.788 99.077 556.02 95.5574C559.71 93.4942 563.683 90.0207 566.693 84.3918H565.446C565.196 84.3918 564.954 84.3918 564.7 84.3793C564.372 84.3625 564.044 84.3458 563.708 84.2997C563.544 84.2872 563.392 84.2537 563.228 84.2244H563.187C562.962 84.1951 562.748 84.1617 562.539 84.1156C562.334 84.0696 562.138 84.0277 561.941 83.965C561.764 83.9357 561.584 83.8854 561.404 83.8436C561.207 83.7934 561.026 83.7348 560.846 83.672C560.801 83.6595 560.776 83.6427 560.727 83.626C560.461 83.5506 560.202 83.4418 559.936 83.3372C559.919 83.3372 559.891 83.3205 559.874 83.3079C559.591 83.1991 559.317 83.061 559.034 82.9229C558.406 82.6174 557.804 82.2658 557.217 81.8683C557.029 81.7302 556.832 81.592 556.635 81.4372C555.832 80.8262 555.094 80.1231 554.421 79.3572C553.999 79.6669 553.609 79.985 553.142 80.278C552.756 80.5207 552.351 80.7341 551.945 80.9518C547.271 83.3665 542.067 83.6427 537.484 82.0231C533.675 80.6923 530.304 78.0432 528.008 74.2641C527.561 73.5443 527.168 72.7952 526.823 72C520.968 78.1938 518.767 86.9949 520.665 95.1306C521.251 97.6876 522.256 100.161 523.666 102.475C523.711 102.551 523.752 102.626 523.797 102.689H523.814C529.386 111.682 539.652 115.629 549.772 113.381C552.318 112.816 554.868 111.85 557.328 110.473C563.187 107.188 572.388 97.7629 576 84.3918ZM521.096 67.3881L525.967 62.4512L528.812 68.7229C529.063 69.2897 529.357 69.8236 529.689 70.3329C531.434 73.0889 533.922 75.0522 536.926 76.0584C537.458 76.2392 538.004 76.3459 538.545 76.4651C540.794 73.59 542.829 70.5835 544.339 67.3881C546.101 63.634 547.636 59.4898 549 55.0294V13C546.697 13.5216 543.705 13.8009 539.585 13.8009C538.872 13.8009 538.172 13.7105 537.467 13.6695C535.889 22.4343 534.379 31.0226 532.424 40.4692C525.183 75.5984 475.891 98.4059 439.474 66.3243C430.916 58.7875 433.035 57.9496 430.165 57.5759C429.372 57.4691 428.65 57.6046 428 57.8757L428.327 58.5945C433.601 70.4397 440.804 83.2133 461.328 93.2267C477.015 100.883 494.434 102.098 510.339 96.6193C511.539 96.2086 512.697 95.687 513.859 95.1818C513.788 94.8983 513.654 94.6355 513.591 94.3521C511.22 84.6467 514.023 74.5552 521.096 67.3881ZM409.462 44.707C410.727 42.057 416.706 33.1445 426.362 36.3542C435.257 39.3137 439.093 49.6974 444.031 56.4857C455.755 72.6231 478.87 80.942 497.109 72.886C519.01 63.2273 524.647 46.2419 527.584 29.7525C528.878 22.5403 529.927 16.3753 531 9.68033C528.803 8.95953 526.636 8.07761 524.526 6.90311C524.04 6.63177 523.586 6.30103 523.124 6C522.954 6.90311 522.775 7.81897 522.613 8.70087C518.352 31.6393 514.687 51.4485 498.994 59.9583C480.123 70.2191 461.521 63.7403 447.988 42.2266C447.805 41.934 447.622 41.6711 447.438 41.404L447.197 41.0351C446.036 39.0974 445.005 37.4693 444.031 36.0574C438.177 27.641 428.733 22.2943 419.381 22.095C412.612 21.9721 406.821 24.6051 403.047 29.549C399.702 33.9798 398.333 39.6232 399.307 45.0504C399.398 45.5253 399.448 45.8857 399.498 46.1952C399.648 44.5967 399.627 40.0345 402.827 35.5952C408.385 27.8784 419.148 27.1491 425.068 33.3947C425.068 33.3947 424.793 33.348 424.382 33.1148C418.208 29.7822 409.325 32.8816 405.102 39.3773C400.934 45.8221 403.043 54.866 408.231 59.2841C412.845 63.2188 419.347 62.1249 422.526 60.7003C425.359 59.4155 427.123 56.6256 428.005 54.8448L428.018 54.8279C429.582 50.9059 429.278 45.6058 424.731 41.9001C421.024 38.8939 415.378 39.4197 412.291 41.7474C410.44 43.1551 409.724 44.2406 409.462 44.707ZM414 79.9995L413.757 79C408.115 79.603 402.537 82.2712 398.058 86.513C393.672 90.5855 390.523 95.8021 388.954 101.605C387.354 107.66 387.778 113.918 390.137 119.213C392.299 124.297 396.45 128.836 401.827 132L402.474 131.195C398.213 126.973 395.288 122.492 393.777 117.879C392.207 113.038 392.102 107.809 393.479 102.757C394.717 97.9498 397.269 93.2454 400.849 89.1523C404.673 84.8857 409.102 81.8045 414 79.9995ZM390.828 142.137C383.837 136.655 378.76 130.193 376.136 123.437C373.344 116.283 372.828 108.371 374.639 100.555C376.269 93.1331 379.926 85.9207 385.205 79.6889C390.66 73.3398 397.51 68.6083 405 66.01L404.742 65C399.261 65.7921 393.762 68.1431 388.849 71.785C385.76 73.8678 382.873 76.4033 380.279 79.3285C375.224 85.0448 371.657 92.0309 369.967 99.5284C368.25 107.286 368.835 115.286 371.601 122.05C373.017 125.549 374.983 128.806 377.405 131.697C380.52 136.223 384.956 140.133 390.235 143L390.828 142.137ZM379.075 153.114C370.068 146.692 363.473 138.791 360 130.258C356.351 121.404 355.453 111.069 357.484 101.161C359.465 91.027 363.833 81.7962 370.123 74.4592C377.09 66.332 384.074 61.6455 386.703 59.8813C387.919 59.0661 388.053 58.9783 387.986 58.6815L387.719 58L387.271 58.1714C384.638 59.1748 382.039 60.4248 379.535 61.8922C375.142 64.572 371.034 67.9875 367.335 72.0302C360.159 79.8773 355.223 89.6432 353.058 100.283C350.855 111.349 352.117 122.532 356.61 131.776C358.917 136.567 362.015 140.94 365.818 144.778C369.717 148.54 373.993 151.646 378.532 154L379.075 153.114ZM385.798 -20L386 -21.0553C373.679 -24.0574 362.406 -28.5197 352.51 -34.3173H352.506C342.767 -39.9943 334.237 -47.196 327.146 -55.72L326.915 -56L326.581 -55.8708C325.038 -55.2764 323.401 -54.6174 321.714 -53.9153L321 -53.6224L321.528 -53.0452C329.753 -44.0431 339.64 -36.6561 350.91 -31.0869C361.395 -25.888 373.134 -22.1622 385.798 -20ZM374 -4.03546C359.694 -7.57471 346.581 -12.7733 335.026 -19.4868C323.433 -26.2004 313.247 -34.6793 304.757 -44.686L304.489 -45L304.12 -44.8133C302.973 -44.2234 301.793 -43.5869 300.612 -42.9545L299 -42.0888L299.473 -41.5796C309.061 -31.314 320.465 -22.8139 333.364 -16.3253C345.531 -10.1931 359.129 -5.70749 373.782 -3L374 -4.03546ZM338 0.963593C312.926 -8.28571 296.291 -18.6454 282.384 -33.6778L282.083 -34L281.719 -33.7649C280.347 -32.8852 278.961 -31.9707 277.568 -31.0432L277 -30.66L277.496 -30.1853C293.233 -15.1356 311.232 -5.51178 337.678 2L338 0.963593ZM290 -0.980896C278.724 -5.94794 269.905 -10.8983 263.516 -18.9165L262.799 -19C261.549 -18.0108 260.291 -17.009 259.037 -15.978L259 -15.2017C266.808 -7.3671 279.986 -2.60873 289.662 0L290 -0.980896ZM393.95 -73.4098L394.712 -73L394.779 -73.8323C394.823 -74.428 394.88 -75.0237 394.96 -75.611L395 -75.9236L394.734 -76.1053C391.412 -78.3994 388.369 -81.1118 385.681 -84.1748C380.25 -90.4572 376.485 -97.7282 374.802 -105.215C372.937 -113.09 373.469 -121.066 376.348 -128.278C379.041 -135.08 384.272 -141.599 391.474 -147.125L390.859 -148C385.428 -145.11 380.857 -141.173 377.686 -136.644C375.157 -133.69 373.132 -130.408 371.675 -126.88C368.831 -120.061 368.229 -111.996 369.992 -104.171C371.737 -96.6128 375.409 -89.5742 380.613 -83.8073C383.28 -80.8625 386.252 -78.3022 389.419 -76.2236C390.73 -75.2688 392.214 -74.352 393.95 -73.4098ZM386.709 -63.8771C384.08 -65.6455 377.09 -70.3278 370.122 -78.455C363.83 -85.7962 359.462 -95.027 357.48 -105.161C355.453 -115.061 356.347 -125.395 360.001 -134.258C363.471 -142.787 370.071 -150.692 379.08 -157.11L378.537 -158C373.993 -155.642 369.712 -152.54 365.812 -148.769C362.016 -144.94 358.918 -140.567 356.61 -135.776C352.121 -126.532 350.854 -115.349 353.057 -104.283C355.223 -93.6474 360.155 -83.8773 367.333 -76.0302C371.033 -71.9875 375.138 -68.5803 379.544 -65.8838C382.044 -64.4248 384.644 -63.1748 387.278 -62.1672L387.721 -62L387.93 -62.4222L387.984 -62.5853C388.055 -62.9783 387.926 -63.0661 386.709 -63.8771ZM393.073 -121.754C390.782 -116.257 390.376 -109.77 391.924 -103.485C393.422 -97.5687 396.419 -92.2128 400.598 -88L401.39 -88.1199C401.946 -89.1346 402.433 -89.948 402.913 -90.6844L402.888 -91.3266C399.696 -95.4323 397.414 -100.056 396.301 -104.688V-104.697C394.969 -109.929 395.067 -115.345 396.586 -120.358C398.052 -125.144 400.882 -129.785 405 -134.161L404.379 -135C399.176 -131.725 395.16 -127.015 393.073 -121.754ZM443.777 1.24683C439.002 -10.5101 428.621 -17.3278 422.808 -19.0417C420.597 -19.6918 418.411 -20 416.246 -20C407.682 -20 400.049 -15.0609 397.161 -6.95978C394.065 1.6521 397.331 11.2771 404.918 16.2923C405.054 15.6169 405.245 14.9541 405.475 14.3208C408.243 6.58704 416.663 2.60617 424.628 5.26147C431.653 7.60019 434.541 14.8316 435.072 22.9707C438.793 25.0477 442.212 27.7579 445.117 31C447.341 23.0847 448.357 12.5394 443.777 1.24683ZM518.274 -7.97379C518.402 -7.72772 518.56 -7.46472 518.714 -7.21442C518.821 -7.02777 518.932 -6.84109 519.056 -6.67142C519.09 -6.59506 519.137 -6.53143 519.197 -6.45508C519.414 -6.09872 519.666 -5.74237 519.914 -5.39874C521.849 -2.74738 524.241 -0.316559 527.32 1.3591C544.152 10.535 559.433 -0.104462 562 -3.617C560.257 -4.01154 552.407 -4.91937 549.14 -11.0579C546.514 -16.0085 546.347 -22.0707 548.474 -27.6068C548.892 -28.7692 549.435 -29.9018 550.097 -31.0006C550.14 -31.0812 550.187 -31.1575 550.251 -31.2212V-31.2339C550.328 -31.3569 550.421 -31.4842 550.498 -31.6072V-47.6428C547.607 -46.8071 545.079 -45.9077 542.631 -44.266C538.236 -41.3261 535.059 -38.0596 533.188 -34.6022C527.333 -23.8397 530.079 -10.5318 540.586 -4.177C542.789 -2.8407 545.13 -1.94135 547.517 -1.42804C542.055 -0.189301 536.122 -0.978363 530.967 -4.11334C520.461 -10.4894 517.715 -23.7761 523.553 -34.5386C526.346 -39.6844 531.505 -45.5302 540.914 -48.8052C547.154 -50.973 548.658 -50.8372 550.498 -51.0366V-56C547.534 -55.457 544.724 -54.634 542.102 -53.6244C541.115 -53.2553 540.163 -52.8523 539.227 -52.4153C528.755 -47.6131 521.473 -39.8414 518.62 -34.6022C513.781 -25.6978 513.922 -15.7413 518.274 -7.97379ZM509.282 -38.1279C510.093 -37.0187 511.302 -35.5426 512.841 -33.8438C513.193 -34.6148 513.508 -35.39 513.917 -36.1446C515.498 -39.0515 518.234 -42.6635 522 -46.2385C521.818 -46.3869 521.623 -46.5436 521.445 -46.6879C516.33 -50.8484 511.927 -54.4521 507.95 -56.9962C503.985 -59.5486 499.49 -61.1608 494.971 -61.7463C494.305 -61.837 493.626 -61.8989 492.956 -61.9442C489.024 -62.1834 485.092 -61.6556 481.521 -60.3155C479.009 -59.3672 476.815 -58.0683 475.002 -56.4561C473.066 -54.7531 471.567 -52.7162 470.553 -50.3989C470.264 -49.7928 470.024 -49.1619 469.842 -48.5146C469.784 -48.3785 469.751 -48.2424 469.705 -48.1064C468.993 -45.6035 468.828 -43.0264 469.175 -40.5236C469.221 -40.1937 469.283 -39.8597 469.341 -39.5463L469.523 -38.7794C469.966 -36.8785 470.736 -35.0684 471.795 -33.3943C474.576 -28.9947 478.992 -26.1002 484.215 -25.226C491.188 -24.0674 497.227 -27.5928 498.886 -30.5905C499.962 -32.5078 500.297 -34.9488 499.83 -37.1507C499.838 -37.2084 499.83 -37.2538 499.797 -37.3156C499.763 -37.4929 499.718 -37.6743 499.672 -37.8557C499.598 -38.1279 499.49 -38.4165 499.387 -38.6887C498.373 -41.2493 496.213 -43.1006 493.121 -44.0655C489.268 -45.2736 484.774 -43.0099 483.002 -40.1483C481.914 -38.3712 481.69 -37.2702 481.641 -36.8909C481.641 -36.7878 481.641 -36.7136 481.624 -36.6806C479.857 -39.4391 482.067 -46.4034 489.417 -48.0898C489.479 -48.1228 489.537 -48.1352 489.616 -48.1352C490.448 -48.3331 491.37 -48.4362 492.339 -48.4692C501.357 -48.7537 505.984 -42.7089 509.282 -38.1279ZM462.89 -54C463.001 -54.2947 463.073 -54.6037 463.196 -54.8841C463.684 -56.1438 464.308 -57.3512 465 -58.5157C460.798 -58.0214 456.455 -58.9816 453 -62C455.551 -58.3161 458.981 -55.6209 462.89 -54ZM478.915 27.7341C478.31 28.4857 477.569 29.0977 476.72 29.5496C477.25 30.1041 477.78 30.5723 478.294 30.9913C485.88 36.9964 496.986 35.7682 503.044 28.2434C509.177 20.6446 508.038 8.78638 500.605 2.90039C498.034 0.858978 494.795 -0.389679 491.011 -0.808655L489.847 -0.944183L490.783 -1.63425C490.915 -1.74103 491.011 -1.74103 491.462 -1.75336C492.688 -1.78622 496.443 -1.86017 499.471 -3.35938C509.293 -8.22672 504.982 -23.4202 503.404 -28C501.044 -21.3172 492.158 -11.9768 480.563 -7.27789C465.792 -1.30566 460.011 5.21289 455.469 13.7975C453.817 16.9027 448.471 28.5268 452.429 41.1161C460.198 52.3788 469.523 58.54 479.544 59C477.602 58.3921 475.677 57.5583 473.784 56.4082C467.444 52.58 463.266 46.6366 462.036 39.6867C460.844 33.0204 462.521 26.05 466.521 21.08C468.38 18.7675 470.467 17.2682 472.558 16.7754C474.467 16.2907 476.343 16.685 477.809 17.8392C479.296 19.0098 480.219 20.6939 480.426 22.5546C480.642 24.4317 480.095 26.2636 478.915 27.7341ZM406.13 -70.6004C407.372 -59.6022 417.184 -51.8329 428.93 -52.5347C434.421 -52.8688 442.593 -55.1328 450.295 -64.0926L450.694 -64.5521C450.111 -65.5128 449.603 -66.5194 449.217 -67.5428C442.811 -60.2163 434.652 -57.3299 429.882 -57.0417C420.313 -56.4736 411.755 -62.7935 410.686 -72.2921C410.149 -76.9496 411.546 -81.394 414.21 -84.8275C413.798 -82.9812 413.656 -81.0431 413.887 -79.059C414.96 -69.5604 423.518 -63.2363 433.083 -63.8044C436.812 -64.0174 442.09 -64.9948 448.265 -70.6756C447.317 -75.2036 448.055 -79.886 450.186 -83.9294C450.236 -84.0714 450.287 -84.2469 450.341 -84.3262C450.392 -84.4014 450.446 -84.4599 450.501 -84.5393C452.099 -87.3296 454.373 -89.7898 457.318 -91.5943C457.431 -91.6653 457.548 -91.7071 457.666 -91.7739C458.828 -92.5008 459.57 -92.7681 459.57 -92.7681C459.57 -92.7681 449.192 -84.769 452.837 -71.7282C455.329 -62.8102 463.786 -60.9097 467.302 -60.5003C467.713 -60.9305 468.107 -61.3733 468.56 -61.7743C470.813 -63.7709 473.54 -65.3541 476.619 -66.5529C490.114 -71.7909 505.011 -65.5044 507.306 -64.2304C507.918 -63.8963 508.564 -63.4953 509.223 -63.0859C510.204 -62.4761 511.249 -61.7701 512.352 -60.9932C512.675 -60.7635 512.994 -60.5337 513.317 -60.3082C513.716 -60.0158 514.114 -59.7276 514.513 -59.4352C514.576 -59.4059 514.651 -59.36 514.71 -59.3015C517.562 -57.1921 520.801 -54.6649 524.233 -52C526.414 -53.6499 528.814 -55.2122 531.444 -56.6324C530.236 -57.685 529.007 -58.7501 527.87 -59.7568C524.417 -62.8102 521.229 -65.613 518.339 -68.0148C516.27 -69.6063 514.316 -70.9973 512.696 -71.9162C505.351 -76.0849 498.45 -78.9796 489.238 -76.9913C479.363 -74.8568 474.068 -67.9689 474.068 -67.9689C475.218 -73.4492 477.735 -75.1827 480.55 -77.6973C470.759 -84.3262 473.477 -95.2117 475.713 -98.8582C477.454 -101.699 481.649 -106.419 489.93 -106.252C497.737 -106.097 508.182 -99.3929 518.578 -87.8809C524.258 -81.6028 532.128 -69.7191 537.757 -59.5939C537.812 -59.6148 537.862 -59.6398 537.917 -59.6607C541.017 -60.8554 544.226 -61.7618 547.431 -62.3507L549 -62.6348V-76.1141C548.09 -77.0749 546.965 -78.282 545.724 -79.6187H545.464L544.05 -81.4315C540.79 -84.9862 538.886 -89.3137 537.833 -93.7622C537.619 -94.5642 537.501 -95.3788 537.355 -96.1933C537.296 -96.5191 537.204 -96.8449 537.157 -97.1707C526.401 -108.787 514.013 -116.886 502.72 -118.403C499.776 -118.799 496.986 -119 494.301 -119C474.06 -119 460.493 -107.881 443.944 -88.3864C438.054 -81.4524 430.956 -80.5084 426.262 -81.9286C422.058 -83.1943 419.181 -86.4148 418.732 -90.3245C418.673 -90.8132 418.644 -91.2852 418.627 -91.7739C410.3 -88.307 405.098 -79.6688 406.13 -70.6004ZM543.14 -99.508C543.672 -94.3151 545.847 -89.3199 549.27 -85H571.371C567.978 -86.8367 564.919 -89.6946 563.036 -94.4345C559.015 -104.598 564.66 -110.738 568.731 -112.908C570.036 -113.74 571.564 -113.67 571.564 -113.67C571.564 -113.67 567.363 -109.799 566.22 -105.512C565.107 -101.357 566.216 -95.5011 572.63 -92.5031C578.371 -89.8223 584.053 -93.788 586.012 -96.4812C588.882 -100.393 588.899 -108.901 584.38 -115.375C578.765 -122.487 567.785 -124.056 560.438 -118.657C553.433 -113.509 550.739 -104.833 554.689 -96.65C555.479 -95.011 555.241 -94.9657 553.969 -96.6995C548.944 -103.56 547.513 -113.991 556.095 -120.3C562.969 -125.349 573.421 -123.467 574.882 -123.154C572.944 -123.99 570.877 -124.558 568.714 -124.83C562.413 -125.612 556.019 -123.669 551.153 -119.514C545.174 -114.395 542.312 -107.291 543.14 -99.508ZM574.986 -199L576 -199.262C575.208 -204.743 572.853 -210.245 569.207 -215.15C567.137 -218.243 564.602 -221.125 561.672 -223.719C555.956 -228.774 548.975 -232.34 541.473 -234.035C533.708 -235.747 525.713 -235.167 518.953 -232.405C515.454 -230.981 512.189 -229.019 509.302 -226.597C504.776 -223.482 500.866 -219.047 498 -213.773L498.867 -213.171C504.349 -220.166 510.815 -225.246 517.562 -227.866C524.724 -230.658 532.631 -231.174 540.447 -229.363C547.864 -227.729 555.08 -224.072 561.308 -218.798C567.661 -213.343 572.388 -206.498 574.986 -199ZM565 -191.243C564.397 -196.893 561.729 -202.467 557.491 -206.941C553.414 -211.327 548.201 -214.479 542.397 -216.049C536.338 -217.64 530.076 -217.228 524.788 -214.865C519.699 -212.704 515.164 -208.548 512 -203.172L512.805 -202.53C517.027 -206.786 521.505 -209.715 526.123 -211.23C530.96 -212.796 536.185 -212.897 541.245 -211.52C546.053 -210.282 550.758 -207.734 554.847 -204.154C559.114 -200.326 562.195 -195.902 564.005 -191L565 -191.243ZM512.735 -245.002C521.598 -248.651 531.919 -249.55 541.818 -247.519C551.943 -245.537 561.173 -241.165 568.507 -234.878C576.634 -227.91 581.314 -220.921 583.078 -218.287C583.78 -217.238 583.939 -217 584.206 -217C584.248 -217 584.294 -217.008 584.34 -217.017L585 -217.176L584.791 -217.723C583.788 -220.336 582.543 -222.94 581.068 -225.469C578.385 -229.858 574.975 -233.967 570.931 -237.67C563.087 -244.843 553.322 -249.776 542.695 -251.941C531.63 -254.144 520.448 -252.886 511.214 -248.392C506.425 -246.081 502.054 -242.983 498.222 -239.179C494.457 -235.284 491.353 -231.007 489 -226.464L489.89 -225.92C496.304 -234.932 504.206 -241.529 512.735 -245.002ZM593.141 -200.256C593.308 -198.577 593.638 -196.928 594.123 -195.318C594.649 -193.551 595.366 -191.843 596.267 -190.219C596.267 -190.206 596.267 -190.194 596.279 -190.177H596.296C596.879 -189.086 597.568 -188.038 598.334 -187.048C598.591 -186.689 598.884 -186.342 599.178 -186C599.312 -186.287 599.451 -186.558 599.602 -186.85C599.716 -187.061 599.826 -187.264 599.948 -187.48C600.335 -188.152 600.767 -188.799 601.24 -189.416C601.24 -189.433 601.24 -189.446 601.265 -189.462C602.455 -191.069 603.853 -192.447 605.39 -193.551C607.481 -195.102 609.849 -196.151 612.315 -196.683C616.897 -197.715 624.862 -196.954 629.305 -194.214C630.862 -193.25 632.118 -192.046 633.227 -190.726C633.467 -190.879 633.756 -190.967 634.025 -191.094L634.38 -193.069C634.955 -196.307 636.218 -199.355 637.988 -202.107C634.979 -206.851 631.441 -209.865 628.437 -211.548C624.931 -213.513 621.222 -214.452 617.619 -214.452C610.64 -214.452 604.085 -210.922 600.282 -204.449C599.675 -203.414 599.157 -202.34 598.746 -201.253C598.542 -205.202 599.483 -209.066 601.497 -212.503C606.845 -221.588 618.1 -224.4 627.671 -219.047C631.58 -216.849 636.5 -212.49 639.647 -204.348C640.869 -205.857 642.202 -207.282 643.764 -208.504C643.841 -208.563 643.927 -208.601 644 -208.66C639.622 -216.574 633.793 -222.159 629.635 -224.526C617.504 -231.4 603.274 -227.799 596.504 -216.139C593.662 -211.256 592.586 -205.654 593.141 -200.256ZM610.638 -255.227C613.757 -249.577 616.454 -243.444 618.881 -236.474L619.045 -236L621 -236.595L620.865 -237.09C618.869 -244.347 616.528 -250.809 613.716 -256.838C608.408 -268.209 601.379 -278.183 592.816 -286.472L592.267 -287L591.988 -286.288C591.32 -284.587 590.689 -282.939 590.127 -281.383L590 -281.046L590.271 -280.809C598.378 -273.652 605.232 -265.047 610.638 -255.227ZM597 -303.607L597.303 -303.344C606.839 -295.006 614.922 -284.997 621.33 -273.599C623.677 -269.432 625.865 -264.878 628.208 -259.267L628.738 -258L629.154 -259.308C629.393 -260.057 629.652 -260.764 629.931 -261.46L630 -261.645L629.935 -261.83C628.006 -267.116 626.234 -271.373 624.344 -275.236C618.15 -287.918 610.051 -299.119 600.265 -308.531L599.783 -309L598.918 -307.338C598.323 -306.203 597.736 -305.072 597.182 -303.965L597 -303.607ZM609 -326.007L609.301 -325.715C621.754 -313.577 630.792 -299.23 638.611 -279.194L639.074 -278L639.712 -279.577C639.789 -279.752 639.866 -279.927 639.931 -280.106L640 -280.276L639.943 -280.451C633.408 -301.415 624.963 -316.856 612.558 -330.513L612.115 -331L611.762 -330.442C610.889 -329.073 610.04 -327.717 609.219 -326.369L609 -326.007ZM624 -347.198L624.083 -346.48C632.096 -340.092 637.049 -331.275 642.015 -320L643 -320.338C640.388 -330.017 635.63 -343.193 627.797 -351L627.021 -350.963C625.986 -349.705 624.981 -348.451 624 -347.198ZM630 -232.003C631.025 -231.566 632.045 -231.116 633.036 -230.577C634.575 -229.737 636.327 -228.511 638.155 -227C639.167 -232.431 641.034 -237.57 642.951 -242.534C644.988 -247.52 647.114 -252.379 648.9 -257.258C650.341 -261.098 651.438 -265.044 652.361 -269.016C652.969 -272.945 654.512 -286.698 648.564 -297C648.734 -296.109 648.853 -295.311 648.925 -294.929C649.465 -292.002 649.627 -288.997 649.529 -286.023C649.312 -279.399 647.917 -272.899 644.639 -267.115C638.419 -256.13 632.509 -244.469 630 -232.003ZM646.092 -300C649.896 -296.836 652.871 -292.487 654.329 -287.629C655.986 -282.433 656.138 -276.902 655.597 -271.57C655.047 -266.213 653.691 -261.033 652.068 -255.961C650.369 -250.897 648.235 -246.097 646.35 -241.306C644.377 -236.548 642.589 -231.81 641.541 -226.965C641.296 -225.99 641.165 -224.991 641 -223.999C643.819 -221.025 646.612 -217.366 649.004 -213C650.027 -213.52 651.071 -214 652.153 -214.363C654.35 -218.184 657.101 -221.872 658.771 -225.643C665.068 -239.877 669.251 -258.497 665.697 -274.242C663.331 -284.721 657.532 -293.928 646.642 -299.723C646.46 -299.818 646.274 -299.905 646.092 -300ZM669.514 -238.638C668.899 -236.234 668.233 -233.981 667.554 -231.902C670.635 -233.387 673.858 -234.146 676.999 -234.146C683.471 -234.146 689.568 -231.109 693.191 -225.503C695.296 -222.221 696.323 -218.513 696.177 -214.704C695.739 -215.746 695.193 -216.767 694.557 -217.758C688.537 -227.123 676.166 -229.86 665.788 -224.136C665.324 -223.883 664.83 -223.554 664.344 -223.234C664.112 -222.685 663.889 -222.158 663.683 -221.69C662.668 -219.387 661.341 -217.197 660 -215.063C660.266 -215.071 660.529 -215.13 660.795 -215.13C662.26 -215.13 663.734 -215.008 665.165 -214.764C669.432 -214.042 673.342 -212.435 677.012 -210.364C679.015 -210.457 680.914 -210.377 682.435 -210.077C684.953 -209.609 687.381 -208.639 689.534 -207.175C691.12 -206.137 692.563 -204.83 693.801 -203.303C693.827 -203.29 693.827 -203.273 693.827 -203.261C694.317 -202.674 694.763 -202.058 695.172 -201.413C695.301 -201.206 695.421 -201.017 695.533 -200.81C695.692 -200.536 695.838 -200.274 695.984 -200C696.276 -200.337 696.564 -200.675 696.826 -201.025C697.582 -201.991 698.274 -203.016 698.846 -204.075H698.859C698.876 -204.092 698.876 -204.1 698.876 -204.117C699.765 -205.695 700.47 -207.352 700.981 -209.061C701.445 -210.621 701.755 -212.216 701.897 -213.84C702.378 -219.045 701.183 -224.427 698.218 -229.084C692.108 -238.685 680.458 -242.203 669.514 -238.638ZM616.545 -78.2231C617.244 -76.7349 618.27 -75.4038 619.433 -74.2008C619.64 -73.8453 619.892 -73.5394 620.227 -73.341C621.75 -71.9686 623.488 -70.8813 625.35 -70.0298C632.881 -66.6194 641.88 -67.7479 648.824 -71.6172C652.349 -73.5105 655.411 -75.9825 658.179 -78.5497C659.64 -79.9097 661.088 -81.2945 662.429 -82.7786C663.43 -83.8906 664.684 -84.9075 666.128 -85.4408C667.841 -86.0733 685 -85.7095 685 -85.7012C685 -85.7054 684.537 -91.7656 679.017 -94.5146C678.512 -94.8453 677.937 -95.114 677.333 -95.3372C676.948 -95.5274 676.567 -95.7175 676.149 -95.9201C674.047 -96.9536 671.652 -98.1193 669.169 -99.9217C665.49 -102.592 664.766 -106.759 664.791 -110C660.244 -105.044 651.021 -100.376 644.429 -97.0445C642.969 -96.3045 641.673 -95.6514 640.647 -95.1016C635.438 -92.303 633.038 -83.4772 631.991 -77.5989L631.342 -71.3361C630.58 -71.4229 629.231 -71.5304 628.482 -71.6999L628.453 -75.9495C628.486 -79.7071 627.924 -85.1679 627.858 -85.8831C627.522 -89.7648 627.92 -91.6002 626.612 -94.1674C626.43 -94.5146 626.244 -94.8577 626.037 -95.2008C625.702 -95.763 625.197 -96.3665 624.659 -97.0073C624.353 -97.3752 624.038 -97.7514 623.732 -98.1483C622.975 -95.5067 621.043 -91.7614 616.024 -89.7607V-89.7689C615.829 -89.6862 615.655 -89.587 615.403 -89.4961C614.695 -85.8872 614.828 -81.9063 616.545 -78.2231ZM660 -129C652.244 -120.114 640.793 -109.078 627.5 -103.164L627 -102.975C627.175 -102.21 627.924 -99.6885 630.493 -98.5424C632.473 -97.6541 637.074 -97.912 639.058 -98.9149C640.122 -99.4552 641.448 -100.106 642.94 -100.835C646.856 -102.73 651.936 -105.194 656.216 -107.814L655.912 -110.249C655.288 -115.251 656.481 -120.887 660 -129ZM632 -182.149C633.931 -180.951 644.771 -174.404 649 -172C649 -172 646.71 -175.193 647.142 -182.599C646.359 -182.715 645.557 -182.864 644.824 -182.913L643.82 -182.979C643.372 -182.996 642.933 -183 642.514 -183C640.82 -183 634.915 -182.426 632 -182.149ZM645.319 -186.362V-186.327C647.345 -186.17 649.567 -185.846 652 -185.3C651.273 -188.043 649.202 -189.592 649.088 -189.676L648.937 -189.764C648.672 -189.857 642.412 -192.139 636.45 -190.261C635.874 -190.079 635.395 -189.749 634.983 -189.341C634.071 -188.54 633.529 -187.158 633.202 -185.885C633.126 -185.585 633.05 -185.29 633 -185.015C633.004 -185.015 633.004 -185.015 633.008 -185.015C633.008 -185.01 633.008 -185.005 633.004 -185C633.185 -185.069 633.357 -185.118 633.534 -185.182C633.849 -185.28 634.147 -185.383 634.492 -185.477C634.496 -185.487 634.5 -185.497 634.504 -185.511C635.248 -185.737 635.979 -185.929 636.685 -186.032C638.605 -186.313 641.672 -186.593 645.319 -186.362ZM656.946 -148.379C656.956 -149.014 656.975 -149.683 657 -150.347C655.163 -150.87 653.203 -151.415 651.106 -152C651.003 -150.009 650.978 -148.007 651.018 -146C653.031 -146.77 655.001 -147.569 656.946 -148.379ZM646 -152.773C644.144 -153.179 642.274 -153.59 640.351 -154C639.928 -150.302 639.89 -146.618 640.223 -143C642.103 -143.507 643.997 -144.037 645.881 -144.58C645.691 -147.298 645.724 -150.033 646 -152.773ZM636 -153.826C634.216 -154.222 632.436 -154.618 630.665 -155C629.807 -149.335 629.78 -143.634 630.58 -138C632.319 -138.445 634.067 -138.904 635.87 -139.395C635.254 -144.151 635.299 -148.984 636 -153.826ZM626 -156.961C624.271 -157.333 622.614 -157.677 620.986 -158C619.678 -150.761 619.67 -143.239 620.969 -136C622.55 -136.372 624.212 -136.784 625.966 -137.227C624.815 -143.732 624.832 -150.474 626 -156.961ZM607.853 -134.969C608.947 -129.8 612.296 -120.927 622.461 -112.173C626.469 -113.824 644.553 -122.093 664.909 -143.558C664.921 -143.546 664.926 -143.533 664.934 -143.524C665.99 -142.329 667.379 -141.624 668.853 -141.54C668.95 -141.531 669.056 -141.527 669.157 -141.527C669.187 -141.527 669.221 -141.54 669.25 -141.54C668.714 -140.036 668.127 -138.567 667.455 -137.194C661.289 -124.593 659.317 -117.608 659.951 -112C660.707 -112.633 661.404 -113.263 661.978 -113.888L666.94 -119.293C667.819 -128.769 674.567 -137.595 676.493 -147.165C676.493 -147.177 676.497 -147.182 676.497 -147.194C677.021 -149.373 677 -151.987 677 -151.987C677 -154.66 676.649 -157.249 676.079 -159.753C674.508 -159.247 672.891 -158.947 671.248 -158.807C671.349 -158.153 671.467 -157.503 671.518 -156.84C670.982 -157.055 670.424 -157.211 669.85 -157.245C668.072 -157.359 666.429 -156.569 665.188 -155.209C664.592 -155.687 663.954 -156.193 663.296 -156.713C663.296 -156.713 663.291 -156.717 663.287 -156.721L663.283 -156.726C663.173 -156.81 663.063 -156.894 662.953 -156.979C662.396 -157.414 661.817 -157.861 661.213 -158.322C660.994 -158.491 660.762 -158.668 660.529 -158.841C660.525 -158.845 660.521 -158.845 660.521 -158.845C655.25 -162.84 648.535 -167.503 641.132 -171.675C641.212 -171.628 641.297 -171.59 641.377 -171.544C641.297 -171.59 641.208 -171.633 641.128 -171.679C640.401 -172.089 639.662 -172.49 638.919 -172.891C638.569 -173.077 638.222 -173.267 637.872 -173.453C637.137 -173.841 636.394 -174.217 635.655 -174.589V-174.593C635.65 -174.593 635.65 -174.593 635.65 -174.593C635.427 -174.703 635.207 -174.821 634.983 -174.935C635.207 -174.821 635.422 -174.703 635.646 -174.593C629.138 -177.857 622.271 -180.577 615.489 -182C613.635 -179.53 607.786 -171.16 607 -162.625C608.677 -163.761 610.21 -164.563 610.303 -164.606L610.75 -164.838L611.244 -164.766C626.127 -162.587 652.573 -156.088 663.899 -153.229C663.405 -152.194 663.067 -151.033 662.983 -149.779C662.907 -148.562 663.055 -147.389 663.397 -146.312C646.483 -139.576 623.796 -133.943 612.148 -131.751L611.426 -131.616L610.864 -132.084C610.763 -132.169 609.369 -133.326 607.853 -134.969ZM612.967 -159.811C612.5 -159.87 611.967 -159.945 611.51 -160C610.836 -159.702 609.95 -159.291 609.026 -158.8L605.759 -157.079C605.052 -153.583 604.46 -148.064 605.808 -142.897L611.163 -138.427C611.826 -137.877 612.456 -137.395 613 -137C610.701 -144.471 610.695 -152.34 612.967 -159.811ZM688.389 -198.816C681.52 -205.001 674.084 -211.173 665.369 -212.701C659.548 -213.717 653.353 -212.116 648.365 -208.296C644.634 -205.445 642.178 -201.668 641 -197.514C641.328 -197.502 641.673 -197.485 642.148 -197.485C646.674 -197.485 650.278 -196.405 650.956 -196.187L651.208 -196.11C651.607 -196.537 652.011 -196.921 652.423 -197.25C655.557 -199.747 660.52 -199.06 663.254 -195.752C664.612 -194.108 665.125 -192.089 664.692 -190.075C664.255 -188.052 663.069 -186.336 661.357 -185.247C660.049 -184.411 658.48 -183.98 656.957 -184.009C655.67 -184.039 654.674 -184.487 653.677 -185.128C653.567 -185.2 653.454 -185.234 653.345 -185.311L653.168 -184.872C653.13 -184.739 653.096 -184.603 653.059 -184.466C652.979 -184.18 652.895 -183.89 652.831 -183.608C650.749 -174.043 656.722 -164.537 666.143 -162.412C670.804 -161.366 675.893 -162.335 680.103 -165.067C684.162 -167.696 686.921 -171.58 687.88 -175.998C688.599 -179.25 688.305 -182.725 687.009 -186.344L685.684 -190.126L687.278 -187.859C687.312 -187.808 690.66 -183.07 692.923 -181.769C696.599 -179.656 702.235 -179.993 705.759 -182.537C708.455 -184.487 709.881 -188.41 711 -191.735C703.926 -190.877 697.734 -190.386 688.389 -198.816ZM708 -228.589L708.067 -228.348C708.292 -227.581 708.471 -226.817 708.609 -226.083L708.814 -225L709.523 -225.846C712.331 -229.186 715.386 -232.269 718.607 -235.016C725.93 -241.256 735.147 -245.595 745.262 -247.562C755.134 -249.578 765.449 -248.686 774.303 -245.064C782.812 -241.621 790.698 -235.07 797.111 -226.124L798 -226.664C795.651 -231.174 792.551 -235.418 788.791 -239.285L788.783 -239.293C784.965 -243.06 780.6 -246.135 775.818 -248.429C766.597 -252.885 755.439 -254.134 744.377 -251.952C733.766 -249.802 724.023 -244.907 716.187 -237.787C713.153 -235.024 710.449 -231.995 708.146 -228.792L708 -228.589ZM789 -213.773C786.138 -219.047 782.228 -223.482 777.739 -226.567C774.81 -229.019 771.554 -230.981 768.05 -232.405C761.29 -235.167 753.286 -235.747 745.524 -234.035C738.027 -232.34 731.045 -228.774 725.328 -223.719C722.403 -221.125 719.864 -218.243 717.802 -215.171C714.143 -210.245 711.792 -204.743 711 -199.262L712.014 -199C714.613 -206.498 719.34 -213.343 725.689 -218.798C731.921 -224.072 739.137 -227.729 746.559 -229.363C754.371 -231.174 762.279 -230.658 769.441 -227.866C776.193 -225.246 782.655 -220.166 788.133 -213.175L789 -213.773ZM777 -203.171C773.836 -208.548 769.301 -212.703 764.221 -214.86C758.926 -217.223 752.664 -217.647 746.601 -216.043C740.798 -214.474 735.585 -211.326 731.517 -206.944C727.275 -202.466 724.603 -196.893 724 -191.243L724.995 -191C726.809 -195.902 729.89 -200.326 734.156 -204.149C738.241 -207.733 742.95 -210.281 747.766 -211.523C752.817 -212.896 758.042 -212.799 762.878 -211.23C767.488 -209.719 771.969 -206.789 776.195 -202.529L777 -203.171ZM718.284 -124.83C716.121 -124.558 714.054 -123.99 712.121 -123.154C713.581 -123.467 724.033 -125.349 730.907 -120.3C739.484 -113.991 738.054 -103.56 733.029 -96.6995C731.761 -94.9657 731.518 -95.011 732.313 -96.65C736.263 -104.833 733.568 -113.509 726.56 -118.657C719.213 -124.056 708.238 -122.487 702.623 -115.375C698.1 -108.901 698.117 -100.393 700.991 -96.4812C702.945 -93.788 708.631 -89.8223 714.368 -92.5031C720.786 -95.5011 721.891 -101.357 720.782 -105.512C719.635 -109.799 715.435 -113.67 715.435 -113.67C715.435 -113.67 716.966 -113.74 718.267 -112.908C722.338 -110.738 727.987 -104.598 723.962 -94.4345C722.083 -89.6946 719.02 -86.8367 715.627 -85H737.727C741.15 -89.3199 743.325 -94.3151 743.861 -99.508C744.685 -107.291 741.823 -114.395 735.849 -119.514C730.983 -123.669 724.585 -125.612 718.284 -124.83ZM821.8 -54.8841C821.923 -54.6037 821.995 -54.2947 822.105 -54C826.019 -55.6209 829.445 -58.3161 832 -62C828.541 -58.9816 824.198 -58.0214 820 -58.5157C820.692 -57.3512 821.312 -56.1438 821.8 -54.8841ZM771.633 -35.4684C772.276 -34.3097 772.831 -33.1222 773.326 -31.9264C775.798 -34.4417 777.665 -36.6187 778.8 -38.1279C782.174 -42.7089 786.906 -48.7537 796.131 -48.4692C797.117 -48.4362 798.061 -48.3331 798.912 -48.1352C798.993 -48.1352 799.056 -48.1228 799.115 -48.0898C806.638 -46.4034 808.899 -39.4391 807.087 -36.6806C807.07 -36.7136 807.07 -36.7878 807.07 -36.8909C807.023 -37.2702 806.795 -38.3712 805.677 -40.1483C803.865 -43.0099 799.272 -45.2736 795.327 -44.0655C792.169 -43.1006 789.955 -41.2493 788.917 -38.6887C788.812 -38.4165 788.701 -38.1279 788.625 -37.8557C788.579 -37.6743 788.532 -37.4929 788.498 -37.3156C788.473 -37.2538 788.456 -37.2084 788.473 -37.1507C787.99 -34.9488 788.329 -32.5078 789.43 -30.5905C791.131 -27.5928 797.304 -24.0674 804.441 -25.226C809.779 -26.1002 814.296 -28.9947 817.145 -33.3943C818.229 -35.0684 819.016 -36.8785 819.465 -38.7794L819.651 -39.5463C819.711 -39.8597 819.774 -40.1937 819.821 -40.5236C820.176 -43.0264 820.007 -45.6035 819.279 -48.1064C819.232 -48.2424 819.203 -48.3785 819.143 -48.5146C818.957 -49.1619 818.707 -49.7928 818.415 -50.3989C817.378 -52.7162 815.841 -54.7531 813.864 -56.4561C812.006 -58.0683 809.762 -59.3672 807.193 -60.3155C803.544 -61.6556 799.518 -62.1834 795.496 -61.9442C794.814 -61.8989 794.12 -61.837 793.439 -61.7463C788.812 -61.1608 784.214 -59.5486 780.163 -56.9962C776.09 -54.4521 771.586 -50.8484 766.358 -46.6879C765.596 -46.0818 764.8 -45.4509 764 -44.8118C767.548 -41.4925 770.138 -38.1568 771.633 -35.4684ZM730.306 -12.192C730.102 -12.072 729.916 -11.97 729.694 -11.808C729.694 -11.808 730.138 -12.048 730.306 -12.192ZM723 -3.617C725.563 -0.104462 740.845 10.535 757.686 1.3591C760.761 -0.316559 763.149 -2.74738 765.083 -5.39874C765.336 -5.74237 765.583 -6.09872 765.801 -6.45508C765.869 -6.53143 765.912 -6.59506 765.942 -6.67142C766.07 -6.84109 766.177 -7.02777 766.288 -7.21442C766.442 -7.46472 766.6 -7.72772 766.724 -7.97379C771.076 -15.7413 771.221 -25.6978 766.382 -34.6022C763.525 -39.8414 756.251 -47.6131 745.774 -52.4153C744.834 -52.8523 743.882 -53.2553 742.899 -53.6244C740.277 -54.634 737.466 -55.457 734.498 -56V-51.0366C736.343 -50.8372 737.842 -50.973 744.087 -48.8052C753.492 -45.5302 758.651 -39.6844 761.445 -34.5386C767.287 -23.7761 764.537 -10.4894 754.03 -4.11334C748.879 -0.978363 742.942 -0.189301 737.483 -1.42804C739.871 -1.94135 742.216 -2.8407 744.415 -4.177C754.918 -10.5318 757.669 -23.8397 751.817 -34.6022C749.938 -38.0596 746.765 -41.3261 742.37 -44.266C739.922 -45.9077 737.394 -46.8071 734.498 -47.6428V-31.6072C734.575 -31.4842 734.673 -31.3569 734.746 -31.2339V-31.2212C734.81 -31.1575 734.861 -31.0812 734.908 -31.0006C735.561 -29.9018 736.108 -28.7692 736.527 -27.6068C738.654 -22.0707 738.487 -16.0085 735.856 -11.0579C732.597 -4.91937 724.743 -4.01154 723 -3.617ZM824.959 39.6867C823.733 46.6366 819.559 52.58 813.211 56.4082C811.319 57.5583 809.394 58.3921 807.452 59C817.481 58.54 826.802 52.3788 834.57 41.1161C838.529 28.5268 833.187 16.9027 831.527 13.7975C826.984 5.21289 821.208 -1.30566 806.433 -7.27789C794.838 -11.9768 785.952 -21.3172 783.592 -28C782.018 -23.4202 777.703 -8.22672 787.526 -3.35938C790.557 -1.86017 794.308 -1.78622 795.534 -1.75336C795.99 -1.74103 796.081 -1.74103 796.217 -1.63425L797.153 -0.944183L795.99 -0.808655C792.205 -0.389679 788.967 0.858978 786.391 2.90039C778.962 8.78638 777.823 20.6446 783.956 28.2434C790.01 35.7682 801.116 36.9964 808.702 30.9913C809.216 30.5723 809.746 30.1041 810.276 29.5496C809.427 29.0977 808.69 28.4857 808.081 27.7341C806.901 26.2636 806.354 24.4317 806.57 22.5546C806.781 20.6939 807.704 19.0098 809.187 17.8392C810.657 16.685 812.532 16.2907 814.437 16.7754C816.528 17.2682 818.62 18.7675 820.479 21.08C824.475 26.05 826.152 33.0204 824.959 39.6867ZM742.954 -80.55L741.536 -78.6946H741.276C740.035 -77.3266 738.914 -76.0911 738 -75.1078V-59.2303L738.86 -59.0678C741.914 -58.4949 744.976 -57.6057 747.929 -56.4429C748.03 -56.4044 748.118 -56.3574 748.215 -56.3189C753.882 -67.0451 762.398 -80.3405 768.422 -87.1507C778.821 -98.9328 789.266 -105.794 797.069 -105.952C805.35 -106.123 809.553 -101.293 811.285 -98.3856C813.521 -94.6535 816.244 -83.5126 806.453 -76.7281C809.264 -74.1545 811.78 -72.3804 812.934 -66.7715C812.934 -66.7715 807.636 -73.821 797.761 -76.0056C788.553 -78.0406 781.648 -75.0779 774.303 -70.8114C772.684 -69.8709 770.729 -68.4473 768.665 -66.8185C765.77 -64.3603 762.582 -61.4918 759.13 -58.3667C757.452 -56.8405 755.661 -55.2459 753.84 -53.6299C756.441 -52.2106 758.815 -50.6502 760.967 -49C765.103 -52.279 768.929 -55.357 772.289 -57.9007C772.348 -57.9605 772.428 -58.0076 772.491 -58.0375C772.885 -58.3368 773.284 -58.6317 773.686 -58.931C774.005 -59.1618 774.328 -59.397 774.651 -59.6321C775.754 -60.4273 776.799 -61.1497 777.776 -61.7739C778.439 -62.1929 779.081 -62.6033 779.693 -62.9453C781.988 -64.2492 796.884 -70.6832 810.384 -65.3222C813.463 -64.0953 816.194 -62.475 818.442 -60.4315C818.895 -60.0211 819.289 -59.568 819.696 -59.1276C823.216 -59.5466 831.669 -61.4918 834.165 -70.619C837.806 -83.9658 827.428 -92.1526 827.428 -92.1526C827.428 -92.1526 828.17 -91.879 829.332 -91.1351C829.45 -91.0667 829.571 -91.0239 829.684 -90.9513C832.629 -89.1044 834.903 -86.5864 836.501 -83.7307C836.556 -83.6494 836.606 -83.5896 836.656 -83.5126C836.711 -83.4314 836.766 -83.2519 836.82 -83.1065C838.943 -78.9682 839.685 -74.1759 838.733 -69.5417C844.912 -63.7276 850.185 -62.7272 853.914 -62.5092C863.483 -61.9278 872.036 -68.4003 873.115 -78.1218C873.341 -80.1524 873.198 -82.1361 872.792 -84.0256C875.455 -80.5115 876.852 -75.9629 876.32 -71.1962C875.241 -61.4746 866.688 -55.0065 857.115 -55.5879C852.35 -55.8829 844.191 -58.8369 837.781 -66.3354C837.399 -65.288 836.891 -64.2577 836.304 -63.2745L836.707 -62.8042C844.404 -53.6342 852.576 -51.3171 858.067 -50.9751C869.813 -50.2569 879.629 -58.2085 880.871 -69.4648C881.899 -78.7459 876.697 -87.5868 868.374 -91.1351C868.358 -90.6349 868.324 -90.1518 868.265 -89.6516C867.821 -85.6502 864.939 -82.3541 860.735 -81.0587C856.045 -79.6052 848.943 -80.5714 843.054 -87.668C826.513 -107.62 812.938 -119 792.698 -119C790.013 -119 787.223 -118.795 784.279 -118.389C772.986 -116.837 760.598 -108.547 749.842 -96.6585C749.796 -96.325 749.704 -95.9916 749.649 -95.6581C749.503 -94.8245 749.385 -93.9908 749.167 -93.17C748.118 -88.6171 746.209 -84.1881 742.954 -80.55ZM882 -134.161C886.121 -129.785 888.951 -125.144 890.413 -120.362C891.931 -115.349 892.033 -109.933 890.701 -104.697V-104.688C889.584 -100.056 887.307 -95.4323 884.111 -91.3266L884.091 -90.6844C884.57 -89.948 885.053 -89.1346 885.614 -88.1199L886.401 -88C890.583 -92.2171 893.584 -97.573 895.078 -103.49C896.625 -109.77 896.215 -116.257 893.929 -121.745C891.842 -127.015 887.826 -131.721 882.621 -135L882 -134.161ZM888.841 -6.95978C885.949 -15.0609 878.316 -20 869.751 -20C867.59 -20 865.4 -19.6918 863.193 -19.0417C857.375 -17.3278 846.994 -10.5101 842.223 1.24683C837.643 12.5394 838.659 23.0847 840.883 31C843.788 27.7579 847.207 25.0477 850.928 22.9707C851.456 14.8316 854.343 7.60019 861.373 5.26147C869.334 2.60617 877.759 6.58704 880.523 14.3208C880.757 14.9541 880.944 15.6169 881.084 16.2923C888.667 11.2771 891.933 1.6521 888.841 -6.95978ZM892.521 -147.125C899.724 -141.604 904.951 -135.089 907.653 -128.278C910.528 -121.066 911.059 -113.09 909.194 -105.21C907.511 -97.7282 903.75 -90.4572 898.315 -84.1748C895.631 -81.1118 892.583 -78.3994 889.261 -76.1053L889 -75.9236L889.035 -75.611C889.115 -75.0195 889.177 -74.428 889.221 -73.8239L889.297 -73L890.05 -73.4098C891.786 -74.3477 893.261 -75.2688 894.559 -76.2067C897.744 -78.3022 900.716 -80.8625 903.387 -83.8073C908.588 -89.5742 912.264 -96.6128 914.005 -104.171C915.772 -111.996 915.17 -120.061 912.322 -126.88C910.864 -130.408 908.84 -133.69 906.346 -136.606C903.139 -141.168 898.577 -145.106 893.137 -148L892.521 -147.125ZM904.925 -157.11C913.932 -150.692 920.527 -142.791 924.004 -134.258C927.653 -125.399 928.543 -115.065 926.516 -105.161C924.535 -95.027 920.167 -85.7962 913.877 -78.455C906.91 -70.3278 899.922 -65.6455 897.293 -63.8771C896.077 -63.0661 895.947 -62.9783 896.014 -62.6815L896.282 -62L896.729 -62.1672C899.362 -63.1748 901.962 -64.4248 904.465 -65.888C908.858 -68.572 912.962 -71.9834 916.665 -76.0302C923.841 -83.8773 928.777 -93.6432 930.942 -104.283C933.145 -115.349 931.883 -126.532 927.39 -135.772C925.083 -140.567 921.986 -144.94 918.178 -148.778C914.283 -152.54 910.003 -155.642 905.464 -158L904.925 -157.11ZM998.648 49.4857C978.697 60.3273 961.797 66.1058 953.28 68.6373C936.581 50.4523 914.202 41.8619 903.252 38.5229C903.311 39.0877 903.336 39.6568 903.374 40.2259C912.994 45.4102 930.416 55.6576 938.507 65.8757C950.112 80.5291 952.415 98.484 952.432 114.476C952.478 157.056 914.686 180.605 891.693 180.605C836.538 180.605 824.861 142.423 823.871 138.85C832.083 141.11 873.117 148.721 873.117 108.932C873.117 98.3417 866.686 90.2158 857.855 84.5251C850.333 93.785 841.177 101.221 829.993 106.802C818.697 112.439 806.783 115.292 794.571 115.292C787.509 115.292 780.542 114.313 773.776 112.38C766.384 121.77 754.975 127.331 742.626 127.331C739.646 127.331 736.654 127.008 733.724 126.368C729.654 125.477 725.696 123.987 721.981 121.937C720.936 121.364 719.825 120.644 718.688 119.857V140.775C718.688 160.495 730.218 189.882 752.86 189.882C792.599 189.882 784.997 148.796 782.745 140.574C786.309 141.566 824.443 153.257 824.443 208.485C824.443 231.503 800.924 269.342 758.402 269.3C742.425 269.279 724.493 266.974 709.862 255.358C695.369 243.851 680.763 213.423 680.763 213.423C680.763 213.423 687.696 247.194 712.62 270.149C710.597 276.959 706.507 289.127 699.423 303.931C697.639 307.658 695.666 311.552 693.488 315.57C672.38 354.522 643.502 378 643.502 378C643.502 377.996 614.62 354.522 593.512 315.57C582.684 295.594 576.913 278.673 574.384 270.149C599.304 247.194 606.237 213.423 606.237 213.423C606.237 213.423 591.631 243.851 577.143 255.358C562.507 266.974 544.575 269.279 528.598 269.3C486.076 269.342 462.557 231.503 462.557 208.485C462.557 153.257 500.691 141.566 504.255 140.574C502.003 148.796 494.401 189.882 534.14 189.882C556.786 189.882 568.312 160.495 568.312 140.775V119.401C566.958 120.38 565.633 121.263 564.405 121.941C560.669 123.996 556.715 125.485 552.645 126.372C549.715 127.008 546.719 127.331 543.739 127.331C531.449 127.331 520.069 121.803 512.626 112.376C505.894 114.309 498.898 115.292 491.806 115.292C479.595 115.292 467.684 112.434 456.401 106.802C445.297 101.262 436.12 93.9901 428.639 84.8474C420.072 90.5255 413.883 98.5468 413.883 108.932C413.883 148.721 454.921 141.11 463.129 138.85C462.139 142.423 450.462 180.605 395.307 180.605C372.309 180.605 334.522 157.056 334.568 114.476C334.585 98.484 336.888 80.5291 348.493 65.8757C356.395 55.8961 373.246 45.858 382.987 40.569C383.012 39.9497 383.054 39.3346 383.116 38.7195C371.954 42.1925 350.102 50.7954 333.72 68.6373C325.203 66.1058 308.307 60.3273 288.352 49.4857C249.453 28.3466 226 -0.566956 226 -0.566956C226.004 -0.566956 249.453 -29.4847 288.352 -50.6197C308.307 -61.4612 325.203 -67.2355 333.72 -69.767C356.642 -44.816 390.371 -37.8742 390.371 -37.8742C390.371 -37.8742 359.985 -52.4984 348.493 -67.0096C336.888 -81.663 334.585 -99.6179 334.568 -115.61C334.522 -158.186 372.309 -181.739 395.307 -181.739C450.462 -181.739 462.139 -143.557 463.129 -139.984C454.921 -142.243 413.883 -149.855 413.883 -110.066C413.883 -108.171 414.159 -106.38 414.543 -104.643L429.705 -110.434L434.168 -97.5927C434.206 -97.6387 434.247 -97.6848 434.285 -97.7308C454.905 -122.155 474.688 -137.327 506.382 -133.021C515.171 -131.833 524.507 -127.82 533.555 -121.447C535.59 -124.715 538.16 -127.716 541.232 -130.385C548.712 -136.896 558.571 -140.151 568.312 -139.528V-141.775C568.312 -161.495 556.786 -190.882 534.14 -190.882C494.401 -190.882 502.003 -149.796 504.255 -141.574C500.691 -142.566 462.557 -154.257 462.557 -209.485C462.557 -232.507 486.076 -270.342 528.598 -270.296C544.575 -270.279 562.507 -267.974 577.143 -256.354C584.18 -250.763 591.239 -240.717 596.646 -231.855C597.628 -232.62 598.656 -233.327 599.747 -233.959C594.912 -245.311 586.926 -259.597 574.384 -271.145C576.913 -279.673 582.684 -296.59 593.512 -316.57C614.62 -355.518 643.502 -379 643.502 -379C643.502 -378.996 672.38 -355.518 693.488 -316.57C704.316 -296.59 710.087 -279.673 712.62 -271.145C704.241 -263.434 697.935 -254.513 693.204 -246.048C694.875 -245.274 696.464 -244.336 698.006 -243.32C701.754 -248.42 705.808 -253.136 709.862 -256.354C724.493 -267.974 742.425 -270.279 758.402 -270.296C800.924 -270.342 824.443 -232.507 824.443 -209.485C824.443 -154.257 786.309 -142.566 782.745 -141.574C784.997 -149.796 792.599 -190.882 752.86 -190.882C730.218 -190.882 718.688 -161.495 718.688 -141.775V-139.574C728.321 -140.03 737.849 -136.749 745.162 -130.377C748.225 -127.716 750.792 -124.72 752.831 -121.452C761.879 -127.824 771.215 -131.833 780.003 -133.021C783.631 -133.511 787.032 -133.749 790.405 -133.749C815.814 -133.749 833.086 -119.975 850.901 -99.1325L851.273 -113.824L871.609 -105.317C871.918 -105.183 872.21 -105.024 872.52 -104.886C872.871 -106.551 873.117 -108.259 873.117 -110.066C873.117 -149.855 832.083 -142.243 823.871 -139.984C824.861 -143.557 836.538 -181.739 891.693 -181.739C914.686 -181.739 952.478 -158.186 952.432 -115.61C952.415 -99.6179 950.112 -81.663 938.507 -67.0096C927.015 -52.4984 896.633 -37.8742 896.633 -37.8742C896.633 -37.8742 930.358 -44.816 953.28 -69.767C961.797 -67.2355 978.697 -61.4612 998.648 -50.6197C1037.55 -29.4847 1061 -0.566956 1061 -0.566956C1061 -0.562775 1037.55 28.3508 998.648 49.4857ZM698.44 279.133C698.38 279.089 698.338 279.039 698.278 279C697.45 280.839 696.532 282.786 695.56 284.798C695.638 284.862 695.71 284.931 695.794 285C696.742 282.944 697.63 280.992 698.44 279.133ZM685 0L684.967 -0.138336C684.848 -0.574371 684.173 -1.63922 682.384 -2.83826C680.903 -3.82767 678.286 -5.15247 674.177 -5.86099L673.337 -6.00772L674.078 -6.43536C676.122 -7.6218 677.394 -9.88989 677.394 -12.355C677.394 -16.0737 674.522 -19.1048 671.001 -19.1048C668.635 -19.1048 666.476 -17.8639 665.492 -15.9228C665.439 -15.818 665.361 -15.6628 665.287 -15.5077L664.888 -14.6147L665.834 -14.774C665.904 -14.7866 665.978 -14.7992 666.06 -14.8202C666.254 -14.8579 666.484 -14.8831 666.731 -14.8831C667.2 -14.8831 668.109 -14.7992 668.899 -14.2542C669.462 -13.8643 670.141 -13.1013 670.186 -11.6717C670.207 -10.7703 669.898 -9.95697 669.294 -9.31973C668.191 -8.16681 666.352 -7.76016 665.11 -7.76016H651.567V-17.7255C651.567 -18.1406 651.629 -19.5995 652.345 -20.9495C653.011 -22.203 654.064 -22.8947 655.307 -22.8947H655.41C656.701 -22.857 657.434 -22.2617 657.816 -21.767C658.668 -20.6686 658.594 -19.1761 658.499 -18.694C658.483 -18.6059 658.466 -18.5305 658.454 -18.4634L658.302 -17.4949L659.174 -17.91C659.318 -17.9771 659.462 -18.0525 659.602 -18.1238C661.49 -19.1174 662.703 -21.3184 662.703 -23.729C662.703 -27.3219 659.733 -30.244 656.08 -30.244C653.665 -30.244 651.436 -28.9486 650.271 -26.865L649.848 -26.1145L649.708 -26.9698C649.013 -31.1538 647.717 -33.8202 646.746 -35.3253C645.565 -37.1531 644.52 -37.8407 644.088 -37.9623L643.957 -38L643.821 -37.9623C643.389 -37.8407 642.344 -37.1531 641.168 -35.3253C640.201 -33.8244 638.897 -31.1538 638.202 -26.9698L638.062 -26.1145L637.642 -26.865C636.474 -28.9486 634.248 -30.244 631.833 -30.244C628.18 -30.244 625.206 -27.3219 625.206 -23.729C625.206 -21.3184 626.424 -19.1174 628.32 -18.1238C628.415 -18.0693 628.579 -17.9854 628.74 -17.91L629.608 -17.4949L629.456 -18.4634C629.443 -18.5305 629.435 -18.6059 629.415 -18.694C629.316 -19.1761 629.246 -20.6686 630.097 -21.767C630.476 -22.2617 631.208 -22.857 632.504 -22.8947H632.607C633.849 -22.8947 634.902 -22.203 635.569 -20.9495C636.289 -19.5953 636.342 -18.1406 636.342 -17.7255V-7.76016H622.89C621.648 -7.76016 619.809 -8.16681 618.706 -9.31973C618.102 -9.95697 617.789 -10.7703 617.818 -11.6717C617.859 -13.1013 618.538 -13.8685 619.101 -14.2542C619.891 -14.7992 620.8 -14.8831 621.265 -14.8831C621.516 -14.8831 621.742 -14.8579 621.94 -14.8202C622.026 -14.7992 622.096 -14.7866 622.166 -14.774L623.112 -14.6189L622.709 -15.5077C622.631 -15.6712 622.549 -15.8389 622.499 -15.9395C621.524 -17.8639 619.365 -19.1048 616.999 -19.1048C613.478 -19.1048 610.606 -16.0737 610.606 -12.355C610.606 -9.88989 611.878 -7.6218 613.922 -6.43536L614.663 -6.00772L613.823 -5.86099C609.718 -5.15247 607.097 -3.82767 605.616 -2.83826C603.827 -1.63922 603.152 -0.574371 603.037 -0.134155L603 0.00418091L603.037 0.138336C603.152 0.578552 603.827 1.64343 605.616 2.84247C607.097 3.83185 609.718 5.15668 613.823 5.86517L614.663 6.0119L613.922 6.43954C611.878 7.62601 610.606 9.89407 610.606 12.355C610.606 16.0779 613.478 19.109 616.999 19.109C619.365 19.109 621.524 17.868 622.495 15.9479C622.549 15.8431 622.631 15.6754 622.709 15.5119L623.112 14.6231L622.166 14.7783C622.096 14.7908 622.026 14.8034 621.94 14.8244C621.742 14.8621 621.516 14.8872 621.265 14.8872C620.8 14.8872 619.891 14.8034 619.101 14.2584C618.538 13.8727 617.859 13.1055 617.818 11.6759C617.789 10.7745 618.102 9.95697 618.706 9.32391C619.809 8.17099 621.648 7.76016 622.89 7.76016H636.342V17.7297C636.342 18.1447 636.289 19.5995 635.569 20.9537C634.902 22.2072 633.849 22.8989 632.607 22.8989H632.504C631.208 22.8612 630.476 22.2659 630.097 21.7712C629.246 20.6728 629.316 19.1803 629.415 18.694C629.435 18.6101 629.443 18.5346 629.456 18.4676L629.608 17.4991L628.74 17.9142C628.579 17.9896 628.415 18.0735 628.312 18.128C626.424 19.1216 625.206 21.3226 625.206 23.7332C625.206 27.3261 628.18 30.2482 631.833 30.2482C634.248 30.2482 636.474 28.9528 637.642 26.8691L638.062 26.1187L638.202 26.9698C638.897 31.158 640.201 33.8286 641.168 35.3294C642.344 37.1573 643.389 37.8449 643.825 37.9665L643.961 38L644.093 37.9665C644.52 37.8449 645.565 37.1573 646.746 35.3294C647.717 33.8244 649.013 31.158 649.708 26.9698L649.848 26.1187L650.271 26.8691C651.436 28.9528 653.665 30.2482 656.08 30.2482C659.733 30.2482 662.703 27.3261 662.703 23.7332C662.703 21.3226 661.49 19.1216 659.564 18.1112C659.462 18.0567 659.318 17.9812 659.174 17.9142L658.302 17.4991L658.454 18.4676C658.466 18.5346 658.483 18.6101 658.499 18.694C658.594 19.1803 658.668 20.6728 657.816 21.7712C657.434 22.2659 656.701 22.8612 655.405 22.8989H655.307C654.064 22.8989 653.011 22.2072 652.345 20.9537C651.629 19.6037 651.567 18.1447 651.567 17.7297V7.76016H665.11C666.352 7.76016 668.191 8.17099 669.294 9.32391C669.898 9.95697 670.207 10.7745 670.186 11.6759C670.141 13.1055 669.462 13.8685 668.899 14.2584C668.109 14.8034 667.2 14.8872 666.731 14.8872C666.484 14.8872 666.254 14.8621 666.064 14.8244C665.974 14.8034 665.9 14.7908 665.83 14.7783L664.892 14.6315L665.291 15.5119C665.361 15.667 665.439 15.8221 665.501 15.9437C666.476 17.868 668.635 19.109 671.001 19.109C674.522 19.109 677.394 16.0779 677.394 12.355C677.394 9.89407 676.122 7.62601 674.078 6.43954L673.337 6.0119L674.177 5.86517C678.286 5.15668 680.903 3.83185 682.384 2.84247C684.169 1.64343 684.848 0.578552 684.967 0.138336L685 0ZM587 48H702V-53H587V48ZM670 -143C672.209 -143 674 -145.46 674 -148.498C674 -151.536 672.209 -154 670 -154C667.791 -154 666 -151.536 666 -148.498C666 -145.46 667.791 -143 670 -143ZM667.535 -155.363L667.541 -155.357C667.847 -155.117 668.177 -154.871 668.465 -154.637C668.171 -154.871 667.841 -155.123 667.535 -155.363ZM667.535 -155.363L667.541 -155.357C667.847 -155.117 668.177 -154.871 668.465 -154.637C668.171 -154.871 667.841 -155.123 667.535 -155.363ZM684.983 -174.355C684.635 -173.878 684.148 -173.51 683.728 -173.085C683.313 -172.657 682.96 -172.172 682.473 -171.812C681.499 -171.111 680.417 -170.554 679.292 -170.109C678.725 -169.893 678.129 -169.773 677.546 -169.608C675.795 -169.112 674.003 -168.751 672.203 -168.571C670.742 -168.459 669.29 -168.555 667.858 -168.759C666.935 -168.891 666.016 -169.036 665.139 -169.32C662.901 -170.025 660.857 -171.231 659.246 -172.809L657 -175L657.139 -174.591L657.995 -172.08C658.717 -169.969 660.009 -168.034 661.705 -166.512C662.272 -166.003 662.88 -165.547 663.535 -165.138C664.824 -164.317 666.263 -163.728 667.753 -163.38C668.501 -163.207 669.26 -163.091 670.024 -163.039C670.784 -162.983 671.548 -162.987 672.303 -163.051C673.059 -163.115 673.81 -163.232 674.545 -163.408C675.275 -163.588 675.988 -163.82 676.677 -164.109C678.054 -164.682 679.325 -165.467 680.421 -166.424C680.853 -166.78 681.164 -167.229 681.529 -167.638C681.898 -168.05 682.314 -168.415 682.633 -168.855V-168.859C682.872 -169.172 683.09 -169.496 683.296 -169.833C683.317 -169.865 683.338 -169.893 683.359 -169.929C683.678 -170.462 683.951 -171.022 684.194 -171.603C684.203 -171.631 684.211 -171.651 684.224 -171.679C684.232 -171.703 684.244 -171.727 684.253 -171.751V-171.755C684.366 -172.028 684.471 -172.3 684.559 -172.581C684.673 -172.909 684.773 -173.242 684.853 -173.586L684.996 -174.351L685 -174.375L684.983 -174.355ZM569.289 69H569.293C569.906 69 570.486 68.7582 570.918 68.3212L575.504 63.6925L580.086 68.3212C580.943 69.1952 582.463 69.1994 583.328 68.3212C583.761 67.8842 584 67.2987 584 66.6793C584 66.0557 583.761 65.4744 583.328 65.0459L578.746 60.413L583.147 55.971C584.038 55.0631 584.038 53.5867 583.143 52.6788C582.711 52.2418 582.135 52 581.522 52H581.518C580.901 52.0042 580.325 52.2461 579.897 52.683L575.504 57.1165L571.107 52.683C570.242 51.8091 568.73 51.8006 567.865 52.6788C567.428 53.12 567.185 53.7055 567.185 54.3292C567.185 54.9528 567.428 55.5383 567.865 55.9753L572.25 60.413L567.68 65.0374C567.239 65.4787 567 66.0599 567 66.6793C567 67.303 567.244 67.8885 567.672 68.317C568.1 68.7582 568.676 69 569.289 69ZM583.324 -60.9541L578.748 -65.587L583.139 -70.0247C584.034 -70.9369 584.034 -72.4133 583.135 -73.3212C582.707 -73.7582 582.132 -74 581.519 -74H581.514C580.897 -73.9958 580.326 -73.7539 579.894 -73.317L575.502 -68.8792L571.106 -73.317C570.241 -74.1909 568.73 -74.1994 567.865 -73.3212C567.424 -72.8842 567.189 -72.2945 567.189 -71.6708C567.189 -71.0472 567.424 -70.4617 567.865 -70.0247L572.252 -65.587L567.68 -60.9583C567.239 -60.5213 567 -59.9401 567 -59.3207C567 -58.697 567.244 -58.1115 567.672 -57.683C568.1 -57.2461 568.675 -57 569.292 -57H569.297C569.905 -57 570.485 -57.2418 570.913 -57.6788L575.502 -62.3075L580.083 -57.6788C580.939 -56.8048 582.459 -56.8006 583.324 -57.6788C583.756 -58.12 584 -58.7013 584 -59.3207C584 -59.9443 583.756 -60.5256 583.324 -60.9541ZM436.774 6.29819C437.41 7.72098 438.527 9.30576 439 11C438.425 6.64841 437.992 3.3519 436.487 0.0247192C432.577 -8.55151 427.418 -12.728 422.861 -14.1858C414.516 -16.8607 405.329 -12.8243 402.756 -3.84967C401.602 0.182312 401.861 5.08115 402.913 8.47397C402.925 6.60025 403.205 4.71341 403.828 2.85718C406.73 -5.99045 415.018 -10.1538 423.35 -7.48331C427.903 -6.00797 432.857 -2.29553 436.774 6.29819ZM863.651 -7.48331C871.981 -10.1538 880.274 -5.99045 883.176 2.85718C883.795 4.71341 884.074 6.60025 884.09 8.47397C885.138 5.08115 885.398 0.182312 884.244 -3.84967C881.674 -12.8243 872.482 -16.8607 864.141 -14.1858C859.588 -12.728 854.419 -8.55151 850.513 0.0247192C849.004 3.3519 848.579 6.64841 848 11C848.469 9.30576 849.591 7.72098 850.226 6.29819C854.148 -2.29553 859.094 -6.00797 863.651 -7.48331ZM705.289 69H705.293C705.906 69 706.486 68.7582 706.914 68.3212L711.5 63.6925L716.082 68.3212C716.943 69.1952 718.459 69.1994 719.328 68.3212C719.761 67.8842 720 67.2987 720 66.6793C720 66.0557 719.761 65.4744 719.328 65.0459L714.746 60.413L719.143 55.971C720.038 55.0631 720.038 53.5867 719.139 52.6788C718.711 52.2418 718.135 52 717.522 52H717.518C716.901 52.0042 716.325 52.2461 715.897 52.683L711.5 57.1165L707.107 52.683C706.238 51.8091 704.73 51.8006 703.861 52.6788C703.424 53.12 703.185 53.7055 703.185 54.3292C703.185 54.9528 703.424 55.5383 703.861 55.9753L708.25 60.413L703.68 65.0374C703.239 65.4787 703 66.0599 703 66.6793C703 67.303 703.244 67.8885 703.672 68.317C704.1 68.7582 704.676 69 705.289 69ZM801 30.8612C797.794 29.8089 792.572 26.6254 790.324 18.7066C788.286 11.4642 789.41 7.71478 790.899 5C788.448 6.30875 779.555 15.0235 786.762 25.6218C789.682 29.9239 796.217 31.5067 801 30.8612ZM500.241 25.6218C507.443 15.0235 498.55 6.30875 496.096 5C497.589 7.71478 498.713 11.4642 496.671 18.7066C494.423 26.6254 489.21 29.8089 486 30.8612C490.782 31.5067 497.316 29.9239 500.241 25.6218ZM707 -59.3207C707 -58.697 707.239 -58.1115 707.672 -57.683C708.1 -57.2461 708.675 -57 709.292 -57H709.297C709.905 -57 710.485 -57.2418 710.913 -57.6788L715.498 -62.3075L720.079 -57.6788C720.939 -56.8048 722.455 -56.8006 723.324 -57.6788C723.756 -58.12 724 -58.7013 724 -59.3207C724 -59.9443 723.756 -60.5256 723.324 -60.9541L718.748 -65.587L723.139 -70.0247C724.034 -70.9369 724.034 -72.4133 723.135 -73.3212C722.707 -73.7582 722.132 -74 721.519 -74H721.514C720.897 -73.9958 720.326 -73.7539 719.894 -73.317L715.498 -68.8792L711.106 -73.317C710.237 -74.1909 708.73 -74.1994 707.861 -73.3212C707.424 -72.8842 707.189 -72.2945 707.189 -71.6708C707.189 -71.0472 707.424 -70.4617 707.861 -70.0247L712.252 -65.587L707.68 -60.9583C707.235 -60.5213 707 -59.9401 707 -59.3207ZM644.748 63.4109L649.143 58.972C650.038 58.0639 650.038 56.5871 649.139 55.6747C648.707 55.2419 648.136 55 647.519 55H647.514C646.901 55 646.326 55.2461 645.894 55.679L641.498 60.1178L637.11 55.679C636.241 54.8091 634.73 54.8005 633.861 55.6747C633.428 56.1161 633.189 56.7017 633.189 57.3255C633.189 57.9493 633.428 58.5392 633.861 58.9763L638.252 63.4109L633.68 68.0407C633.239 68.4778 633 69.0592 633 69.6787C633 70.3068 633.244 70.8882 633.672 71.321C634.104 71.7581 634.675 72 635.292 72H635.297C635.905 72 636.485 71.7581 636.917 71.3253L641.498 66.6912L646.079 71.321C646.939 72.1952 648.459 72.1995 649.328 71.321C649.756 70.8839 650 70.3026 650 69.6787C650 69.0592 649.756 68.4735 649.328 68.0449L644.748 63.4109ZM326.867 -54.443C326.911 -54.383 326.961 -54.329 327 -54.275C325.156 -53.447 323.209 -52.529 321.202 -51.557C321.133 -51.635 321.059 -51.707 321 -51.791C323.051 -52.739 325.003 -53.627 326.867 -54.443Z" fill="#A99E8E" fill-opacity="0.1"/>
</g>
</svg>
