<svg width="20" height="18" viewBox="0 0 20 18" fill="none" xmlns="http://www.w3.org/2000/svg">
<path fill-rule="evenodd" clip-rule="evenodd" d="M18.5063 7.8082C18.0284 7.55051 17.6238 7.41311 17.4198 7.35296C16.8708 7.94617 16.0629 8.11124 16.0629 8.11124C16.0629 8.11124 16.7908 7.76362 17.0661 7.41849C17.3439 7.0701 17.399 6.64311 17.3993 6.26282C17.4005 5.2505 16.4955 4.69053 15.9447 4.69053C14.6235 4.69053 14.344 5.59831 14.3202 5.68325C14.5168 5.62964 15.4997 5.44862 15.4997 6.39483C15.4997 6.93385 14.7968 7.20846 14.3248 7.20846H13.1341H12.7446H11.8008V5.64078C11.8008 5.1719 12.0768 4.47319 12.6193 4.47319C13.5713 4.47319 13.3889 5.44996 13.3352 5.64559C13.4205 5.62195 14.3339 5.34389 14.3339 4.03083C14.3339 3.48336 13.7706 2.58384 12.7519 2.5848C12.3695 2.58518 11.94 2.63995 11.5894 2.91628C11.2422 3.18992 10.8923 3.91323 10.8923 3.91323C10.8923 3.91323 11.0586 3.11017 11.6554 2.56443C11.5949 2.36189 11.4566 1.9595 11.1972 1.48447C10.6916 0.558236 9.9999 0.000192164 9.9999 0C9.9999 0 9.30818 0.558236 8.80262 1.48447C8.54318 1.9595 8.40495 2.36189 8.34443 2.56443C8.94143 3.11017 9.1075 3.91323 9.1075 3.91323C9.1075 3.91323 8.75758 3.18992 8.41036 2.91628C8.06005 2.63995 7.63047 2.58518 7.24788 2.5848C6.22923 2.58384 5.66587 3.48336 5.66587 4.03083C5.66587 5.34389 6.57935 5.62195 6.6648 5.64559C6.61086 5.44996 6.42855 4.47319 7.3805 4.47319C7.92298 4.47319 8.19924 5.1719 8.19924 5.64078V7.20846H5.67496C5.20304 7.20846 4.5001 6.93385 4.5001 6.39483C4.5001 5.44862 5.48298 5.62964 5.6796 5.68325C5.65601 5.59831 5.37627 4.69053 4.05525 4.69053C3.50427 4.69053 2.5993 5.2505 2.60046 6.26282C2.60084 6.64311 2.65614 7.0701 2.93395 7.41849C3.20925 7.76362 3.93713 8.11124 3.93713 8.11124C3.93713 8.11124 3.12902 7.94617 2.57997 7.35296C2.376 7.41311 1.97137 7.55051 1.49346 7.8082C0.561812 8.3109 0 8.99827 0 8.99846C0 8.99846 0.561812 9.68583 1.49346 10.1885C1.97137 10.4464 2.376 10.5836 2.57997 10.6438C3.12902 10.0506 3.93713 9.88549 3.93713 9.88549C3.93713 9.88549 3.20925 10.2333 2.93395 10.5782C2.65614 10.9266 2.60084 11.3536 2.60046 11.7339C2.5993 12.7462 3.50427 13.3062 4.05525 13.3062C5.37627 13.3062 5.65601 12.3984 5.6796 12.3135C5.48298 12.3671 4.5001 12.5481 4.5001 11.6021C4.5001 11.0629 5.20304 10.7885 5.67496 10.7885H8.19924V12.3592C8.19924 12.8281 7.92298 13.527 7.3805 13.527C6.42855 13.527 6.61086 12.55 6.6648 12.3544C6.57935 12.378 5.66587 12.6561 5.66587 13.9692C5.66587 14.5166 6.22923 15.4164 7.24788 15.4152C7.63047 15.4148 8.06005 15.3599 8.41036 15.0837C8.75758 14.8101 9.1075 14.0866 9.1075 14.0866C9.1075 14.0866 8.94143 14.8898 8.34443 15.4354C8.40495 15.6381 8.54318 16.0405 8.80262 16.5155C9.30818 17.4416 9.9999 17.9998 9.9999 18C9.9999 18 10.6916 17.4416 11.1972 16.5155C11.4566 16.0405 11.5949 15.6381 11.6554 15.4354C11.0586 14.8898 10.8923 14.0866 10.8923 14.0866C10.8923 14.0866 11.2422 14.8101 11.5894 15.0837C11.94 15.3599 12.3695 15.4148 12.7519 15.4152C13.7706 15.4164 14.3339 14.5166 14.3339 13.9692C14.3339 12.6561 13.4205 12.378 13.3352 12.3544C13.3889 12.55 13.5713 13.527 12.6193 13.527C12.0768 13.527 11.8008 12.8281 11.8008 12.3592V10.7885H12.7446H14.3248C14.7968 10.7885 15.4997 11.0629 15.4997 11.6021C15.4997 12.5481 14.5168 12.3671 14.3202 12.3135C14.344 12.3984 14.6235 13.3062 15.9447 13.3062C16.4955 13.3062 17.4005 12.7462 17.3993 11.7339C17.399 11.3536 17.3439 10.9268 17.0661 10.5784C16.7908 10.2333 16.0629 9.88549 16.0629 9.88549C16.0629 9.88549 16.8708 10.0506 17.4198 10.644C17.6238 10.5836 18.0284 10.4464 18.5063 10.1885C19.4382 9.68583 19.9998 8.99846 20 8.99846C20 8.99846 19.4382 8.3109 18.5063 7.8082Z" fill="#8C827A"/>
</svg>
