<svg width="477" height="732" viewBox="0 0 477 732" fill="none" xmlns="http://www.w3.org/2000/svg">
<path fill-rule="evenodd" clip-rule="evenodd" d="M780 381.402C772.445 373.986 759.694 369.475 750.327 367L750 367.933C760.915 372.638 769.444 377.326 775.626 384.921L776.324 385C777.534 384.067 778.747 383.114 779.964 382.138L780 381.402ZM763 397.753L762.521 397.291C747.302 382.66 729.892 373.303 704.307 366L704 367.008C728.253 376 744.344 386.072 757.8 400.687L758.087 401L758.444 400.771C759.771 399.916 761.111 399.027 762.455 398.121L763 397.753ZM739 407.154L738.546 406.661C729.349 396.641 718.4 388.348 706.009 382.015C694.344 376.029 681.289 371.655 667.209 369L667 370.015C680.738 373.474 693.327 378.548 704.417 385.097C715.547 391.654 725.326 399.93 733.477 409.693L733.731 410L734.084 409.818C735.29 409.188 736.536 408.509 737.77 407.825L739 407.154ZM720 420.688L719.492 420.127C711.527 411.379 701.943 404.193 691.015 398.775C680.843 393.724 669.463 390.098 657.196 388L657 389.026C668.947 391.949 679.875 396.287 689.464 401.915H689.468C698.904 407.443 707.177 414.445 714.046 422.728L714.274 423L714.598 422.874C716.094 422.296 717.681 421.656 719.312 420.973L720 420.688ZM463.933 580.22L463.937 580.228C466.537 584.503 469.835 588.499 473.74 592.092C481.328 599.066 490.771 603.866 501.055 605.971C511.767 608.113 522.577 606.886 531.51 602.521C536.147 600.277 540.375 597.265 544.074 593.571C547.721 589.779 550.72 585.621 553 581.203L552.143 580.675C545.934 589.434 538.294 595.847 530.047 599.22C521.473 602.773 511.48 603.642 501.912 601.675C492.109 599.745 483.179 595.493 476.085 589.377C468.238 582.614 463.703 575.818 461.997 573.262C461.205 572.071 461.12 571.941 460.736 572.018H460L460.34 572.701C461.31 575.261 462.518 577.789 463.933 580.22ZM542 570.357L541.17 569.779C535.899 576.573 529.685 581.509 523.19 584.065C516.311 586.779 508.703 587.281 501.192 585.52C494.047 583.927 487.108 580.371 481.124 575.242C475.019 569.942 470.47 563.283 467.971 556L467 556.251C467.758 561.576 470.022 566.922 473.54 571.72C475.527 574.707 477.965 577.514 480.777 580.032C486.274 584.947 492.987 588.419 500.196 590.063C507.659 591.728 515.352 591.159 521.86 588.474C525.233 587.085 528.368 585.177 531.168 582.797C535.488 579.798 539.244 575.485 542 570.357ZM532 560.704L531.221 560.087C527.163 564.183 522.851 566.996 518.411 568.449C513.757 569.958 508.726 570.055 503.869 568.732C499.231 567.541 494.704 565.087 490.769 561.648C486.664 557.964 483.695 553.706 481.962 549L481 549.234C481.58 554.662 484.148 560.026 488.233 564.332C492.144 568.546 497.168 571.573 502.744 573.086C508.583 574.62 514.608 574.212 519.703 571.944C524.592 569.87 528.956 565.878 532 560.704ZM346.66 572.701L347 572.018H346.268C345.88 571.941 345.799 572.071 345.003 573.262C343.297 575.818 338.761 582.614 330.914 589.377C323.82 595.493 314.89 599.745 305.086 601.675C295.517 603.642 285.524 602.773 276.95 599.22C268.703 595.847 261.066 589.434 254.853 580.675L254 581.203C256.276 585.621 259.276 589.779 262.926 593.571C266.625 597.265 270.85 600.277 275.486 602.521C284.421 606.886 295.235 608.113 305.943 605.971C316.228 603.866 325.671 599.066 333.259 592.092C337.168 588.499 340.463 584.503 343.067 580.228L343.071 580.22C344.481 577.789 345.69 575.261 346.66 572.701ZM278.831 582.797C281.632 585.177 284.771 587.085 288.139 588.474C294.651 591.159 302.339 591.728 309.801 590.063C317.01 588.419 323.727 584.947 329.223 580.032C332.032 577.514 334.474 574.707 336.46 571.72C339.978 566.922 342.238 561.576 343 556.251L342.029 556C339.527 563.283 334.977 569.942 328.877 575.242C322.889 580.371 315.954 583.927 308.806 585.52C301.295 587.281 293.688 586.779 286.809 584.065C280.314 581.509 274.101 576.573 268.83 569.779L268 570.357C270.756 575.485 274.516 579.798 278.831 582.797ZM290.293 571.944C295.392 574.212 301.413 574.62 307.252 573.086C312.828 571.573 317.852 568.546 321.763 564.332C325.852 560.026 328.416 554.662 329 549.234L328.034 549C326.301 553.706 323.336 557.964 319.231 561.648C315.292 565.087 310.769 567.541 306.131 568.732C301.27 570.055 296.239 569.958 291.589 568.449C287.145 566.996 282.833 564.183 278.775 560.087L278 560.704C281.04 565.878 285.408 569.87 290.293 571.944ZM650.699 422.34L650.017 422V422.736C649.943 423.12 650.069 423.201 651.26 423.997C653.821 425.703 660.616 430.238 667.379 438.089C673.496 445.183 677.747 454.109 679.674 463.912C681.645 473.48 680.775 483.473 677.223 492.047C673.85 500.294 667.436 507.934 658.674 514.143L659.202 515C663.62 512.72 667.782 509.721 671.57 506.074C675.264 502.371 678.28 498.147 680.519 493.51C684.884 484.581 686.112 473.763 683.974 463.055C681.865 452.771 677.069 443.328 670.094 435.74C666.497 431.835 662.506 428.537 658.231 425.937L658.222 425.929C655.788 424.518 653.26 423.31 650.699 422.34ZM660.795 494.172C663.18 491.368 665.087 488.233 666.476 484.86C669.161 478.352 669.726 470.659 668.065 463.196C666.417 455.987 662.945 449.274 658.03 443.777C655.517 440.965 652.71 438.527 649.719 436.54C644.926 433.022 639.576 430.758 634.255 430L634 430.971C641.282 433.47 647.941 438.019 653.245 444.124C658.369 450.108 661.925 457.047 663.523 464.192C665.284 471.703 664.782 479.311 662.063 486.19C659.511 492.685 654.571 498.899 647.778 504.17L648.36 505C653.484 502.248 657.8 498.488 660.795 494.172ZM647.943 481.703C650.215 476.604 650.619 470.583 649.085 464.748C647.571 459.168 644.544 454.148 640.33 450.233C636.023 446.148 630.663 443.58 625.23 443L625 443.962C629.706 445.699 633.961 448.664 637.646 452.769C641.089 456.704 643.539 461.231 644.73 465.869C646.054 470.726 645.961 475.757 644.451 480.411C642.998 484.851 640.181 489.163 636.088 493.225L636.705 494C641.876 490.956 645.868 486.588 647.943 481.703ZM631.083 423.001C636.096 418.773 638.13 410.117 634.106 403.948C630.022 397.731 621.44 394.765 615.475 397.955C615.077 398.178 614.816 398.222 614.816 398.222C620.536 392.245 630.931 392.943 636.301 400.329C639.396 404.577 639.376 408.944 639.517 410.474C639.565 410.178 639.621 409.833 639.706 409.378C640.642 404.184 639.32 398.782 636.092 394.542C632.446 389.81 626.851 387.29 620.311 387.408C611.274 387.598 602.146 392.716 596.49 400.771C595.553 402.122 594.552 403.681 593.431 405.535L593.202 405.888C593.025 406.144 592.848 406.395 592.671 406.675C579.595 427.266 561.623 433.467 543.39 423.646C528.227 415.502 524.686 396.542 520.566 374.588C520.232 372.766 519.871 370.879 519.505 369C518.805 369.499 518.086 369.966 517.342 370.376C515.602 371.342 513.813 372.076 512 372.705C513.214 380.265 514.335 386.819 515.766 394.737C518.6 410.518 524.055 426.775 545.211 436.02C562.829 443.73 585.162 435.768 596.49 420.323C601.269 413.826 604.967 403.888 613.565 401.055C622.891 397.983 628.667 406.513 629.889 409.049C629.64 408.603 628.945 407.564 627.156 406.217C624.173 403.989 618.719 403.486 615.137 406.363C610.744 409.91 610.45 414.982 611.966 418.736L611.982 418.752C612.826 420.457 614.534 423.127 617.268 424.357C620.339 425.72 626.621 426.767 631.083 423.001ZM610 421.39C609.371 421.123 608.682 420.989 607.907 421.094C605.136 421.463 607.181 422.291 598.909 429.736C563.693 461.425 516.034 438.897 509.032 404.197C506.943 393.896 505.385 384.634 503.677 375.022C502.951 375.071 502.233 375.16 501.503 375.16C498.473 375.16 495.625 374.69 493 374V418.579C494.322 422.985 495.803 427.078 497.507 430.787C498.971 433.943 500.935 436.913 503.109 439.753C503.637 439.635 504.164 439.53 504.679 439.351C507.58 438.357 509.986 436.418 511.673 433.695C511.998 433.192 512.278 432.665 512.525 432.105L515.275 425.91L519.981 430.787C526.821 437.866 529.531 447.834 527.239 457.421C527.178 457.701 527.052 457.961 526.979 458.241C528.103 458.74 529.227 459.255 530.387 459.661C545.762 465.073 562.609 463.872 577.777 456.309C597.619 446.418 604.588 433.801 609.688 422.1L610 421.39ZM515.417 436C515.084 436.776 514.705 437.508 514.274 438.21C512.064 441.899 508.814 444.485 505.137 445.784C500.717 447.366 495.7 447.096 491.192 444.739C490.801 444.526 490.409 444.318 490.038 444.081C489.587 443.795 489.215 443.484 488.808 443.182C488.156 443.93 487.448 444.616 486.669 445.212C486.48 445.364 486.294 445.498 486.108 445.633C485.543 446.021 484.965 446.365 484.356 446.663C484.084 446.798 483.819 446.932 483.546 447.039C483.534 447.051 483.502 447.067 483.491 447.067C483.23 447.169 482.984 447.276 482.724 447.349C482.68 447.366 482.652 447.382 482.609 447.394C482.435 447.455 482.261 447.513 482.075 447.562C481.901 447.602 481.727 447.651 481.553 447.68C481.363 447.741 481.182 447.782 480.976 447.827C480.774 447.872 480.569 447.905 480.355 447.933H480.312C480.154 447.962 480.007 447.995 479.849 448.007C479.533 448.052 479.209 448.068 478.892 448.085C478.651 448.097 478.418 448.097 478.173 448.097H476.971C479.877 453.592 483.708 456.982 487.262 458.997C493.276 462.432 500.242 462.673 505.947 459.94C508.857 458.535 511.443 456.37 513.392 453.457C513.61 453.159 513.799 452.86 513.981 452.562C515.167 450.589 515.962 448.485 516.429 446.336C516.733 449.159 516.255 451.949 515.199 454.789C514.677 456.174 514.029 457.579 513.246 458.997C512.467 460.418 511.542 461.689 510.474 462.776C504.461 469.108 494.529 469.99 486.523 465.435C481.83 462.763 476.081 458.086 473.183 448.097H468C471.479 461.15 480.355 470.35 486.005 473.557C488.377 474.901 490.833 475.845 493.288 476.396C503.045 478.59 512.945 474.737 518.319 465.958H518.334C518.378 465.897 518.417 465.823 518.465 465.75C519.825 463.49 520.79 461.076 521.359 458.58C523.19 450.638 521.066 442.046 515.417 436ZM476.065 435.522C479.338 435.522 482 432.811 482 429.471V368.142C480.079 366.861 478.154 365.279 476.496 363.787C475.719 363.175 475.181 362.739 475.181 362.739C475.181 362.739 475.256 362.698 475.284 362.682C474.786 362.217 474.332 361.78 473.925 361.381L472.414 362.922L476.763 367.375C477.173 367.787 477.401 368.346 477.401 368.945C477.401 369.54 477.173 370.103 476.763 370.523C475.942 371.367 474.499 371.363 473.686 370.523L469.338 366.074L464.981 370.523C464.571 370.943 464.025 371.176 463.443 371.176H463.439C462.857 371.176 462.311 370.943 461.904 370.519C461.498 370.107 461.263 369.545 461.263 368.945C461.263 368.35 461.494 367.791 461.908 367.367L466.249 362.922L462.084 358.657C461.669 358.237 461.442 357.674 461.442 357.075C461.442 356.475 461.669 355.913 462.084 355.489C462.905 354.649 464.344 354.653 465.165 355.493L469.338 359.758L473.507 355.493C473.913 355.073 474.459 354.84 475.041 354.836H475.045C475.631 354.836 476.177 355.069 476.583 355.489C477.193 356.112 477.349 357.014 477.09 357.797C478.684 357.266 480.426 356.634 482 355.97V290H422.215C421.661 290.546 421.107 291.093 420.601 291.57C417.098 294.897 413.941 297.291 410.669 299.089C409.015 300.031 407.229 300.757 405.404 301.381L405.081 301.707L409.429 306.16C409.84 306.572 410.067 307.131 410.067 307.73C410.067 308.325 409.84 308.884 409.429 309.308C408.604 310.152 407.165 310.148 406.348 309.308L402 304.859L397.648 309.308C397.241 309.728 396.691 309.961 396.113 309.961H396.109C395.523 309.961 394.981 309.724 394.567 309.304C394.16 308.892 393.933 308.329 393.933 307.73C393.933 307.135 394.156 306.576 394.575 306.156L397.612 303.045C396.839 303.114 396.065 303.204 395.304 303.204C391.306 303.204 387.528 302.392 384.077 300.794C381.868 299.758 379.908 298.474 378.226 296.973C377.64 296.533 377.122 295.986 376.687 295.342C375.228 293.747 374.148 292.149 373.387 290.477C373.315 290.322 373.279 290.155 373.216 290H322V345.282V356.508C323.455 357.071 324.957 357.585 326.316 358.029C326.241 357.801 326.181 357.56 326.181 357.311C326.181 356.712 326.408 356.149 326.823 355.725C327.648 354.885 329.079 354.893 329.9 355.729L334.073 359.994L338.242 355.729C338.656 355.313 339.198 355.081 339.784 355.077H339.788C340.37 355.077 340.916 355.309 341.326 355.725C342.171 356.602 342.171 358.021 341.33 358.893L337.153 363.159L341.502 367.612C341.912 368.028 342.139 368.586 342.139 369.186C342.139 369.781 341.912 370.34 341.502 370.76C340.677 371.604 339.238 371.6 338.421 370.76L334.073 366.311L329.72 370.764C329.314 371.184 328.764 371.416 328.186 371.416H328.182C327.596 371.412 327.054 371.18 326.639 370.76C326.233 370.348 326.006 369.785 326.006 369.186C326.006 368.59 326.229 368.028 326.647 367.608L330.992 363.159L329.011 361.136C327.361 362.767 324.742 365.218 322 367.232V369.422V383.038V429.471C322 432.811 324.654 435.522 327.915 435.522H380.027C387.122 435.522 394.503 438.373 401.98 444C409.338 438.373 416.488 435.522 423.24 435.522H476.065ZM460.029 480.786C457.88 477.626 453.923 476.313 452.086 475.869C451.583 475.808 451.093 475.791 450.59 475.808H450.456C449.966 475.824 449.479 475.852 448.972 475.926C448.915 475.942 448.855 475.954 448.782 475.971C447.804 476.122 446.827 476.419 445.891 476.851C445.801 476.896 445.712 476.941 445.627 476.97C445.177 477.194 444.735 477.447 444.301 477.744C444.248 477.773 444.184 477.834 444.139 477.862C443.742 478.148 443.356 478.462 443 478.804C442.927 478.861 442.866 478.922 442.793 478.984C442.408 479.355 442.051 479.77 441.698 480.219C441.621 480.321 441.548 480.427 441.487 480.516C441.13 481.01 440.79 481.515 440.498 482.082C438.077 486.628 439.756 492.56 442.793 495.405C443.032 495.613 443.255 495.809 443.458 496.001C444.93 497.252 445.968 497.697 446.442 497.847C445.12 497.493 442.363 496.404 439.813 494.362C438.718 493.497 437.668 492.454 436.776 491.218C436.48 490.798 436.196 490.366 435.944 489.922C435.648 489.412 435.413 488.874 435.186 488.328C434.404 486.375 434.035 484.096 434.387 481.426C435.336 474.23 440.733 469.04 445.98 464.274C448.084 462.35 450.16 460.499 451.908 458.611C455.083 455.182 457.75 451.232 459.867 447H444.467C441.71 450.637 438.389 454.677 435.738 457.18C435.474 457.417 435.235 457.657 435 457.91L434.659 458.236C432.847 459.863 431.351 461.277 430.094 462.59C422.459 470.487 418.741 481.634 420.383 491.679C420.812 494.256 421.571 496.657 422.665 498.789C422.994 499.442 423.359 500.082 423.76 500.693C425.528 503.482 427.908 505.749 430.815 507.355C431.01 507.473 431.188 507.563 431.383 507.669C431.87 507.922 432.36 508.162 432.863 508.354C437.664 510.404 443.048 510.535 447.906 508.77C444.119 508.798 439.8 507.432 435.012 503.69C434.975 503.661 434.951 503.629 434.915 503.6C428.358 498.667 427.888 489.001 431.306 482.632C431.306 482.706 431.29 482.991 431.156 483.407C428.889 490.652 433.868 499.548 441.503 502.797C449.045 506.018 457.702 503.319 461.274 496.315C464.846 489.306 462.089 483.811 460.029 480.786ZM436.921 612.466V612.462C431.284 602.878 426.949 591.951 424.026 580L423 580.192C425.107 592.482 428.729 603.861 433.776 614.009C439.191 624.932 446.374 634.516 455.131 642.488L455.688 643L455.977 642.308C456.656 640.673 457.301 639.09 457.874 637.594L458 637.271L457.728 637.047C449.444 630.174 442.445 621.901 436.921 612.466ZM450 658.661L449.685 658.401C439.923 650.136 431.648 640.221 425.095 628.932C418.539 617.681 413.465 604.917 410.011 591L409 591.212C411.651 605.483 416.025 618.716 422.009 630.55C428.342 643.114 436.638 654.215 446.658 663.539L447.15 664L448.049 662.337C448.65 661.221 449.25 660.104 449.814 659.016L450 658.661ZM436 679.083L435.687 678.797C421.064 665.337 410.996 649.247 402.003 625L401 625.307C408.299 650.89 417.655 668.299 432.291 683.517L432.753 684L433.121 683.451C434.027 682.103 434.912 680.767 435.771 679.44L436 679.083ZM422 699.32L421.917 698.621C414.318 692.443 409.634 683.909 404.929 673L404 673.327C406.475 682.695 410.986 695.452 418.402 703L419.134 702.964C420.114 701.747 421.063 700.533 422 699.32ZM397.719 561C402.001 558.262 415.302 548.702 410.54 538.425C409.073 535.237 406.09 532.769 405.119 531.963C404.758 531.664 404.685 531.603 404.64 531.439L404.341 530.257L405.373 530.899C408.696 533.011 412.114 534.059 415.527 534.071C420.354 534.059 424.981 532.025 428.529 528.313C432.004 524.691 434.016 519.829 434 515.012C434 513.829 433.848 512.687 433.631 511.574C432.951 511.349 432.275 511.111 431.611 510.829C431.492 510.788 431.332 510.702 431.209 510.645C431.734 512.102 432.049 513.661 432.049 515.298C432.066 522.943 425.862 529.147 418.207 529.147C417.924 529.147 417.642 529.135 417.371 529.119C420.141 527.981 423.276 525.828 426.087 519.125C427.833 514.942 427.915 511.341 427.333 508.496C424.583 506.679 422.182 504.293 420.322 501.371C419.863 500.671 419.391 499.869 418.986 499.047C418.654 498.408 418.408 497.671 418.125 496.98C417.355 496.882 416.58 496.82 415.781 496.82C415.093 496.82 414.359 496.882 413.565 496.988C413.954 497.884 414.167 498.871 414.167 499.873C414.167 501.834 413.401 503.671 412.024 505.067C410.631 506.442 408.787 507.203 406.828 507.203C404.894 507.203 403.14 506.319 401.886 504.707C400.534 502.939 399.817 500.381 399.817 497.287C399.833 483.789 410.946 467.26 421.342 456.279C425.792 451.597 430.074 447.857 433.725 445H425.895C424.559 445.09 423.198 445.164 421.85 445.209C421.567 445.254 421.281 445.315 420.998 445.389C420.981 445.389 420.981 445.389 420.965 445.405C420.699 445.45 420.412 445.524 420.141 445.614C420.035 445.643 419.932 445.671 419.842 445.704C419.74 445.733 419.633 445.778 419.527 445.823C419.441 445.839 419.363 445.868 419.289 445.896H419.273C419.182 445.913 419.092 445.958 419.006 445.986C418.896 446.031 418.781 446.076 418.662 446.138C418.646 446.138 418.613 446.154 418.584 446.154C418.556 446.166 418.523 446.183 418.494 446.195H418.449L418.437 446.211C418.33 446.244 418.224 446.285 418.121 446.346C417.957 446.408 417.777 446.482 417.597 446.572C417.388 446.662 417.175 446.768 416.966 446.854C416.925 446.87 416.892 446.883 416.863 446.915C416.683 446.989 416.503 447.079 416.322 447.185C416.232 447.23 416.158 447.275 416.068 447.32C416.023 447.333 415.978 447.349 415.933 447.378C415.769 447.468 415.589 447.574 415.425 447.677C415.318 447.722 415.232 447.783 415.122 447.844C415.019 447.889 414.913 447.963 414.81 448.02C414.749 448.037 414.704 448.065 414.659 448.11C414.597 448.143 414.54 448.172 414.495 448.2C414.433 448.229 414.376 448.278 414.314 448.319C414.253 448.352 414.196 448.38 414.134 448.425C414.003 448.499 413.868 448.577 413.728 448.679C413.671 448.724 413.597 448.753 413.536 448.814C413.343 448.921 413.163 449.056 412.983 449.174C412.905 449.219 412.835 449.277 412.757 449.326C412.724 449.338 412.712 449.354 412.684 449.383C412.638 449.416 412.593 449.445 412.532 449.473C412.491 449.506 412.442 449.53 412.397 449.563C412.339 449.608 412.278 449.637 412.233 449.682C412.159 449.743 412.085 449.788 412.011 449.862C411.753 450.026 411.516 450.206 411.274 450.402C411.126 450.505 410.975 450.611 410.823 450.73C410.573 450.926 410.303 451.135 410.061 451.327C409.999 451.389 409.93 451.434 409.868 451.491C409.733 451.597 409.598 451.704 409.475 451.806C409.373 451.884 409.27 451.974 409.164 452.076C409.057 452.166 408.967 452.256 408.864 452.33L408.848 452.346C403.169 462.189 397.768 472.236 395.518 481.886C395.518 481.886 393.945 469.817 399.485 453.84C399.517 453.828 399.534 453.828 399.558 453.828C398.542 452.899 397.346 451.884 396.026 450.877C395.76 450.672 395.485 450.46 395.203 450.267C395.141 450.222 395.1 450.189 395.039 450.148C394.694 449.891 394.317 449.637 393.957 449.4C393.6 449.158 393.24 448.921 392.867 448.696C392.49 448.458 392.117 448.245 391.74 448.02C391.158 447.677 390.556 447.366 389.945 447.079C389.753 446.973 389.556 446.883 389.359 446.797C388.958 446.617 388.523 446.436 388.105 446.269C387.786 446.154 387.487 446.031 387.175 445.929C386.892 445.823 386.589 445.733 386.29 445.659C386.052 445.585 385.794 445.524 385.552 445.462C385.511 445.45 385.45 445.434 385.405 445.417C385.331 445.405 385.241 445.389 385.167 445.372C384.88 445.315 384.598 445.254 384.315 445.209C384.135 445.164 383.954 445.135 383.774 445.119C383.594 445.09 383.413 445.074 383.221 445.061C383.086 445.045 382.95 445.029 382.815 445.029C382.77 445.016 382.741 445.016 382.696 445.016C382.459 445 382.217 445 381.975 445H380C381.07 450.042 382.36 456.48 383.274 461.898C390.429 471.168 393.703 481.575 392.215 490.599C391.896 492.564 391.392 494.459 390.711 496.227C390.605 496.513 390.441 496.763 390.326 497.045C393.457 511.905 396.727 526.966 397.78 531.259C399.964 540.144 400.28 554.21 397.719 561ZM376.751 463.225C376.554 463.017 376.357 462.793 376.151 462.585C374.874 461.273 373.358 459.858 371.525 458.232L371.18 457.906C370.938 457.653 370.696 457.413 370.428 457.177C367.742 454.674 364.373 450.635 361.6 447H345.98C348.124 451.23 350.832 455.18 354.044 458.607C355.815 460.494 357.918 462.344 360.051 464.268C365.367 469.032 372.553 474.22 373.514 481.414C373.871 484.083 373.497 486.361 372.717 488.314C372.491 488.86 372.232 489.398 371.949 489.907C371.682 490.351 371.394 490.783 371.094 491.203C370.19 492.438 369.126 493.481 368.013 494.345C365.433 496.387 362.651 497.475 361.316 497.83C361.784 497.679 362.832 497.235 364.323 495.984C364.545 495.792 364.771 495.597 364.997 495.389C368.074 492.544 369.775 486.614 367.323 482.07C367.023 481.503 366.682 480.998 366.332 480.505C366.258 480.415 366.185 480.309 366.106 480.207C365.745 479.759 365.383 479.343 364.997 478.973C364.919 478.911 364.866 478.85 364.788 478.793C364.426 478.451 364.036 478.137 363.646 477.852C363.584 477.823 363.522 477.762 363.465 477.734C363.029 477.436 362.581 477.183 362.13 476.959C362.039 476.931 361.949 476.886 361.875 476.841C360.913 476.409 359.919 476.112 358.929 475.961C358.872 475.944 358.794 475.932 358.732 475.916C358.239 475.843 357.725 475.814 357.232 475.798H357.113C356.587 475.781 356.09 475.798 355.581 475.859C353.72 476.303 349.71 477.615 347.533 480.774C345.458 483.798 343.708 488.762 346.296 495.523C350.195 503.108 358.662 505.997 366.304 502.778C374.04 499.53 379.081 490.637 376.788 483.394C376.636 482.905 376.636 482.604 376.636 482.604C378.518 486.048 379.196 490.453 378.415 494.561C378.444 494.525 378.477 494.484 378.477 494.484C378.477 494.484 376.924 508.52 359.262 508.573C359.324 508.593 359.381 508.626 359.439 508.646C364.968 510.749 371.213 510.391 376.558 507.648C381.184 505.296 384.578 501.376 386.439 496.371C387.014 494.896 387.433 493.318 387.704 491.664C389.327 481.891 384.077 471.074 376.751 463.225ZM338 448.097H332.813C329.915 458.086 324.166 462.763 319.473 465.435C311.467 469.99 301.539 469.108 295.526 462.776C294.458 461.689 293.529 460.418 292.75 458.997C291.971 457.579 291.319 456.174 290.801 454.789C289.741 451.949 289.267 449.159 289.571 446.336C290.034 448.485 290.829 450.589 292.015 452.562C292.204 452.86 292.386 453.159 292.604 453.457C294.557 456.37 297.147 458.535 300.049 459.94C305.754 462.673 312.724 462.432 318.734 458.997C322.292 456.982 326.123 453.592 329.025 448.097H327.823C327.582 448.097 327.349 448.097 327.104 448.085C326.787 448.068 326.471 448.052 326.147 448.007C325.989 447.995 325.842 447.962 325.684 447.933H325.645C325.427 447.905 325.222 447.872 325.02 447.827C324.822 447.782 324.633 447.741 324.443 447.68C324.273 447.651 324.099 447.602 323.925 447.562C323.735 447.513 323.561 447.455 323.387 447.394C323.344 447.382 323.32 447.366 323.273 447.349C323.016 447.276 322.766 447.169 322.509 447.067C322.494 447.067 322.466 447.051 322.45 447.039C322.177 446.932 321.912 446.798 321.64 446.663C321.035 446.365 320.454 446.021 319.888 445.633C319.706 445.498 319.517 445.364 319.327 445.212C318.552 444.616 317.84 443.93 317.192 443.182C316.785 443.484 316.409 443.795 315.958 444.081C315.587 444.318 315.195 444.526 314.804 444.739C310.297 447.096 305.279 447.366 300.859 445.784C297.186 444.485 293.936 441.899 291.722 438.21C291.291 437.508 290.912 436.776 290.58 436C284.934 442.046 282.811 450.638 284.641 458.58C285.206 461.076 286.175 463.49 287.535 465.75C287.579 465.823 287.618 465.897 287.662 465.958H287.678C293.051 474.737 302.951 478.59 312.708 476.396C315.164 475.845 317.623 474.901 319.995 473.557C325.645 470.35 334.517 461.15 338 448.097ZM285.019 431.513L289.729 426.746L292.479 432.801C292.722 433.349 293.006 433.864 293.327 434.356C295.014 437.017 297.42 438.912 300.325 439.884C300.84 440.059 301.367 440.162 301.891 440.277C304.065 437.501 306.033 434.598 307.493 431.513C309.197 427.888 310.682 423.887 312 419.58V379C309.773 379.504 306.88 379.773 302.897 379.773C302.207 379.773 301.53 379.686 300.848 379.646C299.323 388.109 297.862 396.401 295.972 405.522C288.97 439.44 241.308 461.461 206.095 430.486C197.819 423.209 199.868 422.4 197.093 422.039C196.327 421.936 195.629 422.067 195 422.328L195.316 423.022C200.416 434.459 207.381 446.792 227.227 456.46C242.395 463.852 259.238 465.026 274.617 459.736C275.777 459.339 276.897 458.836 278.021 458.348C277.952 458.074 277.822 457.82 277.761 457.547C275.469 448.176 278.179 438.433 285.019 431.513ZM177.145 409.601C178.372 407.027 184.169 398.369 193.533 401.487C202.158 404.362 205.878 414.449 210.667 421.043C222.035 436.72 244.45 444.801 262.136 436.975C283.373 427.592 288.84 411.092 291.688 395.074C292.943 388.068 293.959 382.079 295 375.575C292.87 374.875 290.768 374.018 288.723 372.877C288.251 372.614 287.811 372.292 287.363 372C287.198 372.877 287.024 373.767 286.867 374.624C282.736 396.907 279.181 416.15 263.964 424.417C245.664 434.384 227.627 428.091 214.503 407.192C214.326 406.907 214.148 406.652 213.971 406.392L213.737 406.034C212.611 404.152 211.611 402.57 210.667 401.199C204.99 393.023 195.832 387.829 186.763 387.635C180.199 387.516 174.584 390.074 170.924 394.876C167.681 399.18 166.354 404.663 167.298 409.935C167.386 410.396 167.435 410.746 167.483 411.047C167.628 409.494 167.608 405.062 170.711 400.75C176.1 393.253 186.537 392.545 192.278 398.612C192.278 398.612 192.012 398.567 191.612 398.34C185.625 395.103 177.012 398.114 172.917 404.424C168.875 410.684 170.92 419.47 175.951 423.762C180.425 427.584 186.731 426.521 189.813 425.137C192.56 423.889 194.271 421.179 195.126 419.449L195.138 419.433C196.655 415.623 196.361 410.474 191.951 406.874C188.357 403.954 182.882 404.465 179.889 406.726C178.093 408.094 177.399 409.148 177.145 409.601ZM182 443.962L181.766 443C176.341 443.58 170.978 446.148 166.671 450.229C162.453 454.148 159.426 459.168 157.917 464.752C156.379 470.579 156.787 476.6 159.055 481.695C161.134 486.588 165.125 490.956 170.295 494L170.917 493.225C166.82 489.163 164.007 484.851 162.554 480.411C161.045 475.753 160.944 470.722 162.268 465.861C163.458 461.235 165.912 456.708 169.355 452.769C173.032 448.664 177.29 445.699 182 443.962ZM159.222 504.17C152.425 498.899 147.489 492.685 144.938 486.19C142.223 479.311 141.721 471.703 143.482 464.188C145.067 457.051 148.623 450.116 153.755 444.124C159.059 438.019 165.718 433.47 173 430.971L172.749 430C167.42 430.762 162.075 433.022 157.298 436.524C154.295 438.527 151.488 440.965 148.966 443.777C144.051 449.274 140.583 455.991 138.94 463.2C137.271 470.659 137.84 478.352 140.529 484.856C141.905 488.22 143.817 491.352 146.172 494.132C149.2 498.484 153.512 502.244 158.645 505L159.222 504.17ZM148.323 514.141C139.567 507.921 133.154 500.266 129.778 492C126.23 483.422 125.357 473.411 127.332 463.812C129.258 453.995 133.504 445.053 139.619 437.945C146.393 430.072 153.183 425.532 155.739 423.823C156.921 423.033 157.051 422.948 156.986 422.66L156.726 422L156.292 422.166C153.732 423.138 151.204 424.349 148.77 425.771C144.5 428.367 140.505 431.675 136.909 435.592C129.932 443.194 125.133 452.654 123.028 462.962C120.887 473.682 122.114 484.516 126.482 493.47C128.725 498.112 131.736 502.348 135.434 506.066C139.225 509.711 143.382 512.72 147.795 515L148.323 514.141ZM154.804 347L155 345.974C143.058 343.055 132.132 338.717 122.54 333.08H122.536C113.097 327.561 104.829 320.559 97.957 312.272L97.7331 312L97.4093 312.126C95.914 312.704 94.3268 313.344 92.6917 314.027L92 314.312L92.5117 314.873C100.484 323.625 110.067 330.807 120.989 336.221C131.152 341.276 142.53 344.898 154.804 347ZM143 362.989C129.266 359.534 116.678 354.459 105.585 347.906C94.4561 341.352 84.6773 333.075 76.5264 323.307L76.2692 323L75.9155 323.182C74.8142 323.758 73.6808 324.38 72.5474 324.997L71 325.842L71.4542 326.339C80.6581 336.36 91.6065 344.658 103.99 350.992C115.669 356.978 128.724 361.357 142.791 364L143 362.989ZM108 367.992C83.7485 359 67.6588 348.928 54.2076 334.313L53.9167 334L53.5643 334.229C52.2368 335.084 50.897 335.973 49.549 336.875L49 337.247L49.4794 337.709C64.7006 352.34 82.1096 361.697 107.689 369L108 367.992ZM62 365.071C51.0873 360.365 42.5535 355.675 36.3707 348.079L35.6762 348C34.4667 348.937 33.2493 349.886 32.0359 350.863L32 351.598C39.5559 359.021 52.3087 363.529 61.6727 366L62 365.071ZM161.991 295.601L162.723 296L162.787 295.19C162.83 294.61 162.885 294.03 162.962 293.459L163 293.154L162.744 292.978C159.55 290.745 156.624 288.105 154.039 285.123C148.818 279.008 145.197 271.931 143.579 264.644C141.786 256.979 142.297 249.215 145.065 242.196C147.655 235.575 152.685 229.23 159.61 223.851L159.018 223C153.796 225.813 149.401 229.645 146.352 234.054C143.92 236.928 141.973 240.123 140.572 243.557C137.838 250.194 137.259 258.044 138.954 265.66C140.632 273.017 144.163 279.868 149.167 285.481C151.731 288.347 154.589 290.839 157.634 292.862C158.894 293.792 160.321 294.684 161.991 295.601ZM155.745 305.182C153.189 303.468 146.393 298.932 139.618 291.059C133.501 283.947 129.254 275.005 127.328 265.188C125.357 255.597 126.226 245.586 129.779 237C133.152 228.738 139.569 221.079 148.328 214.863L147.8 214C143.382 216.284 139.22 219.289 135.428 222.942C131.738 226.652 128.726 230.888 126.482 235.53C122.117 244.484 120.886 255.318 123.028 266.038C125.133 276.342 129.929 285.806 136.907 293.408C140.504 297.325 144.495 300.625 148.779 303.238C151.209 304.651 153.737 305.862 156.298 306.838L156.729 307L156.932 306.591L156.985 306.433C157.054 306.052 156.928 305.967 155.745 305.182ZM161.073 248.683C158.782 253.946 158.376 260.156 159.924 266.174C161.422 271.839 164.419 276.966 168.598 281L169.39 280.885C169.946 279.914 170.433 279.135 170.913 278.43L170.888 277.815C167.696 273.884 165.414 269.457 164.301 265.022V265.013C162.969 260.004 163.067 254.819 164.586 250.019C166.052 245.436 168.882 240.993 173 236.803L172.379 236C167.176 239.136 163.16 243.645 161.073 248.683ZM209.904 367.414C205.315 356.118 195.342 349.567 189.757 347.921C187.632 347.296 185.532 347 183.452 347C175.224 347 167.89 351.745 165.116 359.529C162.141 367.803 165.279 377.051 172.568 381.869C172.699 381.22 172.883 380.583 173.103 379.975C175.763 372.544 183.853 368.72 191.506 371.271C198.255 373.518 201.029 380.466 201.54 388.286C205.115 390.281 208.4 392.885 211.191 396C213.328 388.395 214.304 378.263 209.904 367.414ZM283.135 358.452C283.257 358.69 283.409 358.944 283.556 359.186C283.658 359.367 283.765 359.547 283.883 359.711C283.916 359.785 283.961 359.847 284.018 359.921C284.227 360.265 284.468 360.61 284.705 360.942C286.557 363.507 288.847 365.858 291.796 367.478C307.911 376.354 322.542 366.063 325 362.665C323.332 362.284 315.816 361.406 312.687 355.469C310.173 350.68 310.013 344.817 312.049 339.462C312.45 338.338 312.97 337.242 313.603 336.18C313.644 336.102 313.689 336.028 313.751 335.966V335.954C313.824 335.835 313.914 335.712 313.988 335.593V320.083C311.219 320.891 308.799 321.761 306.455 323.349C302.248 326.193 299.205 329.352 297.414 332.696C291.808 343.106 294.437 355.977 304.497 362.124C306.607 363.416 308.848 364.286 311.134 364.783C305.903 365.981 300.224 365.218 295.288 362.185C285.228 356.018 282.599 343.167 288.189 332.758C290.863 327.781 295.803 322.127 304.812 318.959C310.786 316.862 312.225 316.994 313.988 316.801V312C311.15 312.525 308.459 313.321 305.948 314.298C305.004 314.655 304.092 315.045 303.196 315.467C293.17 320.112 286.198 327.629 283.466 332.696C278.833 341.309 278.968 350.939 283.135 358.452ZM273.762 329.227C274.543 330.306 275.706 331.742 277.187 333.395C277.525 332.645 277.828 331.891 278.222 331.157C279.744 328.328 282.376 324.814 286 321.336C285.825 321.191 285.638 321.039 285.466 320.898C280.544 316.85 276.307 313.344 272.48 310.869C268.665 308.385 264.34 306.816 259.991 306.247C259.35 306.159 258.697 306.098 258.052 306.054C254.268 305.822 250.485 306.335 247.048 307.639C244.631 308.562 242.52 309.825 240.776 311.394C238.912 313.051 237.471 315.033 236.495 317.288C236.216 317.877 235.985 318.491 235.81 319.121C235.754 319.253 235.722 319.386 235.678 319.518C234.994 321.953 234.834 324.461 235.169 326.896C235.213 327.217 235.272 327.542 235.328 327.847L235.503 328.593C235.929 330.443 236.67 332.204 237.69 333.833C240.366 338.113 244.615 340.93 249.641 341.78C256.351 342.907 262.161 339.477 263.758 336.561C264.794 334.695 265.116 332.32 264.666 330.178C264.674 330.122 264.666 330.077 264.634 330.017C264.603 329.845 264.559 329.668 264.515 329.492C264.443 329.227 264.34 328.946 264.24 328.681C263.265 326.19 261.186 324.389 258.211 323.45C254.503 322.274 250.178 324.477 248.474 327.261C247.427 328.99 247.212 330.061 247.164 330.43C247.164 330.531 247.164 330.603 247.148 330.635C245.447 327.951 247.574 321.175 254.647 319.534C254.706 319.502 254.762 319.49 254.838 319.49C255.638 319.297 256.526 319.197 257.458 319.165C266.136 318.888 270.588 324.77 273.762 329.227ZM228.89 314C229.001 313.705 229.073 313.396 229.196 313.116C229.684 311.856 230.308 310.649 231 309.484C226.798 309.979 222.455 309.018 219 306C221.551 309.684 224.981 312.379 228.89 314ZM244.918 392.812C244.335 393.538 243.62 394.129 242.802 394.565C243.313 395.1 243.824 395.553 244.319 395.957C251.634 401.755 262.344 400.569 268.185 393.304C274.099 385.967 273.001 374.518 265.834 368.835C263.354 366.864 260.231 365.658 256.582 365.254L255.46 365.123L256.362 364.457C256.49 364.353 256.582 364.353 257.017 364.342C258.199 364.31 261.82 364.238 264.739 362.791C274.211 358.091 270.054 343.422 268.533 339C266.257 345.452 257.688 354.471 246.507 359.008C232.264 364.774 226.69 371.068 222.309 379.356C220.716 382.354 215.561 393.578 219.378 405.733C226.869 416.607 235.862 422.556 245.525 423C243.652 422.413 241.795 421.608 239.97 420.498C233.857 416.801 229.828 411.063 228.642 404.353C227.492 397.916 229.109 391.186 232.967 386.388C234.76 384.155 236.772 382.707 238.789 382.231C240.629 381.763 242.438 382.144 243.852 383.259C245.285 384.389 246.176 386.015 246.375 387.811C246.583 389.624 246.056 391.392 244.918 392.812ZM174.125 297.955C175.324 308.625 184.793 316.162 196.128 315.481C201.427 315.157 209.314 312.961 216.746 304.268L217.131 303.823C216.568 302.891 216.078 301.914 215.706 300.921C209.524 308.029 201.65 310.829 197.047 311.109C187.813 311.66 179.554 305.529 178.522 296.314C178.004 291.795 179.352 287.483 181.923 284.152C181.526 285.944 181.388 287.824 181.611 289.749C182.647 298.964 190.906 305.099 200.136 304.548C203.735 304.341 208.828 303.393 214.787 297.882C213.872 293.489 214.585 288.946 216.641 285.024C216.69 284.886 216.738 284.716 216.791 284.639C216.84 284.566 216.892 284.509 216.945 284.432C218.487 281.725 220.681 279.338 223.523 277.588C223.633 277.519 223.746 277.478 223.859 277.413C224.981 276.708 225.697 276.449 225.697 276.449C225.697 276.449 215.682 284.209 219.2 296.861C221.604 305.512 229.766 307.356 233.158 307.753C233.555 307.336 233.936 306.906 234.373 306.517C236.547 304.58 239.178 303.045 242.15 301.882C255.173 296.8 269.549 302.899 271.763 304.135C272.355 304.459 272.978 304.848 273.614 305.245C274.561 305.837 275.569 306.522 276.634 307.275C276.945 307.498 277.253 307.721 277.565 307.94C277.949 308.224 278.334 308.503 278.719 308.787C278.779 308.815 278.852 308.86 278.909 308.916C281.662 310.963 284.787 313.415 288.099 316C290.204 314.399 292.519 312.884 295.058 311.506C293.892 310.485 292.706 309.451 291.608 308.475C288.277 305.512 285.2 302.793 282.411 300.463C280.415 298.919 278.528 297.57 276.966 296.678C269.877 292.634 263.217 289.826 254.327 291.755C244.797 293.825 239.688 300.508 239.688 300.508C240.798 295.191 243.227 293.509 245.943 291.07C236.494 284.639 239.118 274.078 241.275 270.541C242.955 267.785 247.004 263.206 254.995 263.368C262.529 263.518 272.61 270.022 282.641 281.19C288.123 287.281 295.718 298.81 301.15 308.633C301.203 308.613 301.252 308.588 301.304 308.568C304.296 307.409 307.393 306.53 310.486 305.958L312 305.683V292.606C311.122 291.674 310.037 290.503 308.838 289.206H308.587L307.223 287.447C304.077 283.998 302.239 279.8 301.223 275.484C301.017 274.706 300.903 273.916 300.762 273.126C300.705 272.81 300.616 272.494 300.572 272.178C290.192 260.908 278.237 253.05 267.339 251.579C264.497 251.195 261.805 251 259.214 251C239.68 251 226.588 261.787 210.617 280.7C204.933 287.427 198.084 288.343 193.553 286.965C189.497 285.737 186.72 282.613 186.287 278.82C186.23 278.345 186.202 277.887 186.185 277.413C178.149 280.777 173.13 289.157 174.125 297.955ZM307.134 269.855C307.642 274.918 309.721 279.788 312.991 284H334.11C330.868 282.209 327.945 279.423 326.146 274.801C322.303 264.892 327.697 258.905 331.587 256.79C332.835 255.978 334.294 256.047 334.294 256.047C334.294 256.047 330.28 259.821 329.188 264.001C328.125 268.052 329.184 273.761 335.314 276.684C340.799 279.298 346.229 275.432 348.1 272.806C350.843 268.991 350.859 260.696 346.541 254.384C341.175 247.45 330.684 245.921 323.663 251.184C316.97 256.203 314.395 264.663 318.169 272.641C318.925 274.239 318.697 274.283 317.482 272.593C312.68 265.904 311.312 255.734 319.513 249.582C326.082 244.66 336.069 246.495 337.465 246.8C335.613 245.985 333.638 245.431 331.571 245.166C325.55 244.403 319.441 246.298 314.791 250.349C309.077 255.34 306.342 262.266 307.134 269.855ZM337.025 174L338 173.745C337.238 168.416 334.974 163.067 331.468 158.299C329.478 155.292 327.04 152.49 324.223 149.968C318.727 145.053 312.014 141.586 304.801 139.938C297.335 138.273 289.647 138.838 283.147 141.523C279.783 142.908 276.644 144.815 273.867 147.169C269.516 150.198 265.756 154.51 263 159.637L263.834 160.223C269.105 153.422 275.322 148.483 281.809 145.936C288.696 143.221 296.299 142.719 303.814 144.48C310.946 146.069 317.885 149.625 323.873 154.752C329.981 160.056 334.527 166.71 337.025 174ZM328 181.766C327.42 176.334 324.852 170.974 320.774 166.672C316.851 162.455 311.835 159.424 306.25 157.915C300.419 156.385 294.393 156.78 289.306 159.053C284.409 161.131 280.045 165.126 277 170.296L277.775 170.914C281.837 166.821 286.146 164.005 290.59 162.548C295.244 161.042 300.272 160.945 305.141 162.269C309.768 163.46 314.295 165.909 318.23 169.352C322.336 173.033 325.301 177.286 327.042 182L328 181.766ZM276.993 129.776C285.579 126.228 295.578 125.354 305.167 127.329C314.976 129.255 323.918 133.506 331.022 139.619C338.896 146.393 343.43 153.188 345.138 155.748C345.818 156.768 345.972 157 346.231 157C346.271 157 346.316 156.992 346.36 156.984L347 156.829L346.798 156.297C345.826 153.757 344.62 151.225 343.191 148.766C340.592 144.499 337.289 140.504 333.37 136.904C325.772 129.93 316.312 125.135 306.017 123.03C295.298 120.888 284.466 122.111 275.519 126.48C270.88 128.727 266.646 131.739 262.934 135.437C259.287 139.224 256.279 143.382 254 147.799L254.862 148.328C261.076 139.566 268.731 133.153 276.993 129.776ZM355.135 173.084C355.296 174.722 355.613 176.332 356.079 177.904C356.584 179.629 357.274 181.297 358.139 182.881C358.139 182.894 358.139 182.906 358.151 182.923H358.166C358.727 183.987 359.388 185.011 360.125 185.977C360.371 186.327 360.653 186.666 360.935 187C361.065 186.719 361.198 186.455 361.343 186.17C361.452 185.964 361.558 185.766 361.676 185.556C362.048 184.899 362.463 184.268 362.917 183.665C362.917 183.649 362.917 183.637 362.941 183.62C364.084 182.052 365.427 180.706 366.904 179.629C368.913 178.115 371.188 177.091 373.558 176.571C377.96 175.564 385.613 176.307 389.881 178.981C391.377 179.922 392.584 181.098 393.649 182.386C393.88 182.237 394.158 182.151 394.417 182.027L394.757 180.1C395.31 176.938 396.524 173.963 398.223 171.276C395.333 166.646 391.934 163.703 389.047 162.061C385.679 160.142 382.115 159.225 378.653 159.225C371.948 159.225 365.651 162.672 361.997 168.99C361.413 170.001 360.916 171.049 360.52 172.11C360.324 168.255 361.229 164.483 363.164 161.128C368.302 152.259 379.115 149.515 388.311 154.739C392.067 156.885 396.794 161.14 399.817 169.089C400.992 167.616 402.273 166.225 403.773 165.032C403.847 164.974 403.93 164.937 404 164.879C399.794 157.154 394.193 151.702 390.199 149.391C378.543 142.68 364.871 146.197 358.366 157.579C355.637 162.345 354.603 167.814 355.135 173.084ZM371.972 119.527C374.991 124.955 377.601 130.848 379.949 137.544L380.108 138L382 137.428L381.869 136.953C379.937 129.981 377.672 123.772 374.951 117.979C369.814 107.054 363.012 97.4712 354.725 89.5077L354.194 89L353.924 89.6836C353.277 91.3187 352.666 92.9018 352.123 94.3969L352 94.7207L352.262 94.9486C360.108 101.825 366.74 110.092 371.972 119.527ZM359 73.1814L359.294 73.4343C368.541 81.4456 376.379 91.0614 382.593 102.013C384.868 106.017 386.991 110.392 389.262 115.783L389.776 117L390.18 115.743C390.412 115.024 390.663 114.344 390.933 113.676L391 113.498L390.937 113.32C389.066 108.242 387.348 104.151 385.516 100.44C379.509 88.2553 371.656 77.4933 362.166 68.4506L361.699 68L360.859 69.5967C360.283 70.6875 359.714 71.7744 359.177 72.8376L359 73.1814ZM370 51.8049L370.291 52.0852C382.343 63.7651 391.089 77.5712 398.656 96.8508L399.104 98L399.721 96.4825C399.796 96.3143 399.87 96.1461 399.933 95.9739L400 95.8098L399.945 95.6416C393.62 75.469 385.448 60.6099 373.443 47.4685L373.015 47L372.673 47.5365C371.828 48.8539 371.006 50.1592 370.212 51.4565L370 51.8049ZM385 30.6797L385.079 31.3741C392.67 37.5561 397.362 46.0887 402.067 57L403 56.6727C400.525 47.306 396.018 34.5549 388.598 27L387.862 27.0359C386.882 28.2532 385.929 29.4664 385 30.6797ZM391 142.14C391.98 142.565 392.956 143.002 393.904 143.525C395.376 144.341 397.052 145.533 398.801 147C399.769 141.724 401.554 136.732 403.388 131.91C405.336 127.066 407.37 122.347 409.078 117.606C410.457 113.876 411.506 110.042 412.388 106.184C412.97 102.367 414.446 89.0081 408.757 79C408.919 79.8656 409.033 80.6405 409.102 81.0115C409.619 83.8557 409.773 86.774 409.68 89.6635C409.472 96.0979 408.138 102.413 405.003 108.031C399.053 118.703 393.4 130.03 391 142.14ZM405.897 76C409.554 79.0548 412.414 83.2542 413.816 87.9442C415.409 92.9611 415.556 98.3011 415.035 103.45C414.507 108.622 413.203 113.623 411.642 118.52C410.009 123.41 407.957 128.044 406.144 132.67C404.247 137.264 402.528 141.838 401.52 146.516C401.284 147.458 401.158 148.423 401 149.38C403.71 152.251 406.396 155.785 408.696 160C409.68 159.498 410.683 159.035 411.724 158.684C413.837 154.995 416.482 151.434 418.087 147.793C424.142 134.05 428.165 116.072 424.747 100.869C422.472 90.7517 416.897 81.8624 406.425 76.2672C406.25 76.1755 406.071 76.0917 405.897 76ZM428.287 135.328C427.687 137.672 427.037 139.868 426.374 141.896C429.382 140.448 432.528 139.708 435.595 139.708C441.912 139.708 447.864 142.669 451.4 148.135C453.456 151.334 454.458 154.949 454.316 158.663C453.888 157.647 453.355 156.652 452.734 155.686C446.858 146.555 434.781 143.886 424.65 149.467C424.197 149.714 423.715 150.035 423.241 150.347C423.014 150.882 422.796 151.396 422.595 151.853C421.605 154.098 420.309 156.233 419 158.314C419.26 158.305 419.516 158.248 419.776 158.248C421.206 158.248 422.645 158.367 424.042 158.606C428.208 159.309 432.025 160.876 435.607 162.895C437.562 162.805 439.416 162.883 440.901 163.175C443.359 163.631 445.729 164.577 447.831 166.004C449.379 167.016 450.788 168.291 451.996 169.78C452.021 169.792 452.021 169.809 452.021 169.821C452.499 170.393 452.936 170.993 453.334 171.622C453.46 171.824 453.578 172.009 453.687 172.21C453.842 172.478 453.984 172.733 454.127 173C454.412 172.671 454.693 172.342 454.949 172.001C455.688 171.059 456.363 170.059 456.921 169.027H456.933C456.95 169.011 456.95 169.002 456.95 168.986C457.818 167.448 458.506 165.832 459.006 164.166C459.459 162.644 459.761 161.09 459.899 159.506C460.369 154.431 459.203 149.183 456.308 144.643C450.343 135.282 438.971 131.852 428.287 135.328ZM377.501 291.02C378.18 292.473 379.177 293.772 380.306 294.947C380.507 295.294 380.753 295.592 381.078 295.786C382.557 297.126 384.246 298.187 386.054 299.019C393.37 302.348 402.112 301.246 408.857 297.469C412.282 295.621 415.256 293.208 417.945 290.702C419.364 289.374 420.771 288.022 422.073 286.573C423.046 285.488 424.264 284.495 425.667 283.974C427.331 283.357 444 283.712 444 283.72C444 283.716 443.55 277.8 438.188 275.117C437.697 274.794 437.139 274.532 436.552 274.314C436.178 274.128 435.808 273.942 435.402 273.745C433.36 272.736 431.033 271.598 428.621 269.838C425.048 267.231 424.344 263.164 424.369 260C419.951 264.838 410.992 269.394 404.588 272.647C403.17 273.369 401.911 274.007 400.915 274.544C395.854 277.276 393.523 285.891 392.506 291.63L391.875 297.743C391.135 297.659 389.825 297.554 389.097 297.388L389.069 293.24C389.101 289.572 388.554 284.241 388.49 283.543C388.165 279.753 388.55 277.962 387.28 275.456C387.103 275.117 386.923 274.782 386.722 274.447C386.396 273.898 385.906 273.309 385.383 272.683C385.086 272.324 384.78 271.957 384.483 271.57C383.747 274.148 381.87 277.804 376.994 279.757V279.749C376.805 279.83 376.637 279.927 376.391 280.016C375.704 283.539 375.833 287.425 377.501 291.02ZM420 242C412.479 250.6 401.375 261.279 388.485 267.003L388 267.185C388.17 267.926 388.896 270.366 391.387 271.475C393.307 272.335 397.768 272.085 399.692 271.115C400.725 270.592 402.01 269.962 403.457 269.257C407.255 267.423 412.18 265.038 416.331 262.503L416.036 260.146C415.431 255.306 416.588 249.851 420 242ZM393 189.851C394.817 191.049 405.02 197.596 409 200C409 200 406.845 196.807 407.251 189.401C406.515 189.285 405.76 189.136 405.069 189.087L404.125 189.021C403.703 189.004 403.29 189 402.895 189C401.302 189 395.743 189.574 393 189.851ZM405.671 186.638V186.673C407.59 186.83 409.695 187.154 412 187.7C411.311 184.957 409.349 183.408 409.241 183.324L409.098 183.236C408.847 183.143 402.916 180.861 397.268 182.739C396.723 182.921 396.269 183.251 395.879 183.659C395.015 184.46 394.502 185.842 394.191 187.115C394.119 187.415 394.048 187.71 394 187.985C394.004 187.985 394.004 187.985 394.008 187.985C394.008 187.99 394.008 187.995 394.004 188C394.175 187.931 394.338 187.882 394.506 187.818C394.804 187.72 395.087 187.617 395.413 187.523C395.417 187.513 395.421 187.503 395.425 187.489C396.13 187.263 396.822 187.071 397.491 186.968C399.31 186.687 402.216 186.407 405.671 186.638ZM416.946 222.621C416.956 221.986 416.975 221.317 417 220.653C415.163 220.13 413.203 219.585 411.106 219C411.003 220.991 410.978 222.993 411.018 225C413.031 224.23 415.001 223.431 416.946 222.621ZM406 218.227C404.144 217.821 402.274 217.41 400.351 217C399.928 220.698 399.89 224.382 400.223 228C402.103 227.493 403.997 226.963 405.881 226.42C405.691 223.702 405.724 220.967 406 218.227ZM396 218.105C394.216 217.733 392.436 217.36 390.665 217C389.807 222.332 389.78 227.698 390.58 233C392.319 232.581 394.067 232.149 395.87 231.687C395.254 227.211 395.299 222.662 396 218.105ZM387 214.992C385.271 214.637 383.614 214.308 381.986 214C380.678 220.91 380.67 228.09 381.969 235C383.55 234.645 385.212 234.252 386.966 233.828C385.815 227.619 385.832 221.184 387 214.992ZM368.829 235.688C369.891 240.709 373.145 249.328 383.019 257.832C386.913 256.228 404.48 248.195 424.254 227.343C424.267 227.356 424.271 227.368 424.279 227.376C425.305 228.537 426.654 229.222 428.086 229.304C428.18 229.312 428.283 229.317 428.381 229.317C428.41 229.317 428.443 229.304 428.472 229.304C427.951 230.765 427.38 232.192 426.728 233.526C420.738 245.767 418.822 252.552 419.438 258C420.172 257.385 420.849 256.773 421.407 256.166L426.228 250.915C427.081 241.71 433.637 233.136 435.508 223.84C435.508 223.828 435.512 223.824 435.512 223.811C436.02 221.695 436 219.155 436 219.155C436 216.558 435.659 214.044 435.106 211.611C433.579 212.103 432.008 212.395 430.412 212.53C430.511 213.166 430.626 213.798 430.675 214.442C430.154 214.232 429.612 214.081 429.054 214.048C427.327 213.937 425.731 214.704 424.525 216.025C423.947 215.562 423.327 215.069 422.687 214.565C422.687 214.565 422.683 214.561 422.679 214.556L422.675 214.552C422.568 214.47 422.461 214.388 422.355 214.306C421.813 213.884 421.251 213.449 420.665 213.002C420.451 212.838 420.226 212.665 420 212.497C419.996 212.493 419.992 212.493 419.992 212.493C414.872 208.612 408.349 204.083 401.157 200.03C401.235 200.075 401.317 200.112 401.395 200.157C401.317 200.112 401.231 200.071 401.153 200.026C400.447 199.628 399.729 199.238 399.007 198.849C398.667 198.668 398.33 198.484 397.99 198.303C397.276 197.926 396.554 197.561 395.836 197.2V197.195C395.832 197.195 395.832 197.195 395.832 197.195C395.614 197.089 395.401 196.974 395.184 196.863C395.401 196.974 395.61 197.089 395.828 197.195C389.506 194.024 382.835 191.382 376.246 190C374.445 192.4 368.763 200.531 368 208.821C369.629 207.718 371.118 206.938 371.208 206.897L371.643 206.672L372.123 206.742C386.58 208.858 412.271 215.172 423.274 217.949C422.794 218.954 422.466 220.082 422.383 221.301C422.31 222.482 422.453 223.623 422.786 224.669C406.355 231.212 384.316 236.684 373.001 238.813L372.299 238.945L371.754 238.489C371.655 238.407 370.302 237.283 368.829 235.688ZM373.967 212.181C373.5 212.124 372.967 212.052 372.51 212C371.836 212.285 370.95 212.678 370.026 213.148L366.759 214.794C366.052 218.138 365.46 223.418 366.808 228.359L372.163 232.635C372.826 233.161 373.456 233.623 374 234C371.701 226.854 371.695 219.327 373.967 212.181ZM447.035 174.627C440.363 168.685 433.139 162.755 424.673 161.287C419.018 160.311 413 161.849 408.154 165.519C404.53 168.259 402.144 171.888 401 175.878C401.319 175.891 401.654 175.907 402.115 175.907C406.512 175.907 410.013 176.945 410.671 177.154L410.916 177.227C411.304 176.817 411.697 176.448 412.097 176.133C415.141 173.733 419.962 174.394 422.618 177.572C423.938 179.151 424.436 181.091 424.015 183.026C423.59 184.97 422.438 186.619 420.775 187.664C419.505 188.468 417.981 188.882 416.502 188.854C415.251 188.825 414.283 188.394 413.315 187.779C413.208 187.71 413.098 187.677 412.992 187.603L412.82 188.025C412.783 188.152 412.751 188.284 412.714 188.415C412.636 188.69 412.555 188.969 412.493 189.239C410.471 198.429 416.273 207.562 425.425 209.605C429.952 210.609 434.896 209.678 438.986 207.054C442.928 204.528 445.609 200.796 446.54 196.551C447.239 193.426 446.953 190.088 445.695 186.61L444.408 182.977L445.956 185.155C445.989 185.204 449.241 189.756 451.439 191.007C455.01 193.037 460.485 192.713 463.909 190.269C466.528 188.394 467.913 184.626 469 181.431C462.128 182.255 456.113 182.727 447.035 174.627ZM466 145.539L466.065 145.771C466.282 146.512 466.456 147.248 466.589 147.956L466.787 149L467.472 148.184C470.187 144.963 473.139 141.991 476.253 139.342C483.332 133.325 492.242 129.14 502.02 127.244C511.563 125.299 521.534 126.16 530.093 129.652C538.318 132.973 545.941 139.29 552.141 147.916L553 147.396C550.729 143.047 547.732 138.954 544.098 135.225L544.09 135.217C540.399 131.585 536.18 128.62 531.558 126.408C522.643 122.111 511.858 120.907 501.165 123.011C490.907 125.083 481.489 129.804 473.914 136.67C470.981 139.334 468.368 142.255 466.141 145.343L466 145.539ZM544 159.637C541.248 154.51 537.488 150.198 533.172 147.199C530.356 144.815 527.225 142.908 523.856 141.523C517.356 138.838 509.659 138.273 502.196 139.938C494.987 141.586 488.274 145.053 482.777 149.968C479.965 152.49 477.523 155.292 475.54 158.278C472.022 163.067 469.762 168.416 469 173.745L469.975 174C472.474 166.71 477.019 160.056 483.124 154.752C489.116 149.625 496.055 146.069 503.192 144.48C510.703 142.719 518.307 143.221 525.194 145.936C531.685 148.483 537.899 153.422 543.166 160.219L544 159.637ZM532 170.297C528.956 165.127 524.592 161.132 519.703 159.058C514.608 156.786 508.583 156.378 502.748 157.92C497.164 159.429 492.148 162.456 488.233 166.669C484.152 170.975 481.58 176.334 481 181.766L481.958 182C483.703 177.286 486.668 173.033 490.773 169.357C494.704 165.91 499.235 163.461 503.869 162.266C508.73 160.946 513.757 161.039 518.411 162.549C522.847 164.001 527.159 166.818 531.225 170.914L532 170.297ZM475.427 245.166C473.36 245.431 471.385 245.985 469.538 246.8C470.933 246.495 480.92 244.66 487.489 249.582C495.685 255.734 494.318 265.904 489.516 272.593C488.305 274.283 488.073 274.239 488.832 272.641C492.607 264.663 490.032 256.203 483.335 251.184C476.315 245.921 465.828 247.45 460.462 254.384C456.14 260.696 456.156 268.991 458.903 272.806C460.77 275.432 466.203 279.298 471.685 276.684C477.818 273.761 478.873 268.052 477.814 264.001C476.718 259.821 472.704 256.047 472.704 256.047C472.704 256.047 474.168 255.978 475.411 256.79C479.301 258.905 484.698 264.892 480.852 274.801C479.057 279.423 476.131 282.209 472.888 284H494.006C497.276 279.788 499.355 274.918 499.867 269.855C500.655 262.266 497.92 255.34 492.211 250.349C487.561 246.298 481.448 244.403 475.427 245.166ZM575.8 313.116C575.923 313.396 575.995 313.705 576.105 314C580.019 312.379 583.445 309.684 586 306C582.541 309.018 578.198 309.979 574 309.484C574.692 310.649 575.312 311.856 575.8 313.116ZM527.36 331.815C527.981 332.942 528.515 334.097 528.993 335.261C531.377 332.814 533.177 330.695 534.271 329.227C537.525 324.77 542.088 318.888 550.983 319.165C551.935 319.197 552.845 319.297 553.665 319.49C553.743 319.49 553.804 319.502 553.861 319.534C561.115 321.175 563.295 327.951 561.548 330.635C561.532 330.603 561.532 330.531 561.532 330.43C561.487 330.061 561.266 328.99 560.189 327.261C558.441 324.477 554.012 322.274 550.208 323.45C547.163 324.389 545.028 326.19 544.027 328.681C543.925 328.946 543.819 329.227 543.746 329.492C543.701 329.668 543.656 329.845 543.623 330.017C543.599 330.077 543.583 330.122 543.599 330.178C543.133 332.32 543.46 334.695 544.521 336.561C546.162 339.477 552.114 342.907 558.997 341.78C564.144 340.93 568.5 338.113 571.247 333.833C572.292 332.204 573.051 330.443 573.484 328.593L573.664 327.847C573.721 327.542 573.782 327.217 573.827 326.896C574.17 324.461 574.007 321.953 573.305 319.518C573.26 319.386 573.231 319.253 573.174 319.121C572.994 318.491 572.753 317.877 572.472 317.288C571.472 315.033 569.99 313.051 568.083 311.394C566.291 309.825 564.128 308.562 561.65 307.639C558.131 306.335 554.249 305.822 550.371 306.054C549.714 306.098 549.044 306.159 548.387 306.247C543.925 306.816 539.492 308.385 535.586 310.869C531.659 313.344 527.315 316.85 522.274 320.898C521.539 321.488 520.772 322.102 520 322.724C523.421 325.953 525.919 329.199 527.36 331.815ZM487.306 354.808C487.102 354.928 486.916 355.03 486.694 355.192C486.694 355.192 487.138 354.952 487.306 354.808ZM481 362.665C483.454 366.063 498.085 376.354 514.21 367.478C517.154 365.858 519.44 363.507 521.293 360.942C521.534 360.61 521.771 360.265 521.98 359.921C522.045 359.847 522.086 359.785 522.115 359.711C522.237 359.547 522.34 359.367 522.446 359.186C522.593 358.944 522.744 358.69 522.863 358.452C527.03 350.939 527.169 341.309 522.536 332.696C519.8 327.629 512.836 320.112 502.805 315.467C501.905 315.045 500.993 314.655 500.052 314.298C497.542 313.321 494.851 312.525 492.009 312V316.801C493.775 316.994 495.211 316.862 501.189 318.959C510.194 322.127 515.134 327.781 517.809 332.758C523.403 343.167 520.769 356.018 510.709 362.185C505.778 365.218 500.093 365.981 494.867 364.783C497.153 364.286 499.398 363.416 501.504 362.124C511.56 355.977 514.194 343.106 508.591 332.696C506.792 329.352 503.753 326.193 499.545 323.349C497.202 321.761 494.781 320.891 492.009 320.083V335.593C492.082 335.712 492.176 335.835 492.246 335.954V335.966C492.307 336.028 492.356 336.102 492.401 336.18C493.027 337.242 493.55 338.338 493.951 339.462C495.988 344.817 495.828 350.68 493.309 355.469C490.189 361.406 482.668 362.284 481 362.665ZM578.354 404.353C577.172 411.063 573.147 416.801 567.025 420.498C565.201 421.608 563.344 422.413 561.471 423C571.142 422.556 580.13 416.607 587.621 405.733C591.439 393.578 586.288 382.354 584.686 379.356C580.306 371.068 574.736 364.774 560.489 359.008C549.308 354.471 540.739 345.452 538.463 339C536.946 343.422 532.785 358.091 542.257 362.791C545.18 364.238 548.797 364.31 549.979 364.342C550.418 364.353 550.506 364.353 550.638 364.457L551.541 365.123L550.418 365.254C546.769 365.658 543.646 366.864 541.163 368.835C533.999 374.518 532.901 385.967 538.815 393.304C544.653 400.569 555.362 401.755 562.677 395.957C563.172 395.553 563.683 395.1 564.194 394.565C563.376 394.129 562.665 393.538 562.078 392.812C560.94 391.392 560.413 389.624 560.621 387.811C560.824 386.015 561.715 384.389 563.144 383.259C564.562 382.144 566.37 381.763 568.207 382.231C570.224 382.707 572.24 384.155 574.033 386.388C577.886 391.186 579.503 397.916 578.354 404.353ZM499.781 288.351L498.413 290.154H498.162C496.963 291.483 495.883 292.683 495 293.638V309.062L495.83 309.22C498.777 309.776 501.732 310.64 504.582 311.77C504.679 311.807 504.764 311.853 504.858 311.89C510.327 301.47 518.545 288.555 524.358 281.939C534.394 270.494 544.474 263.828 552.003 263.675C559.995 263.509 564.051 268.201 565.723 271.025C567.881 274.651 570.508 285.473 561.059 292.064C563.772 294.564 566.201 296.288 567.314 301.736C567.314 301.736 562.201 294.888 552.671 292.766C543.786 290.789 537.122 293.667 530.034 297.812C528.471 298.725 526.584 300.108 524.593 301.691C521.799 304.079 518.723 306.865 515.391 309.901C513.772 311.384 512.043 312.933 510.286 314.502C512.796 315.881 515.087 317.397 517.164 319C521.156 315.815 524.848 312.825 528.09 310.354C528.147 310.295 528.224 310.25 528.285 310.221C528.665 309.93 529.05 309.643 529.439 309.353C529.746 309.129 530.058 308.9 530.37 308.672C531.434 307.899 532.442 307.197 533.386 306.591C534.025 306.184 534.645 305.785 535.236 305.453C537.45 304.187 551.825 297.936 564.853 303.144C567.824 304.336 570.46 305.91 572.629 307.895C573.067 308.294 573.447 308.734 573.84 309.162C577.236 308.755 585.394 306.865 587.802 297.999C591.316 285.033 581.301 277.08 581.301 277.08C581.301 277.08 582.017 277.346 583.139 278.069C583.252 278.135 583.369 278.177 583.479 278.247C586.321 280.041 588.515 282.487 590.057 285.262C590.11 285.341 590.158 285.399 590.207 285.473C590.26 285.552 590.312 285.727 590.365 285.868C592.413 289.888 593.13 294.543 592.211 299.045C598.174 304.693 603.263 305.665 606.861 305.877C616.096 306.442 624.35 300.154 625.39 290.71C625.609 288.738 625.471 286.811 625.079 284.975C627.649 288.389 628.997 292.807 628.483 297.438C627.443 306.882 619.188 313.165 609.95 312.6C605.351 312.314 597.478 309.444 591.292 302.16C590.923 303.177 590.434 304.178 589.867 305.133L590.255 305.59C597.684 314.498 605.57 316.749 610.869 317.081C622.204 317.779 631.677 310.055 632.876 299.12C633.867 290.104 628.848 281.516 620.816 278.069C620.8 278.555 620.767 279.024 620.711 279.51C620.281 283.397 617.5 286.599 613.444 287.857C608.918 289.269 602.064 288.331 596.38 281.437C580.418 262.055 567.318 251 547.785 251C545.194 251 542.502 251.199 539.66 251.594C528.762 253.101 516.808 261.154 506.428 272.703C506.384 273.027 506.295 273.351 506.242 273.675C506.1 274.485 505.987 275.295 505.776 276.092C504.764 280.515 502.922 284.817 499.781 288.351ZM634 236.803C638.121 240.993 640.951 245.436 642.413 250.015C643.931 254.815 644.033 260 642.701 265.013V265.022C641.584 269.457 639.307 273.884 636.111 277.815L636.091 278.43C636.57 279.135 637.053 279.914 637.614 280.885L638.401 281C642.583 276.962 645.584 271.834 647.078 266.169C648.625 260.156 648.215 253.946 645.929 248.691C643.842 243.645 639.826 239.14 634.621 236L634 236.803ZM640.887 359.529C638.108 351.745 630.774 347 622.545 347C620.469 347 618.365 347.296 616.244 347.921C610.655 349.567 600.681 356.118 596.096 367.414C591.696 378.263 592.672 388.395 594.809 396C597.6 392.885 600.885 390.281 604.46 388.286C604.967 380.466 607.741 373.518 614.495 371.271C622.144 368.72 630.239 372.544 632.895 379.975C633.119 380.583 633.299 381.22 633.434 381.869C640.719 377.051 643.857 367.803 640.887 359.529ZM644.386 223.851C651.312 229.226 656.337 235.567 658.935 242.196C661.7 249.215 662.211 256.979 660.418 264.648C658.799 271.931 655.183 279.008 649.957 285.123C647.376 288.105 644.446 290.745 641.251 292.978L641 293.154L641.034 293.459C641.111 294.034 641.17 294.61 641.213 295.198L641.285 296L642.009 295.601C643.679 294.688 645.097 293.792 646.345 292.879C649.408 290.839 652.266 288.347 654.834 285.481C659.834 279.868 663.369 273.017 665.043 265.66C666.743 258.044 666.163 250.194 663.425 243.557C662.023 240.123 660.077 236.928 657.679 234.091C654.595 229.649 650.208 225.817 644.978 223L644.386 223.851ZM655.677 214.863C664.434 221.079 670.846 228.734 674.226 237C677.774 245.582 678.639 255.593 676.668 265.188C674.742 275.005 670.496 283.947 664.381 291.059C657.607 298.932 650.813 303.468 648.257 305.182C647.075 305.967 646.949 306.052 647.014 306.34L647.274 307L647.709 306.838C650.269 305.862 652.796 304.651 655.23 303.234C659.501 300.633 663.491 297.329 667.091 293.408C674.068 285.806 678.867 276.346 680.972 266.038C683.113 255.318 681.886 244.484 677.518 235.534C675.275 230.888 672.264 226.652 668.562 222.934C664.775 219.289 660.614 216.284 656.201 214L655.677 214.863ZM746.739 414.335C727.457 424.818 711.124 430.406 702.892 432.854C686.753 415.27 665.124 406.963 654.542 403.734C654.599 404.28 654.623 404.831 654.659 405.381C663.957 410.394 680.795 420.303 688.615 430.184C699.831 444.353 702.056 461.715 702.072 477.179C702.117 518.353 665.593 541.124 643.37 541.124C590.065 541.124 578.78 504.203 577.823 500.748C585.759 502.933 625.417 510.293 625.417 471.818C625.417 461.577 619.202 453.72 610.667 448.217C603.397 457.171 594.548 464.361 583.74 469.759C572.822 475.209 561.307 477.968 549.506 477.968C542.68 477.968 535.947 477.022 529.408 475.152C522.263 484.232 511.237 489.609 499.302 489.609C496.422 489.609 493.53 489.297 490.699 488.678C486.765 487.817 482.94 486.376 479.349 484.394C478.34 483.839 477.265 483.143 476.167 482.383V502.609C476.167 521.679 487.31 550.094 509.193 550.094C547.599 550.094 540.252 510.366 538.075 502.415C541.521 503.374 578.376 514.679 578.376 568.084C578.376 590.341 555.645 626.93 514.549 626.89C499.108 626.87 481.777 624.64 467.636 613.408C453.629 602.281 439.513 572.858 439.513 572.858C439.513 572.858 446.214 605.514 470.302 627.711C468.347 634.295 464.394 646.062 457.547 660.377C455.824 663.981 453.917 667.747 451.812 671.632C431.411 709.297 403.502 732 403.502 732C403.502 731.996 375.589 709.297 355.188 671.632C344.723 652.316 339.146 635.953 336.702 627.711C360.786 605.514 367.487 572.858 367.487 572.858C367.487 572.858 353.371 602.281 339.368 613.408C325.223 624.64 307.892 626.87 292.451 626.89C251.355 626.93 228.624 590.341 228.624 568.084C228.624 514.679 265.479 503.374 268.925 502.415C266.748 510.366 259.401 550.094 297.807 550.094C319.694 550.094 330.833 521.679 330.833 502.609V481.942C329.525 482.888 328.244 483.742 327.057 484.398C323.446 486.384 319.625 487.825 315.691 488.682C312.86 489.297 309.964 489.609 307.085 489.609C295.206 489.609 284.208 484.264 277.015 475.148C270.508 477.017 263.747 477.968 256.893 477.968C245.091 477.968 233.58 475.205 222.675 469.759C211.943 464.402 203.074 457.37 195.844 448.529C187.564 454.019 181.583 461.776 181.583 471.818C181.583 510.293 221.245 502.933 229.177 500.748C228.22 504.203 216.935 541.124 163.63 541.124C141.403 541.124 104.883 518.353 104.928 477.179C104.944 461.715 107.169 444.353 118.385 430.184C126.023 420.534 142.308 410.827 151.723 405.713C151.747 405.114 151.787 404.519 151.848 403.924C141.06 407.283 119.94 415.601 104.108 432.854C95.8763 430.406 79.5469 424.818 60.261 414.335C22.6665 393.894 0 365.935 0 365.935C0.00403894 365.935 22.6665 337.973 60.261 317.536C79.5469 307.052 95.8763 301.468 104.108 299.021C126.261 323.148 158.86 329.86 158.86 329.86C158.86 329.86 129.492 315.719 118.385 301.687C107.169 287.517 104.944 270.155 104.928 254.691C104.883 213.522 141.403 190.746 163.63 190.746C216.935 190.746 228.22 227.667 229.177 231.123C221.245 228.938 181.583 221.578 181.583 260.052C181.583 261.885 181.849 263.617 182.221 265.296L196.874 259.696L201.188 272.114C201.224 272.069 201.264 272.025 201.301 271.98C221.229 248.363 240.349 233.692 270.98 237.855C279.474 239.004 288.497 242.885 297.242 249.047C299.209 245.887 301.693 242.986 304.661 240.404C311.891 234.109 321.419 230.961 330.833 231.564V229.391C330.833 210.321 319.694 181.906 297.807 181.906C259.401 181.906 266.748 221.634 268.925 229.585C265.479 228.626 228.624 217.321 228.624 163.916C228.624 141.655 251.355 105.07 292.451 105.114C307.892 105.13 325.223 107.36 339.368 118.596C346.169 124.001 352.991 133.716 358.217 142.286C359.167 141.545 360.16 140.862 361.214 140.251C356.541 129.274 348.823 115.46 336.702 104.293C339.146 96.0468 344.723 79.6884 355.188 60.3681C375.589 22.7068 403.502 0 403.502 0C403.502 0.00404612 431.411 22.7068 451.812 60.3681C462.277 79.6884 467.854 96.0468 470.302 104.293C462.204 111.75 456.109 120.376 451.537 128.561C453.153 129.31 454.688 130.216 456.178 131.2C459.801 126.267 463.719 121.707 467.636 118.596C481.777 107.36 499.108 105.13 514.549 105.114C555.645 105.07 578.376 141.655 578.376 163.916C578.376 217.321 541.521 228.626 538.075 229.585C540.252 221.634 547.599 181.906 509.193 181.906C487.31 181.906 476.167 210.321 476.167 229.391V231.519C485.476 231.078 494.685 234.25 501.753 240.412C504.714 242.986 507.194 245.883 509.165 249.043C517.909 242.881 526.932 239.004 535.426 237.855C538.932 237.382 542.219 237.151 545.479 237.151C570.036 237.151 586.728 250.471 603.946 270.625L604.306 256.419L623.959 264.645C624.258 264.774 624.541 264.928 624.84 265.061C625.179 263.451 625.417 261.8 625.417 260.052C625.417 221.578 585.759 228.938 577.823 231.123C578.78 227.667 590.065 190.746 643.37 190.746C665.593 190.746 702.117 213.522 702.072 254.691C702.056 270.155 699.831 287.517 688.615 301.687C677.508 315.719 648.145 329.86 648.145 329.86C648.145 329.86 680.739 323.148 702.892 299.021C711.124 301.468 727.457 307.052 746.739 317.536C784.338 337.973 807 365.935 807 365.935C806.996 365.939 784.338 393.898 746.739 414.335ZM456.44 636.133C456.38 636.089 456.338 636.039 456.278 636C455.45 637.839 454.532 639.786 453.56 641.798C453.638 641.862 453.71 641.931 453.794 642C454.742 639.944 455.63 637.992 456.44 636.133ZM443 366.5L442.968 366.367C442.853 365.948 442.203 364.925 440.479 363.774C439.053 362.823 436.532 361.551 432.573 360.87L431.764 360.729L432.478 360.319C434.447 359.179 435.672 357 435.672 354.633C435.672 351.061 432.906 348.149 429.513 348.149C427.234 348.149 425.153 349.341 424.206 351.206C424.155 351.306 424.079 351.455 424.008 351.604L423.624 352.462L424.535 352.309C424.602 352.297 424.674 352.285 424.753 352.265C424.939 352.229 425.161 352.204 425.399 352.204C425.851 352.204 426.727 352.285 427.488 352.808C428.031 353.183 428.685 353.916 428.728 355.289C428.748 356.155 428.451 356.936 427.868 357.548C426.806 358.656 425.034 359.046 423.838 359.046H410.79V349.474C410.79 349.076 410.85 347.674 411.54 346.377C412.182 345.173 413.196 344.509 414.393 344.509H414.492C415.737 344.545 416.442 345.117 416.811 345.592C417.631 346.647 417.56 348.081 417.469 348.544C417.453 348.629 417.437 348.701 417.425 348.765L417.278 349.696L418.119 349.297C418.257 349.233 418.396 349.16 418.531 349.092C420.35 348.137 421.519 346.023 421.519 343.708C421.519 340.257 418.658 337.45 415.138 337.45C412.812 337.45 410.664 338.694 409.542 340.695L409.134 341.416L408.999 340.595C408.329 336.576 407.081 334.015 406.145 332.569C405.008 330.813 404.001 330.153 403.585 330.036L403.458 330L403.328 330.036C402.911 330.153 401.905 330.813 400.771 332.569C399.84 334.011 398.584 336.576 397.914 340.595L397.779 341.416L397.375 340.695C396.249 338.694 394.105 337.45 391.779 337.45C388.259 337.45 385.394 340.257 385.394 343.708C385.394 346.023 386.567 348.137 388.394 349.092C388.485 349.144 388.644 349.225 388.798 349.297L389.634 349.696L389.488 348.765C389.476 348.701 389.468 348.629 389.448 348.544C389.353 348.081 389.286 346.647 390.106 345.592C390.471 345.117 391.176 344.545 392.425 344.509H392.524C393.721 344.509 394.735 345.173 395.377 346.377C396.071 347.678 396.122 349.076 396.122 349.474V359.046H383.162C381.966 359.046 380.194 358.656 379.132 357.548C378.549 356.936 378.248 356.155 378.276 355.289C378.315 353.916 378.969 353.179 379.512 352.808C380.273 352.285 381.149 352.204 381.597 352.204C381.839 352.204 382.057 352.229 382.247 352.265C382.33 352.285 382.398 352.297 382.465 352.309L383.376 352.458L382.988 351.604C382.913 351.447 382.833 351.286 382.786 351.19C381.847 349.341 379.766 348.149 377.487 348.149C374.094 348.149 371.328 351.061 371.328 354.633C371.328 357 372.553 359.179 374.522 360.319L375.236 360.729L374.427 360.87C370.472 361.551 367.947 362.823 366.521 363.774C364.797 364.925 364.147 365.948 364.036 366.371L364 366.504L364.036 366.633C364.147 367.056 364.797 368.079 366.521 369.23C367.947 370.181 370.472 371.453 374.427 372.134L375.236 372.275L374.522 372.685C372.553 373.825 371.328 376.004 371.328 378.367C371.328 381.943 374.094 384.855 377.487 384.855C379.766 384.855 381.847 383.663 382.782 381.818C382.833 381.718 382.913 381.557 382.988 381.4L383.376 380.546L382.465 380.695C382.398 380.707 382.33 380.719 382.247 380.739C382.057 380.775 381.839 380.8 381.597 380.8C381.149 380.8 380.273 380.719 379.512 380.196C378.969 379.825 378.315 379.088 378.276 377.715C378.248 376.849 378.549 376.064 379.132 375.456C380.194 374.348 381.966 373.954 383.162 373.954H396.122V383.53C396.122 383.928 396.071 385.326 395.377 386.627C394.735 387.831 393.721 388.495 392.524 388.495H392.425C391.176 388.459 390.471 387.887 390.106 387.412C389.286 386.357 389.353 384.923 389.448 384.456C389.468 384.375 389.476 384.303 389.488 384.239L389.634 383.308L388.798 383.707C388.644 383.78 388.485 383.86 388.386 383.912C386.567 384.867 385.394 386.981 385.394 389.296C385.394 392.747 388.259 395.554 391.779 395.554C394.105 395.554 396.249 394.31 397.375 392.309L397.779 391.588L397.914 392.405C398.584 396.428 399.84 398.993 400.771 400.435C401.905 402.191 402.911 402.851 403.332 402.968L403.462 403L403.589 402.968C404.001 402.851 405.008 402.191 406.145 400.435C407.081 398.989 408.329 396.428 408.999 392.405L409.134 391.588L409.542 392.309C410.664 394.31 412.812 395.554 415.138 395.554C418.658 395.554 421.519 392.747 421.519 389.296C421.519 386.981 420.35 384.867 418.495 383.896C418.396 383.844 418.257 383.771 418.119 383.707L417.278 383.308L417.425 384.239C417.437 384.303 417.453 384.375 417.469 384.456C417.56 384.923 417.631 386.357 416.811 387.412C416.442 387.887 415.737 388.459 414.488 388.495H414.393C413.196 388.495 412.182 387.831 411.54 386.627C410.85 385.33 410.79 383.928 410.79 383.53V373.954H423.838C425.034 373.954 426.806 374.348 427.868 375.456C428.451 376.064 428.748 376.849 428.728 377.715C428.685 379.088 428.031 379.821 427.488 380.196C426.727 380.719 425.851 380.8 425.399 380.8C425.161 380.8 424.939 380.775 424.757 380.739C424.67 380.719 424.599 380.707 424.531 380.695L423.628 380.554L424.012 381.4C424.079 381.549 424.155 381.698 424.214 381.814C425.153 383.663 427.234 384.855 429.513 384.855C432.906 384.855 435.672 381.943 435.672 378.367C435.672 376.004 434.447 373.825 432.478 372.685L431.764 372.275L432.573 372.134C436.532 371.453 439.053 370.181 440.479 369.23C442.199 368.079 442.853 367.056 442.968 366.633L443 366.5ZM349 413H460V315H349V413ZM429 228C431.209 228 433 225.54 433 222.502C433 219.464 431.209 217 429 217C426.791 217 425 219.464 425 222.502C425 225.54 426.791 228 429 228ZM426.535 216.637L426.541 216.643C426.847 216.883 427.177 217.129 427.465 217.363C427.171 217.129 426.841 216.877 426.535 216.637ZM426.535 216.637L426.541 216.643C426.847 216.883 427.177 217.129 427.465 217.363C427.171 217.129 426.841 216.877 426.535 216.637ZM443.984 197.645C443.648 198.122 443.178 198.49 442.774 198.915C442.373 199.343 442.033 199.828 441.563 200.188C440.624 200.889 439.58 201.446 438.496 201.891C437.949 202.107 437.374 202.227 436.812 202.392C435.124 202.888 433.396 203.249 431.66 203.429C430.251 203.541 428.851 203.445 427.471 203.241C426.58 203.109 425.694 202.964 424.848 202.68C422.691 201.975 420.72 200.769 419.165 199.191L417 197L417.134 197.409L417.959 199.92C418.655 202.031 419.902 203.966 421.537 205.488C422.083 205.997 422.67 206.453 423.302 206.862C424.544 207.683 425.933 208.272 427.369 208.62C428.09 208.793 428.822 208.909 429.559 208.961C430.292 209.017 431.028 209.013 431.757 208.949C432.485 208.885 433.21 208.768 433.918 208.592C434.622 208.412 435.31 208.18 435.974 207.891C437.302 207.318 438.528 206.533 439.584 205.576C440.001 205.22 440.301 204.771 440.653 204.362C441.009 203.95 441.41 203.585 441.717 203.145V203.141C441.948 202.828 442.158 202.504 442.357 202.167C442.377 202.135 442.397 202.107 442.417 202.071C442.725 201.538 442.988 200.978 443.223 200.397C443.231 200.369 443.239 200.349 443.251 200.321C443.259 200.297 443.271 200.273 443.28 200.249V200.245C443.389 199.972 443.49 199.7 443.575 199.419C443.684 199.091 443.781 198.758 443.858 198.414L443.996 197.649L444 197.625L443.984 197.645ZM332.154 433H332.158C332.735 433 333.281 432.772 333.688 432.361L338.004 428.005L342.316 432.361C343.123 433.184 344.553 433.188 345.368 432.361C345.775 431.95 346 431.399 346 430.816C346 430.229 345.775 429.682 345.368 429.279L341.055 424.918L345.198 420.737C346.036 419.883 346.036 418.493 345.194 417.639C344.787 417.228 344.245 417 343.668 417H343.664C343.083 417.004 342.542 417.232 342.138 417.643L338.004 421.816L333.866 417.643C333.051 416.82 331.628 416.812 330.814 417.639C330.403 418.054 330.174 418.605 330.174 419.192C330.174 419.779 330.403 420.33 330.814 420.741L334.941 424.918L330.64 429.271C330.225 429.686 330 430.233 330 430.816C330 431.403 330.229 431.954 330.632 432.357C331.036 432.772 331.577 433 332.154 433ZM345.364 307.279L341.057 302.918L345.19 298.741C346.032 297.883 346.032 296.493 345.186 295.639C344.783 295.228 344.242 295 343.665 295H343.661C343.08 295.004 342.542 295.232 342.135 295.643L338.002 299.82L333.865 295.643C333.051 294.82 331.628 294.812 330.814 295.639C330.399 296.05 330.178 296.605 330.178 297.192C330.178 297.779 330.399 298.33 330.814 298.741L334.943 302.918L330.64 307.275C330.225 307.686 330 308.233 330 308.816C330 309.403 330.229 309.954 330.632 310.357C331.035 310.768 331.577 311 332.158 311H332.162C332.734 311 333.28 310.772 333.683 310.361L338.002 306.005L342.313 310.361C343.119 311.184 344.55 311.188 345.364 310.361C345.771 309.946 346 309.399 346 308.816C346 308.229 345.771 307.682 345.364 307.279ZM203.834 372.479C204.453 373.847 205.539 375.371 206 377C205.441 372.816 205.02 369.646 203.555 366.447C199.751 358.2 194.731 354.185 190.297 352.783C182.178 350.211 173.239 354.092 170.735 362.721C169.613 366.598 169.865 371.309 170.889 374.571C170.9 372.769 171.172 370.955 171.779 369.17C174.602 360.663 182.666 356.66 190.773 359.228C195.203 360.646 200.023 364.216 203.834 372.479ZM616.228 359.228C624.332 356.66 632.401 360.663 635.225 369.17C635.827 370.955 636.099 372.769 636.115 374.571C637.135 371.309 637.387 366.598 636.264 362.721C633.764 354.092 624.821 350.211 616.705 352.783C612.274 354.185 607.246 358.2 603.445 366.447C601.977 369.646 601.563 372.816 601 377C601.457 375.371 602.548 373.847 603.166 372.479C606.982 364.216 611.794 360.646 616.228 359.228ZM463.154 433H463.158C463.735 433 464.281 432.772 464.684 432.361L469 428.005L473.312 432.361C474.123 433.184 475.549 433.188 476.368 432.361C476.775 431.95 477 431.399 477 430.816C477 430.229 476.775 429.682 476.368 429.279L472.055 424.918L476.194 420.737C477.036 419.883 477.036 418.493 476.19 417.639C475.787 417.228 475.245 417 474.668 417H474.664C474.083 417.004 473.542 417.232 473.138 417.643L469 421.816L464.866 417.643C464.047 416.82 462.628 416.812 461.81 417.639C461.399 418.054 461.174 418.605 461.174 419.192C461.174 419.779 461.399 420.33 461.81 420.741L465.941 424.918L461.64 429.271C461.225 429.686 461 430.233 461 430.816C461 431.403 461.229 431.954 461.632 432.357C462.036 432.772 462.577 433 463.154 433ZM556 395.867C552.983 394.855 548.068 391.794 545.952 384.179C544.034 377.216 545.092 373.61 546.493 371C544.187 372.258 535.817 380.638 542.6 390.829C545.348 394.965 551.499 396.487 556 395.867ZM264.403 390.829C271.182 380.638 262.812 372.258 260.502 371C261.907 373.61 262.965 377.216 261.043 384.179C258.927 391.794 254.021 394.855 251 395.867C255.501 396.487 261.651 394.965 264.403 390.829ZM465 308.816C465 309.403 465.225 309.954 465.632 310.357C466.035 310.768 466.577 311 467.158 311H467.162C467.734 311 468.28 310.772 468.683 310.361L472.998 306.005L477.309 310.361C478.119 311.184 479.546 311.188 480.364 310.361C480.771 309.946 481 309.399 481 308.816C481 308.229 480.771 307.682 480.364 307.279L476.057 302.918L480.19 298.741C481.032 297.883 481.032 296.493 480.186 295.639C479.783 295.228 479.242 295 478.665 295H478.661C478.08 295.004 477.542 295.232 477.135 295.643L472.998 299.82L468.865 295.643C468.047 294.82 466.628 294.812 465.81 295.639C465.399 296.05 465.178 296.605 465.178 297.192C465.178 297.779 465.399 298.33 465.81 298.741L469.943 302.918L465.64 307.275C465.221 307.686 465 308.233 465 308.816ZM405.057 427.916L409.194 423.738C410.036 422.884 410.036 421.494 409.19 420.635C408.783 420.228 408.245 420 407.665 420H407.661C407.084 420 406.542 420.232 406.135 420.639L401.998 424.817L397.869 420.639C397.051 419.82 395.628 419.812 394.81 420.635C394.403 421.05 394.178 421.602 394.178 422.189C394.178 422.776 394.403 423.331 394.81 423.742L398.943 427.916L394.64 432.274C394.225 432.685 394 433.232 394 433.815C394 434.406 394.229 434.954 394.632 435.361C395.039 435.772 395.577 436 396.158 436H396.162C396.734 436 397.28 435.772 397.687 435.365L401.998 431.004L406.309 435.361C407.119 436.184 408.55 436.188 409.368 435.361C409.771 434.95 410 434.402 410 433.815C410 433.232 409.771 432.681 409.368 432.278L405.057 427.916ZM97.8669 313.557C97.9113 313.617 97.9606 313.671 98 313.725C96.1561 314.553 94.2087 315.471 92.2021 316.443C92.1331 316.365 92.0592 316.293 92 316.209C94.0509 315.261 96.0033 314.373 97.8669 313.557Z" fill="#A99E8E" fill-opacity="0.1"/>
</svg>
