<svg width="20" height="226" viewBox="0 0 20 226" fill="none" xmlns="http://www.w3.org/2000/svg">
<path fill-rule="evenodd" clip-rule="evenodd" d="M18.5063 7.8082C18.0284 7.55051 17.6238 7.41311 17.4198 7.35296C16.8708 7.94617 16.0629 8.11124 16.0629 8.11124C16.0629 8.11124 16.7908 7.76362 17.0661 7.41849C17.3439 7.0701 17.399 6.64311 17.3993 6.26282C17.4005 5.2505 16.4955 4.69053 15.9447 4.69053C14.6235 4.69053 14.344 5.59831 14.3202 5.68325C14.5168 5.62964 15.4997 5.44862 15.4997 6.39483C15.4997 6.93385 14.7968 7.20846 14.3248 7.20846H13.1341H12.7446H11.8008V5.64078C11.8008 5.1719 12.0768 4.47319 12.6193 4.47319C13.5713 4.47319 13.3889 5.44996 13.3352 5.64559C13.4205 5.62195 14.3339 5.34389 14.3339 4.03083C14.3339 3.48336 13.7706 2.58384 12.7519 2.5848C12.3695 2.58518 11.94 2.63995 11.5894 2.91628C11.2422 3.18992 10.8923 3.91323 10.8923 3.91323C10.8923 3.91323 11.0586 3.11017 11.6554 2.56443C11.5949 2.36189 11.4566 1.9595 11.1972 1.48447C10.6916 0.558236 9.9999 0.000192164 9.9999 0C9.9999 0 9.30818 0.558236 8.80262 1.48447C8.54318 1.9595 8.40495 2.36189 8.34443 2.56443C8.94143 3.11017 9.1075 3.91323 9.1075 3.91323C9.1075 3.91323 8.75758 3.18992 8.41036 2.91628C8.06005 2.63995 7.63047 2.58518 7.24788 2.5848C6.22923 2.58384 5.66587 3.48336 5.66587 4.03083C5.66587 5.34389 6.57935 5.62195 6.6648 5.64559C6.61086 5.44996 6.42855 4.47319 7.3805 4.47319C7.92298 4.47319 8.19924 5.1719 8.19924 5.64078V7.20846H5.67496C5.20304 7.20846 4.5001 6.93385 4.5001 6.39483C4.5001 5.44862 5.48298 5.62964 5.6796 5.68325C5.65601 5.59831 5.37627 4.69053 4.05525 4.69053C3.50427 4.69053 2.5993 5.2505 2.60046 6.26282C2.60084 6.64311 2.65614 7.0701 2.93395 7.41849C3.20925 7.76362 3.93713 8.11124 3.93713 8.11124C3.93713 8.11124 3.12902 7.94617 2.57997 7.35296C2.376 7.41311 1.97137 7.55051 1.49346 7.8082C0.561812 8.3109 0 8.99827 0 8.99846C0 8.99846 0.561812 9.68583 1.49346 10.1885C1.97137 10.4464 2.376 10.5836 2.57997 10.6438C3.12902 10.0506 3.93713 9.88549 3.93713 9.88549C3.93713 9.88549 3.20925 10.2333 2.93395 10.5782C2.65614 10.9266 2.60084 11.3536 2.60046 11.7339C2.5993 12.7462 3.50427 13.3062 4.05525 13.3062C5.37627 13.3062 5.65601 12.3984 5.6796 12.3135C5.48298 12.3671 4.5001 12.5481 4.5001 11.6021C4.5001 11.0629 5.20304 10.7885 5.67496 10.7885H8.19924V12.3592C8.19924 12.8281 7.92298 13.527 7.3805 13.527C6.42855 13.527 6.61086 12.55 6.6648 12.3544C6.57935 12.378 5.66587 12.6561 5.66587 13.9692C5.66587 14.5166 6.22923 15.4164 7.24788 15.4152C7.63047 15.4148 8.06005 15.3599 8.41036 15.0837C8.75758 14.8101 9.1075 14.0866 9.1075 14.0866C9.1075 14.0866 8.94143 14.8898 8.34443 15.4354C8.40495 15.6381 8.54318 16.0405 8.80262 16.5155C9.30818 17.4416 9.9999 17.9998 9.9999 18C9.9999 18 10.6916 17.4416 11.1972 16.5155C11.4566 16.0405 11.5949 15.6381 11.6554 15.4354C11.0586 14.8898 10.8923 14.0866 10.8923 14.0866C10.8923 14.0866 11.2422 14.8101 11.5894 15.0837C11.94 15.3599 12.3695 15.4148 12.7519 15.4152C13.7706 15.4164 14.3339 14.5166 14.3339 13.9692C14.3339 12.6561 13.4205 12.378 13.3352 12.3544C13.3889 12.55 13.5713 13.527 12.6193 13.527C12.0768 13.527 11.8008 12.8281 11.8008 12.3592V10.7885H12.7446H14.3248C14.7968 10.7885 15.4997 11.0629 15.4997 11.6021C15.4997 12.5481 14.5168 12.3671 14.3202 12.3135C14.344 12.3984 14.6235 13.3062 15.9447 13.3062C16.4955 13.3062 17.4005 12.7462 17.3993 11.7339C17.399 11.3536 17.3439 10.9268 17.0661 10.5784C16.7908 10.2333 16.0629 9.88549 16.0629 9.88549C16.0629 9.88549 16.8708 10.0506 17.4198 10.644C17.6238 10.5836 18.0284 10.4464 18.5063 10.1885C19.4382 9.68583 19.9998 8.99846 20 8.99846C20 8.99846 19.4382 8.3109 18.5063 7.8082Z" fill="#8C827A"/>
<path fill-rule="evenodd" clip-rule="evenodd" d="M18.5063 59.8082C18.0284 59.5505 17.6238 59.4131 17.4198 59.353C16.8708 59.9462 16.0629 60.1112 16.0629 60.1112C16.0629 60.1112 16.7908 59.7636 17.0661 59.4185C17.3439 59.0701 17.399 58.6431 17.3993 58.2628C17.4005 57.2505 16.4955 56.6905 15.9447 56.6905C14.6235 56.6905 14.344 57.5983 14.3202 57.6832C14.5168 57.6296 15.4997 57.4486 15.4997 58.3948C15.4997 58.9339 14.7968 59.2085 14.3248 59.2085H13.1341H12.7446H11.8008V57.6408C11.8008 57.1719 12.0768 56.4732 12.6193 56.4732C13.5713 56.4732 13.3889 57.45 13.3352 57.6456C13.4205 57.6219 14.3339 57.3439 14.3339 56.0308C14.3339 55.4834 13.7706 54.5838 12.7519 54.5848C12.3695 54.5852 11.94 54.6399 11.5894 54.9163C11.2422 55.1899 10.8923 55.9132 10.8923 55.9132C10.8923 55.9132 11.0586 55.1102 11.6554 54.5644C11.5949 54.3619 11.4566 53.9595 11.1972 53.4845C10.6916 52.5582 9.9999 52.0002 9.9999 52C9.9999 52 9.30818 52.5582 8.80262 53.4845C8.54318 53.9595 8.40495 54.3619 8.34443 54.5644C8.94143 55.1102 9.1075 55.9132 9.1075 55.9132C9.1075 55.9132 8.75758 55.1899 8.41036 54.9163C8.06005 54.6399 7.63047 54.5852 7.24788 54.5848C6.22923 54.5838 5.66587 55.4834 5.66587 56.0308C5.66587 57.3439 6.57935 57.6219 6.6648 57.6456C6.61086 57.45 6.42855 56.4732 7.3805 56.4732C7.92298 56.4732 8.19924 57.1719 8.19924 57.6408V59.2085H5.67496C5.20304 59.2085 4.5001 58.9339 4.5001 58.3948C4.5001 57.4486 5.48298 57.6296 5.6796 57.6832C5.65601 57.5983 5.37627 56.6905 4.05525 56.6905C3.50427 56.6905 2.5993 57.2505 2.60046 58.2628C2.60084 58.6431 2.65614 59.0701 2.93395 59.4185C3.20925 59.7636 3.93713 60.1112 3.93713 60.1112C3.93713 60.1112 3.12902 59.9462 2.57997 59.353C2.376 59.4131 1.97137 59.5505 1.49346 59.8082C0.561812 60.3109 0 60.9983 0 60.9985C0 60.9985 0.561812 61.6858 1.49346 62.1885C1.97137 62.4464 2.376 62.5836 2.57997 62.6438C3.12902 62.0506 3.93713 61.8855 3.93713 61.8855C3.93713 61.8855 3.20925 62.2333 2.93395 62.5782C2.65614 62.9266 2.60084 63.3536 2.60046 63.7339C2.5993 64.7462 3.50427 65.3062 4.05525 65.3062C5.37627 65.3062 5.65601 64.3984 5.6796 64.3135C5.48298 64.3671 4.5001 64.5481 4.5001 63.6021C4.5001 63.0629 5.20304 62.7885 5.67496 62.7885H8.19924V64.3592C8.19924 64.8281 7.92298 65.527 7.3805 65.527C6.42855 65.527 6.61086 64.55 6.6648 64.3544C6.57935 64.378 5.66587 64.6561 5.66587 65.9692C5.66587 66.5166 6.22923 67.4164 7.24788 67.4152C7.63047 67.4148 8.06005 67.3599 8.41036 67.0837C8.75758 66.8101 9.1075 66.0866 9.1075 66.0866C9.1075 66.0866 8.94143 66.8898 8.34443 67.4354C8.40495 67.6381 8.54318 68.0405 8.80262 68.5155C9.30818 69.4416 9.9999 69.9998 9.9999 70C9.9999 70 10.6916 69.4416 11.1972 68.5155C11.4566 68.0405 11.5949 67.6381 11.6554 67.4354C11.0586 66.8898 10.8923 66.0866 10.8923 66.0866C10.8923 66.0866 11.2422 66.8101 11.5894 67.0837C11.94 67.3599 12.3695 67.4148 12.7519 67.4152C13.7706 67.4164 14.3339 66.5166 14.3339 65.9692C14.3339 64.6561 13.4205 64.378 13.3352 64.3544C13.3889 64.55 13.5713 65.527 12.6193 65.527C12.0768 65.527 11.8008 64.8281 11.8008 64.3592V62.7885H12.7446H14.3248C14.7968 62.7885 15.4997 63.0629 15.4997 63.6021C15.4997 64.5481 14.5168 64.3671 14.3202 64.3135C14.344 64.3984 14.6235 65.3062 15.9447 65.3062C16.4955 65.3062 17.4005 64.7462 17.3993 63.7339C17.399 63.3536 17.3439 62.9268 17.0661 62.5784C16.7908 62.2333 16.0629 61.8855 16.0629 61.8855C16.0629 61.8855 16.8708 62.0506 17.4198 62.644C17.6238 62.5836 18.0284 62.4464 18.5063 62.1885C19.4382 61.6858 19.9998 60.9985 20 60.9985C20 60.9985 19.4382 60.3109 18.5063 59.8082Z" fill="#8C827A"/>
<path fill-rule="evenodd" clip-rule="evenodd" d="M18.5063 111.808C18.0284 111.551 17.6238 111.413 17.4198 111.353C16.8708 111.946 16.0629 112.111 16.0629 112.111C16.0629 112.111 16.7908 111.764 17.0661 111.418C17.3439 111.07 17.399 110.643 17.3993 110.263C17.4005 109.25 16.4955 108.691 15.9447 108.691C14.6235 108.691 14.344 109.598 14.3202 109.683C14.5168 109.63 15.4997 109.449 15.4997 110.395C15.4997 110.934 14.7968 111.208 14.3248 111.208H13.1341H12.7446H11.8008V109.641C11.8008 109.172 12.0768 108.473 12.6193 108.473C13.5713 108.473 13.3889 109.45 13.3352 109.646C13.4205 109.622 14.3339 109.344 14.3339 108.031C14.3339 107.483 13.7706 106.584 12.7519 106.585C12.3695 106.585 11.94 106.64 11.5894 106.916C11.2422 107.19 10.8923 107.913 10.8923 107.913C10.8923 107.913 11.0586 107.11 11.6554 106.564C11.5949 106.362 11.4566 105.959 11.1972 105.484C10.6916 104.558 9.9999 104 9.9999 104C9.9999 104 9.30818 104.558 8.80262 105.484C8.54318 105.959 8.40495 106.362 8.34443 106.564C8.94143 107.11 9.1075 107.913 9.1075 107.913C9.1075 107.913 8.75758 107.19 8.41036 106.916C8.06005 106.64 7.63047 106.585 7.24788 106.585C6.22923 106.584 5.66587 107.483 5.66587 108.031C5.66587 109.344 6.57935 109.622 6.6648 109.646C6.61086 109.45 6.42855 108.473 7.3805 108.473C7.92298 108.473 8.19924 109.172 8.19924 109.641V111.208H5.67496C5.20304 111.208 4.5001 110.934 4.5001 110.395C4.5001 109.449 5.48298 109.63 5.6796 109.683C5.65601 109.598 5.37627 108.691 4.05525 108.691C3.50427 108.691 2.5993 109.25 2.60046 110.263C2.60084 110.643 2.65614 111.07 2.93395 111.418C3.20925 111.764 3.93713 112.111 3.93713 112.111C3.93713 112.111 3.12902 111.946 2.57997 111.353C2.376 111.413 1.97137 111.551 1.49346 111.808C0.561812 112.311 0 112.998 0 112.998C0 112.998 0.561812 113.686 1.49346 114.189C1.97137 114.446 2.376 114.584 2.57997 114.644C3.12902 114.051 3.93713 113.885 3.93713 113.885C3.93713 113.885 3.20925 114.233 2.93395 114.578C2.65614 114.927 2.60084 115.354 2.60046 115.734C2.5993 116.746 3.50427 117.306 4.05525 117.306C5.37627 117.306 5.65601 116.398 5.6796 116.313C5.48298 116.367 4.5001 116.548 4.5001 115.602C4.5001 115.063 5.20304 114.788 5.67496 114.788H8.19924V116.359C8.19924 116.828 7.92298 117.527 7.3805 117.527C6.42855 117.527 6.61086 116.55 6.6648 116.354C6.57935 116.378 5.66587 116.656 5.66587 117.969C5.66587 118.517 6.22923 119.416 7.24788 119.415C7.63047 119.415 8.06005 119.36 8.41036 119.084C8.75758 118.81 9.1075 118.087 9.1075 118.087C9.1075 118.087 8.94143 118.89 8.34443 119.435C8.40495 119.638 8.54318 120.041 8.80262 120.516C9.30818 121.442 9.9999 122 9.9999 122C9.9999 122 10.6916 121.442 11.1972 120.516C11.4566 120.041 11.5949 119.638 11.6554 119.435C11.0586 118.89 10.8923 118.087 10.8923 118.087C10.8923 118.087 11.2422 118.81 11.5894 119.084C11.94 119.36 12.3695 119.415 12.7519 119.415C13.7706 119.416 14.3339 118.517 14.3339 117.969C14.3339 116.656 13.4205 116.378 13.3352 116.354C13.3889 116.55 13.5713 117.527 12.6193 117.527C12.0768 117.527 11.8008 116.828 11.8008 116.359V114.788H12.7446H14.3248C14.7968 114.788 15.4997 115.063 15.4997 115.602C15.4997 116.548 14.5168 116.367 14.3202 116.313C14.344 116.398 14.6235 117.306 15.9447 117.306C16.4955 117.306 17.4005 116.746 17.3993 115.734C17.399 115.354 17.3439 114.927 17.0661 114.578C16.7908 114.233 16.0629 113.885 16.0629 113.885C16.0629 113.885 16.8708 114.051 17.4198 114.644C17.6238 114.584 18.0284 114.446 18.5063 114.189C19.4382 113.686 19.9998 112.998 20 112.998C20 112.998 19.4382 112.311 18.5063 111.808Z" fill="#8C827A"/>
<path fill-rule="evenodd" clip-rule="evenodd" d="M18.5063 163.808C18.0284 163.551 17.6238 163.413 17.4198 163.353C16.8708 163.946 16.0629 164.111 16.0629 164.111C16.0629 164.111 16.7908 163.764 17.0661 163.418C17.3439 163.07 17.399 162.643 17.3993 162.263C17.4005 161.25 16.4955 160.691 15.9447 160.691C14.6235 160.691 14.344 161.598 14.3202 161.683C14.5168 161.63 15.4997 161.449 15.4997 162.395C15.4997 162.934 14.7968 163.208 14.3248 163.208H13.1341H12.7446H11.8008V161.641C11.8008 161.172 12.0768 160.473 12.6193 160.473C13.5713 160.473 13.3889 161.45 13.3352 161.646C13.4205 161.622 14.3339 161.344 14.3339 160.031C14.3339 159.483 13.7706 158.584 12.7519 158.585C12.3695 158.585 11.94 158.64 11.5894 158.916C11.2422 159.19 10.8923 159.913 10.8923 159.913C10.8923 159.913 11.0586 159.11 11.6554 158.564C11.5949 158.362 11.4566 157.959 11.1972 157.484C10.6916 156.558 9.9999 156 9.9999 156C9.9999 156 9.30818 156.558 8.80262 157.484C8.54318 157.959 8.40495 158.362 8.34443 158.564C8.94143 159.11 9.1075 159.913 9.1075 159.913C9.1075 159.913 8.75758 159.19 8.41036 158.916C8.06005 158.64 7.63047 158.585 7.24788 158.585C6.22923 158.584 5.66587 159.483 5.66587 160.031C5.66587 161.344 6.57935 161.622 6.6648 161.646C6.61086 161.45 6.42855 160.473 7.3805 160.473C7.92298 160.473 8.19924 161.172 8.19924 161.641V163.208H5.67496C5.20304 163.208 4.5001 162.934 4.5001 162.395C4.5001 161.449 5.48298 161.63 5.6796 161.683C5.65601 161.598 5.37627 160.691 4.05525 160.691C3.50427 160.691 2.5993 161.25 2.60046 162.263C2.60084 162.643 2.65614 163.07 2.93395 163.418C3.20925 163.764 3.93713 164.111 3.93713 164.111C3.93713 164.111 3.12902 163.946 2.57997 163.353C2.376 163.413 1.97137 163.551 1.49346 163.808C0.561812 164.311 0 164.998 0 164.998C0 164.998 0.561812 165.686 1.49346 166.189C1.97137 166.446 2.376 166.584 2.57997 166.644C3.12902 166.051 3.93713 165.885 3.93713 165.885C3.93713 165.885 3.20925 166.233 2.93395 166.578C2.65614 166.927 2.60084 167.354 2.60046 167.734C2.5993 168.746 3.50427 169.306 4.05525 169.306C5.37627 169.306 5.65601 168.398 5.6796 168.313C5.48298 168.367 4.5001 168.548 4.5001 167.602C4.5001 167.063 5.20304 166.788 5.67496 166.788H8.19924V168.359C8.19924 168.828 7.92298 169.527 7.3805 169.527C6.42855 169.527 6.61086 168.55 6.6648 168.354C6.57935 168.378 5.66587 168.656 5.66587 169.969C5.66587 170.517 6.22923 171.416 7.24788 171.415C7.63047 171.415 8.06005 171.36 8.41036 171.084C8.75758 170.81 9.1075 170.087 9.1075 170.087C9.1075 170.087 8.94143 170.89 8.34443 171.435C8.40495 171.638 8.54318 172.041 8.80262 172.516C9.30818 173.442 9.9999 174 9.9999 174C9.9999 174 10.6916 173.442 11.1972 172.516C11.4566 172.041 11.5949 171.638 11.6554 171.435C11.0586 170.89 10.8923 170.087 10.8923 170.087C10.8923 170.087 11.2422 170.81 11.5894 171.084C11.94 171.36 12.3695 171.415 12.7519 171.415C13.7706 171.416 14.3339 170.517 14.3339 169.969C14.3339 168.656 13.4205 168.378 13.3352 168.354C13.3889 168.55 13.5713 169.527 12.6193 169.527C12.0768 169.527 11.8008 168.828 11.8008 168.359V166.788H12.7446H14.3248C14.7968 166.788 15.4997 167.063 15.4997 167.602C15.4997 168.548 14.5168 168.367 14.3202 168.313C14.344 168.398 14.6235 169.306 15.9447 169.306C16.4955 169.306 17.4005 168.746 17.3993 167.734C17.399 167.354 17.3439 166.927 17.0661 166.578C16.7908 166.233 16.0629 165.885 16.0629 165.885C16.0629 165.885 16.8708 166.051 17.4198 166.644C17.6238 166.584 18.0284 166.446 18.5063 166.189C19.4382 165.686 19.9998 164.998 20 164.998C20 164.998 19.4382 164.311 18.5063 163.808Z" fill="#8C827A"/>
<path fill-rule="evenodd" clip-rule="evenodd" d="M18.5063 215.808C18.0284 215.551 17.6238 215.413 17.4198 215.353C16.8708 215.946 16.0629 216.111 16.0629 216.111C16.0629 216.111 16.7908 215.764 17.0661 215.418C17.3439 215.07 17.399 214.643 17.3993 214.263C17.4005 213.25 16.4955 212.691 15.9447 212.691C14.6235 212.691 14.344 213.598 14.3202 213.683C14.5168 213.63 15.4997 213.449 15.4997 214.395C15.4997 214.934 14.7968 215.208 14.3248 215.208H13.1341H12.7446H11.8008V213.641C11.8008 213.172 12.0768 212.473 12.6193 212.473C13.5713 212.473 13.3889 213.45 13.3352 213.646C13.4205 213.622 14.3339 213.344 14.3339 212.031C14.3339 211.483 13.7706 210.584 12.7519 210.585C12.3695 210.585 11.94 210.64 11.5894 210.916C11.2422 211.19 10.8923 211.913 10.8923 211.913C10.8923 211.913 11.0586 211.11 11.6554 210.564C11.5949 210.362 11.4566 209.959 11.1972 209.484C10.6916 208.558 9.9999 208 9.9999 208C9.9999 208 9.30818 208.558 8.80262 209.484C8.54318 209.959 8.40495 210.362 8.34443 210.564C8.94143 211.11 9.1075 211.913 9.1075 211.913C9.1075 211.913 8.75758 211.19 8.41036 210.916C8.06005 210.64 7.63047 210.585 7.24788 210.585C6.22923 210.584 5.66587 211.483 5.66587 212.031C5.66587 213.344 6.57935 213.622 6.6648 213.646C6.61086 213.45 6.42855 212.473 7.3805 212.473C7.92298 212.473 8.19924 213.172 8.19924 213.641V215.208H5.67496C5.20304 215.208 4.5001 214.934 4.5001 214.395C4.5001 213.449 5.48298 213.63 5.6796 213.683C5.65601 213.598 5.37627 212.691 4.05525 212.691C3.50427 212.691 2.5993 213.25 2.60046 214.263C2.60084 214.643 2.65614 215.07 2.93395 215.418C3.20925 215.764 3.93713 216.111 3.93713 216.111C3.93713 216.111 3.12902 215.946 2.57997 215.353C2.376 215.413 1.97137 215.551 1.49346 215.808C0.561812 216.311 0 216.998 0 216.998C0 216.998 0.561812 217.686 1.49346 218.189C1.97137 218.446 2.376 218.584 2.57997 218.644C3.12902 218.051 3.93713 217.885 3.93713 217.885C3.93713 217.885 3.20925 218.233 2.93395 218.578C2.65614 218.927 2.60084 219.354 2.60046 219.734C2.5993 220.746 3.50427 221.306 4.05525 221.306C5.37627 221.306 5.65601 220.398 5.6796 220.313C5.48298 220.367 4.5001 220.548 4.5001 219.602C4.5001 219.063 5.20304 218.788 5.67496 218.788H8.19924V220.359C8.19924 220.828 7.92298 221.527 7.3805 221.527C6.42855 221.527 6.61086 220.55 6.6648 220.354C6.57935 220.378 5.66587 220.656 5.66587 221.969C5.66587 222.517 6.22923 223.416 7.24788 223.415C7.63047 223.415 8.06005 223.36 8.41036 223.084C8.75758 222.81 9.1075 222.087 9.1075 222.087C9.1075 222.087 8.94143 222.89 8.34443 223.435C8.40495 223.638 8.54318 224.041 8.80262 224.516C9.30818 225.442 9.9999 226 9.9999 226C9.9999 226 10.6916 225.442 11.1972 224.516C11.4566 224.041 11.5949 223.638 11.6554 223.435C11.0586 222.89 10.8923 222.087 10.8923 222.087C10.8923 222.087 11.2422 222.81 11.5894 223.084C11.94 223.36 12.3695 223.415 12.7519 223.415C13.7706 223.416 14.3339 222.517 14.3339 221.969C14.3339 220.656 13.4205 220.378 13.3352 220.354C13.3889 220.55 13.5713 221.527 12.6193 221.527C12.0768 221.527 11.8008 220.828 11.8008 220.359V218.788H12.7446H14.3248C14.7968 218.788 15.4997 219.063 15.4997 219.602C15.4997 220.548 14.5168 220.367 14.3202 220.313C14.344 220.398 14.6235 221.306 15.9447 221.306C16.4955 221.306 17.4005 220.746 17.3993 219.734C17.399 219.354 17.3439 218.927 17.0661 218.578C16.7908 218.233 16.0629 217.885 16.0629 217.885C16.0629 217.885 16.8708 218.051 17.4198 218.644C17.6238 218.584 18.0284 218.446 18.5063 218.189C19.4382 217.686 19.9998 216.998 20 216.998C20 216.998 19.4382 216.311 18.5063 215.808Z" fill="#8C827A"/>
</svg>
