<svg width="226" height="56" viewBox="0 0 226 56" fill="none" xmlns="http://www.w3.org/2000/svg">
<mask id="mask0_2131_2568" style="mask-type:luminance" maskUnits="userSpaceOnUse" x="0" y="3" width="226" height="35">
<path fill-rule="evenodd" clip-rule="evenodd" d="M0.0287476 3.06006H225.806V37.3881H0.0287476V3.06006Z" fill="white"/>
</mask>
<g mask="url(#mask0_2131_2568)">
<path fill-rule="evenodd" clip-rule="evenodd" d="M218.534 37.3881H7.27222C3.26168 37.3881 0 34.0995 0 30.0559V10.3912C0 6.35006 3.26168 3.06006 7.27222 3.06006H218.534C222.543 3.06006 225.806 6.35006 225.806 10.3912V30.0559C225.806 34.0995 222.543 37.3881 218.534 37.3881ZM7.27222 3.60027C3.55711 3.60027 0.535792 6.64792 0.535792 10.3912V30.0559C0.535792 33.8016 3.55711 36.8479 7.27222 36.8479H218.534C222.249 36.8479 225.27 33.8016 225.27 30.0559V10.3912C225.27 6.64792 222.249 3.60027 218.534 3.60027H7.27222Z" fill="#4D443D"/>
</g>
<path fill-rule="evenodd" clip-rule="evenodd" d="M51.5692 26.4668H49.935L47.4136 17.7168L44.9089 26.4668H43.2742L40.0394 13.9817H42.0217L44.1792 22.9064L46.6657 13.9817H48.1778L50.6657 22.9064L52.8223 13.9817H54.805L51.5692 26.4668Z" fill="#4D443D"/>
<path fill-rule="evenodd" clip-rule="evenodd" d="M56.6116 26.4673H58.49V13.9822H56.6116V26.4673Z" fill="#4D443D"/>
<path fill-rule="evenodd" clip-rule="evenodd" d="M69.3246 26.4668L63.6032 17.682V26.4668H61.7239V13.9817H63.4466L69.1685 22.7496V13.9817H71.0469V26.4668H69.3246Z" fill="#4D443D"/>
<path fill-rule="evenodd" clip-rule="evenodd" d="M74.2803 26.4668V13.9817H82.1936V15.6834H76.1582V19.3311H81.3069V21.014H76.1582V24.766H82.1936V26.4668H74.2803Z" fill="#4D443D"/>
<path fill-rule="evenodd" clip-rule="evenodd" d="M84.9602 16.9255C84.6514 16.9255 84.4005 16.673 84.4005 16.3766C84.4005 16.0652 84.6514 15.8132 84.9459 15.8132C85.2542 15.8132 85.5047 16.0652 85.5047 16.3612C85.5047 16.673 85.2542 16.9255 84.9602 16.9255ZM84.5777 26.4663H85.328V19.3142H84.5777V26.4663Z" fill="#4D443D"/>
<path fill-rule="evenodd" clip-rule="evenodd" d="M92.8922 26.4667V22.0292C92.8922 20.6505 92.2008 19.893 90.9353 19.893C89.6688 19.893 88.9339 20.6799 88.9339 22.0292V26.4667H88.1821V19.3142H88.9339V20.1605C89.463 19.5372 90.1687 19.2258 91.0229 19.2258C91.8173 19.2258 92.4508 19.4629 92.9061 19.9085C93.3773 20.368 93.6425 21.0511 93.6425 21.896V26.4667H92.8922Z" fill="#4D443D"/>
<path fill-rule="evenodd" clip-rule="evenodd" d="M105.642 26.4668V18.1194L102.789 24.2051H101.398L98.4762 18.1194V26.4668H96.5978V13.9817H98.4762L102.094 21.7493L105.642 13.9817H107.52V26.4668H105.642Z" fill="#4D443D"/>
<path fill-rule="evenodd" clip-rule="evenodd" d="M118.005 25.2392C117.153 26.0994 116.058 26.5721 114.737 26.5721C113.414 26.5721 112.337 26.0994 111.484 25.2392C110.266 24.011 110.285 22.6274 110.285 20.2252C110.285 17.823 110.266 16.437 111.484 15.2099C112.337 14.3501 113.414 13.8774 114.737 13.8774C116.058 13.8774 117.153 14.3501 118.005 15.2099C119.223 16.437 119.189 17.823 119.189 20.2252C119.189 22.6274 119.223 24.011 118.005 25.2392ZM116.579 16.3496C116.144 15.8756 115.466 15.5777 114.737 15.5777C114.006 15.5777 113.328 15.8756 112.893 16.3496C112.284 17.0154 112.163 17.7168 112.163 20.2252C112.163 22.7322 112.284 23.4327 112.893 24.0999C113.328 24.5725 114.006 24.8713 114.737 24.8713C115.466 24.8713 116.144 24.5725 116.579 24.0999C117.189 23.4327 117.31 22.7322 117.31 20.2252C117.31 17.7168 117.189 17.0154 116.579 16.3496Z" fill="#4D443D"/>
<path fill-rule="evenodd" clip-rule="evenodd" d="M129.518 25.2918C128.736 26.0811 127.606 26.4663 126.319 26.4663H121.971V13.9827H126.319C127.606 13.9827 128.736 14.3679 129.518 15.1567C130.857 16.507 130.771 18.3309 130.771 20.1359C130.771 21.9424 130.857 23.942 129.518 25.2918ZM128.231 16.5254C127.709 15.946 127.014 15.6829 126.127 15.6829H123.85V24.7656H126.127C127.014 24.7656 127.709 24.5029 128.231 23.9231C128.874 23.2053 128.892 21.855 128.892 20.1359C128.892 18.4183 128.874 17.2437 128.231 16.5254Z" fill="#4D443D"/>
<path fill-rule="evenodd" clip-rule="evenodd" d="M133.553 26.4668V13.9817H141.465V15.6834H135.43V19.3311H140.579V21.014H135.43V24.766H141.465V26.4668H133.553Z" fill="#4D443D"/>
<path fill-rule="evenodd" clip-rule="evenodd" d="M150.874 26.4668L148.265 21.2062H145.917V26.4668H144.039V13.9817H148.838C151.188 13.9817 152.682 15.5077 152.682 17.6294C152.682 19.418 151.604 20.5578 150.212 20.9431L153.065 26.4668H150.874ZM148.7 15.6834H145.917V19.5928H148.7C149.951 19.5928 150.803 18.8735 150.803 17.6468C150.803 16.4191 149.951 15.6834 148.7 15.6834Z" fill="#4D443D"/>
<path fill-rule="evenodd" clip-rule="evenodd" d="M162.542 26.4668L161.69 23.9598H156.804L155.952 26.4668H153.952L158.492 13.9817H160.004L164.543 26.4668H162.542ZM159.291 16.8053L157.36 22.3455H161.17L159.291 16.8053Z" fill="#4D443D"/>
<path fill-rule="evenodd" clip-rule="evenodd" d="M169.444 15.6834V26.4668H167.567V15.6834H164.157V13.9817H172.854V15.6834H169.444Z" fill="#4D443D"/>
<path fill-rule="evenodd" clip-rule="evenodd" d="M174.993 26.4673H176.871V13.9822H174.993V26.4673Z" fill="#4D443D"/>
<path fill-rule="evenodd" clip-rule="evenodd" d="M187.377 25.2392C186.523 26.0994 185.429 26.5721 184.107 26.5721C182.785 26.5721 181.706 26.0994 180.854 25.2392C179.638 24.011 179.655 22.6274 179.655 20.2252C179.655 17.823 179.638 16.437 180.854 15.2099C181.706 14.3501 182.785 13.8774 184.107 13.8774C185.429 13.8774 186.523 14.3501 187.377 15.2099C188.595 16.437 188.559 17.823 188.559 20.2252C188.559 22.6274 188.595 24.011 187.377 25.2392ZM185.95 16.3496C185.515 15.8756 184.837 15.5777 184.107 15.5777C183.377 15.5777 182.698 15.8756 182.264 16.3496C181.655 17.0154 181.534 17.7168 181.534 20.2252C181.534 22.7322 181.655 23.4327 182.264 24.0999C182.698 24.5725 183.377 24.8713 184.107 24.8713C184.837 24.8713 185.515 24.5725 185.95 24.0999C186.558 23.4327 186.681 22.7322 186.681 20.2252C186.681 17.7168 186.558 17.0154 185.95 16.3496Z" fill="#4D443D"/>
<path fill-rule="evenodd" clip-rule="evenodd" d="M198.939 26.4668L193.217 17.682V26.4668H191.339V13.9817H193.061L198.782 22.7496V13.9817H200.662V26.4668H198.939Z" fill="#4D443D"/>
<path fill-rule="evenodd" clip-rule="evenodd" d="M20.2246 6.86576C20.2246 10.4831 17.3168 13.4144 13.7295 13.4144C10.1418 13.4144 7.23444 10.4831 7.23444 6.86576C7.23444 3.24893 10.1418 0.317139 13.7295 0.317139C17.3168 0.317139 20.2246 3.24893 20.2246 6.86576Z" fill="#4D443D"/>
<path fill-rule="evenodd" clip-rule="evenodd" d="M35.8699 6.86576C35.8699 10.4831 32.9625 13.4144 29.3748 13.4144C25.7899 13.4144 22.8821 10.4831 22.8821 6.86576C22.8821 3.24893 25.7899 0.317139 29.3748 0.317139C32.9625 0.317139 35.8699 3.24893 35.8699 6.86576Z" fill="#4D443D"/>
<path fill-rule="evenodd" clip-rule="evenodd" d="M28.0475 20.2608C28.0475 23.8771 25.1396 26.8084 21.5524 26.8084C17.9646 26.8084 15.0573 23.8771 15.0573 20.2608C15.0573 16.644 17.9646 13.7122 21.5524 13.7122C25.1396 13.7122 28.0475 16.644 28.0475 20.2608Z" fill="#4D443D"/>
<path fill-rule="evenodd" clip-rule="evenodd" d="M68.9454 55.9995H69.4816V46.8035H68.9454V55.9995Z" fill="#4D443D"/>
<path fill-rule="evenodd" clip-rule="evenodd" d="M152.554 55.9995H153.089V46.8035H152.554V55.9995Z" fill="#4D443D"/>
<path fill-rule="evenodd" clip-rule="evenodd" d="M25.6309 53.9289V54.7244H20.3975V47.8374H25.5634V48.6325H21.3402V50.7957H25.4001V51.5913H21.3402V53.9289H25.6309Z" fill="#4D443D"/>
<path fill-rule="evenodd" clip-rule="evenodd" d="M20.4573 54.6641H25.5711V53.9892H21.3403C21.3072 53.9892 21.2804 53.9627 21.2804 53.9289V51.5914C21.2804 51.5581 21.3072 51.531 21.3403 51.531H25.3403V50.8561H21.3403C21.3072 50.8561 21.2804 50.8291 21.2804 50.7958V48.6326C21.2804 48.5992 21.3072 48.5722 21.3403 48.5722H25.5036V47.8983H20.4573V54.6641ZM25.6309 54.7848H20.3975C20.3645 54.7848 20.3376 54.7578 20.3376 54.7245V47.8379C20.3376 47.8046 20.3645 47.7776 20.3975 47.7776H25.5634C25.5965 47.7776 25.6233 47.8046 25.6233 47.8379V48.6326C25.6233 48.6663 25.5965 48.6929 25.5634 48.6929H21.4001V50.7355H25.4001C25.4332 50.7355 25.46 50.7625 25.46 50.7958V51.5914C25.46 51.6252 25.4332 51.6517 25.4001 51.6517H21.4001V53.8686H25.6309C25.6635 53.8686 25.6908 53.8956 25.6908 53.9289V54.7245C25.6908 54.7578 25.6635 54.7848 25.6309 54.7848Z" fill="#4D443D"/>
<path fill-rule="evenodd" clip-rule="evenodd" d="M28.6335 47.8374H29.5763V53.9095H33.5974V54.7244H28.6335V47.8374Z" fill="#4D443D"/>
<path fill-rule="evenodd" clip-rule="evenodd" d="M28.6934 54.6641H33.5375V53.9699H29.5763C29.5433 53.9699 29.5165 53.9429 29.5165 53.9096V47.8983H28.6934V54.6641ZM33.5974 54.7848H28.6335C28.6005 54.7848 28.5737 54.7578 28.5737 54.7245V47.8379C28.5737 47.8046 28.6005 47.7776 28.6335 47.7776H29.5763C29.6093 47.7776 29.6362 47.8046 29.6362 47.8379V53.8492H33.5974C33.6304 53.8492 33.6572 53.8763 33.6572 53.9096V54.7245C33.6572 54.7578 33.6304 54.7848 33.5974 54.7848Z" fill="#4D443D"/>
<path fill-rule="evenodd" clip-rule="evenodd" d="M41.3906 53.9289V54.7244H36.1572V47.8374H41.3236V48.6325H37.1004V50.7957H41.1598V51.5913H37.1004V53.9289H41.3906Z" fill="#4D443D"/>
<path fill-rule="evenodd" clip-rule="evenodd" d="M36.217 54.6641H41.3307V53.9892H37.1004C37.0674 53.9892 37.0406 53.9627 37.0406 53.9289V51.5914C37.0406 51.5581 37.0674 51.531 37.1004 51.531H41.0999V50.8561H37.1004C37.0674 50.8561 37.0406 50.8291 37.0406 50.7958V48.6326C37.0406 48.5992 37.0674 48.5722 37.1004 48.5722H41.2637V47.8983H36.217V54.6641ZM41.3906 54.7848H36.1571C36.1246 54.7848 36.0973 54.7578 36.0973 54.7245V47.8379C36.0973 47.8046 36.1246 47.7776 36.1571 47.7776H41.3235C41.3566 47.7776 41.3834 47.8046 41.3834 47.8379V48.6326C41.3834 48.6663 41.3566 48.6929 41.3235 48.6929H37.1603V50.7355H41.1598C41.1928 50.7355 41.2196 50.7625 41.2196 50.7958V51.5914C41.2196 51.6252 41.1928 51.6517 41.1598 51.6517H37.1603V53.8686H41.3906C41.4236 53.8686 41.4504 53.8956 41.4504 53.9289V54.7245C41.4504 54.7578 41.4236 54.7848 41.3906 54.7848Z" fill="#4D443D"/>
<path fill-rule="evenodd" clip-rule="evenodd" d="M43.6142 51.2809C43.6142 49.1278 44.9994 47.6438 47.3082 47.6438C49.2805 47.6438 50.2711 48.7691 50.5211 49.7974L49.5692 49.9519C49.3767 49.205 48.6451 48.4389 47.2604 48.4389C45.5864 48.4389 44.5761 49.5835 44.5761 51.2906C44.5761 52.9199 45.5481 54.1229 47.2699 54.1229C49.0593 54.1229 49.7521 52.9006 49.7521 51.9988V51.9114H47.2503V51.1158H50.5982V54.7244H49.8962L49.7904 53.5605C49.3475 54.385 48.3856 54.918 47.1354 54.918C44.9707 54.918 43.6142 53.4152 43.6142 51.2809Z" fill="#4D443D"/>
<path fill-rule="evenodd" clip-rule="evenodd" d="M47.3082 47.7042C45.1004 47.7042 43.674 49.108 43.674 51.2809C43.674 53.4205 45.065 54.8582 47.1349 54.8582C48.3185 54.8582 49.2915 54.3624 49.7377 53.532C49.7502 53.5089 49.7775 53.4968 49.8019 53.5016C49.8282 53.5069 49.8474 53.5287 49.8498 53.5552L49.9508 54.6641H50.5383V51.1762H47.3101V51.8511H49.7521C49.7846 51.8511 49.8119 51.8781 49.8119 51.9114V51.9988C49.8119 52.8769 49.1349 54.1838 47.2699 54.1838C45.5969 54.1838 44.5163 53.0483 44.5163 51.2911C44.5163 49.5218 45.5931 48.3786 47.2603 48.3786C48.6752 48.3786 49.3987 49.1467 49.6128 49.8838L50.4468 49.7482C50.1749 48.7484 49.2158 47.7042 47.3082 47.7042ZM47.1349 54.9789C44.9932 54.9789 43.5543 53.4929 43.5543 51.2809C43.5543 49.0352 45.0276 47.5835 47.3082 47.5835C48.5704 47.5835 50.1845 48.1594 50.5795 49.7829C50.5833 49.7994 50.5804 49.8167 50.5709 49.8307C50.5618 49.8443 50.5474 49.8544 50.5306 49.8568L49.5788 50.0118C49.5467 50.0156 49.5189 49.9978 49.5112 49.9674C49.3283 49.2577 48.6408 48.4993 47.2603 48.4993C45.6415 48.4993 44.636 49.5691 44.636 51.2911C44.636 52.9749 45.6697 54.0631 47.2699 54.0631C48.2433 54.0631 49.6922 53.5132 49.6922 51.9988V51.9718H47.2503C47.2177 51.9718 47.1904 51.9452 47.1904 51.9114V51.1158C47.1904 51.0825 47.2177 51.0555 47.2503 51.0555H50.5981C50.6312 51.0555 50.658 51.0825 50.658 51.1158V54.7245C50.658 54.7578 50.6312 54.7848 50.5981 54.7848H49.8962C49.8651 54.7848 49.8392 54.7612 49.8364 54.7298L49.7473 53.7507C49.246 54.5236 48.2855 54.9789 47.1349 54.9789Z" fill="#4D443D"/>
<path fill-rule="evenodd" clip-rule="evenodd" d="M53.5817 54.7244H54.5244V47.8374H53.5817V54.7244Z" fill="#4D443D"/>
<path fill-rule="evenodd" clip-rule="evenodd" d="M53.6415 54.6641H54.4646V47.8983H53.6415V54.6641ZM54.5244 54.7848H53.5816C53.5486 54.7848 53.5218 54.7578 53.5218 54.7245V47.8379C53.5218 47.8046 53.5486 47.7776 53.5816 47.7776H54.5244C54.5575 47.7776 54.5843 47.8046 54.5843 47.8379V54.7245C54.5843 54.7578 54.5575 54.7848 54.5244 54.7848Z" fill="#4D443D"/>
<path fill-rule="evenodd" clip-rule="evenodd" d="M58.806 51.1066H61.0569C62.1826 51.1066 62.5384 50.5046 62.5384 49.8553C62.5384 49.2051 62.1826 48.6325 61.0665 48.6325H58.806V51.1066ZM60.8649 51.8921H58.806V54.7244H57.8632V47.8374H61.1919C63.0196 47.8374 63.5295 48.885 63.5295 49.8645C63.5295 50.6311 63.1158 51.5136 61.9035 51.7661L63.7699 54.7244H62.6633L60.8649 51.8921Z" fill="#4D443D"/>
<path fill-rule="evenodd" clip-rule="evenodd" d="M58.8658 51.0464H61.0569C62.2937 51.0464 62.4785 50.3005 62.4785 49.8559C62.4785 49.3253 62.2333 48.6929 61.0665 48.6929H58.8658V51.0464ZM61.0569 51.167H58.806C58.7729 51.167 58.7461 51.14 58.7461 51.1067V48.6326C58.7461 48.5992 58.7729 48.5722 58.806 48.5722H61.0665C62.3995 48.5722 62.5982 49.3765 62.5982 49.8559C62.5982 50.3454 62.398 51.167 61.0569 51.167ZM62.6963 54.6641H63.6607L61.8532 51.7985C61.8426 51.7816 61.8407 51.7608 61.8484 51.7425C61.856 51.7241 61.8723 51.7106 61.8915 51.7072C63.3557 51.4021 63.4696 50.2203 63.4696 49.865C63.4696 49.1308 63.1737 47.8983 61.1919 47.8983H57.923V54.6641H58.7461V51.8921C58.7461 51.8588 58.7729 51.8318 58.806 51.8318H60.8649C60.885 51.8318 60.9041 51.8424 60.9152 51.8598L62.6963 54.6641ZM63.7698 54.7848H62.6633C62.6432 54.7848 62.624 54.7742 62.613 54.7568L60.8318 51.9525H58.8658V54.7245C58.8658 54.7578 58.839 54.7848 58.806 54.7848H57.8632C57.8302 54.7848 57.8033 54.7578 57.8033 54.7245V47.8379C57.8033 47.8046 57.8302 47.7776 57.8632 47.7776H61.1919C61.9125 47.7776 63.5893 47.9808 63.5893 49.865C63.5893 50.2363 63.473 51.4557 62.0001 51.8067L63.8201 54.6917C63.8321 54.7105 63.8326 54.7341 63.822 54.7535C63.8115 54.7728 63.7914 54.7848 63.7698 54.7848Z" fill="#4D443D"/>
<path fill-rule="evenodd" clip-rule="evenodd" d="M74.7395 51.2712C74.7395 49.1177 76.1151 47.6438 78.4144 47.6438C80.2899 47.6438 81.3964 48.604 81.6852 50.1368L80.7036 50.2333C80.4824 49.1278 79.6646 48.449 78.366 48.449C76.7113 48.449 75.7302 49.5541 75.7302 51.2616C75.7302 52.9102 76.7208 54.1036 78.3948 54.1036C79.6263 54.1036 80.4537 53.4823 80.752 52.4062L81.6852 52.5708C81.2811 53.9776 80.2229 54.918 78.3756 54.918C76.0088 54.918 74.7395 53.3664 74.7395 51.2712Z" fill="#4D443D"/>
<path fill-rule="evenodd" clip-rule="evenodd" d="M78.4144 47.7042C76.2181 47.7042 74.7993 49.1042 74.7993 51.2713C74.7993 53.4838 76.1697 54.8582 78.3756 54.8582C80.0462 54.8582 81.1623 54.0838 81.6085 52.6182L80.7946 52.4748C80.4714 53.5644 79.6215 54.164 78.3947 54.164C76.7395 54.164 75.6703 53.0247 75.6703 51.2616C75.6703 49.4894 76.7031 48.3887 78.366 48.3887C79.6358 48.3887 80.5025 49.0361 80.751 50.1677L81.6133 50.0827C81.2978 48.548 80.1644 47.7042 78.4144 47.7042ZM78.3756 54.9789C76.096 54.9789 74.6796 53.5586 74.6796 51.2713C74.6796 49.0313 76.1458 47.5835 78.4144 47.5835C80.2525 47.5835 81.4352 48.4863 81.7436 50.1252C81.7469 50.1416 81.7431 50.1595 81.733 50.173C81.723 50.1865 81.7077 50.1952 81.6909 50.1967L80.7093 50.2932C80.6758 50.3005 80.6509 50.2758 80.6452 50.2449C80.4244 49.1418 79.5937 48.5094 78.366 48.5094C76.7768 48.5094 75.79 49.5638 75.79 51.2616C75.79 52.9513 76.8123 54.0433 78.3947 54.0433C79.5827 54.0433 80.3991 53.4563 80.694 52.3903C80.7021 52.3599 80.7309 52.3416 80.762 52.3469L81.6952 52.5115C81.7124 52.5144 81.7268 52.524 81.7359 52.5385C81.745 52.5535 81.7474 52.5714 81.7426 52.5878C81.4295 53.6788 80.5911 54.9789 78.3756 54.9789Z" fill="#4D443D"/>
<path fill-rule="evenodd" clip-rule="evenodd" d="M90.2291 51.2809C90.2291 49.5444 89.1805 48.4389 87.5257 48.4389C85.8709 48.4389 84.8228 49.5444 84.8228 51.2809C84.8228 52.9976 85.8709 54.1229 87.5257 54.1229C89.1805 54.1229 90.2291 53.0072 90.2291 51.2809ZM83.8317 51.2809C83.8317 49.0501 85.3131 47.6438 87.5257 47.6438C89.7479 47.6438 91.2293 49.0501 91.2293 51.2809C91.2293 53.5021 89.7479 54.918 87.5257 54.918C85.3131 54.918 83.8317 53.4823 83.8317 51.2809Z" fill="#4D443D"/>
<path fill-rule="evenodd" clip-rule="evenodd" d="M87.5257 48.4993C85.8953 48.4993 84.8826 49.5652 84.8826 51.2809C84.8826 52.9711 85.9202 54.0631 87.5257 54.0631C89.1316 54.0631 90.1692 52.9711 90.1692 51.2809C90.1692 49.5652 89.156 48.4993 87.5257 48.4993ZM87.5257 54.1838C85.8474 54.1838 84.7629 53.044 84.7629 51.2809C84.7629 49.5179 85.8474 48.3786 87.5257 48.3786C89.2044 48.3786 90.2889 49.5179 90.2889 51.2809C90.2889 53.044 89.2044 54.1838 87.5257 54.1838ZM87.5257 47.7042C85.3179 47.7042 83.8915 49.108 83.8915 51.2809C83.8915 53.4543 85.3179 54.8582 87.5257 54.8582C89.7392 54.8582 91.1695 53.4543 91.1695 51.2809C91.1695 49.108 89.7392 47.7042 87.5257 47.7042ZM87.5257 54.9789C85.2805 54.9789 83.7718 53.4929 83.7718 51.2809C83.7718 49.0352 85.2451 47.5835 87.5257 47.5835C89.812 47.5835 91.2892 49.0352 91.2892 51.2809C91.2892 53.5272 89.812 54.9789 87.5257 54.9789Z" fill="#4D443D"/>
<path fill-rule="evenodd" clip-rule="evenodd" d="M93.9049 47.8374H95.2997L97.5032 53.1729C97.609 53.4437 97.6569 53.5605 97.6952 53.7739H97.7143C97.7627 53.5605 97.8111 53.4437 97.9068 53.1729L100.139 47.8374H101.543V54.7244H100.678V49.3412C100.678 49.0791 100.678 48.8169 100.706 48.6426H100.668C100.629 48.759 100.533 49.1085 100.427 49.3412L98.1572 54.7244H97.2432L94.9822 49.3315C94.8961 49.1278 94.8094 48.7884 94.7807 48.6426H94.7323C94.7514 48.8169 94.7711 49.04 94.7711 49.3412V54.7244H93.9049V47.8374Z" fill="#4D443D"/>
<path fill-rule="evenodd" clip-rule="evenodd" d="M100.738 54.6641H101.484V47.8983H100.178L97.9164 53.3245C97.8513 53.506 97.8116 53.6161 97.7733 53.787C97.7666 53.815 97.7426 53.8343 97.7144 53.8343H97.6952C97.6665 53.8343 97.6416 53.8135 97.6363 53.7846C97.6009 53.5871 97.5573 53.4761 97.462 53.2323L97.4472 53.1951L95.26 47.8983H93.9648V54.6641H94.7113V49.3412C94.7113 49.0361 94.6912 48.8117 94.673 48.6499C94.671 48.6326 94.6768 48.6157 94.6878 48.6031C94.6993 48.5906 94.7156 48.5828 94.7323 48.5828H94.7807C94.8089 48.5828 94.8334 48.6031 94.8391 48.6316C94.8664 48.7687 94.9521 49.1081 95.0373 49.3079L97.283 54.6641H98.1175L100.372 49.3176C100.453 49.1409 100.526 48.899 100.575 48.7392C100.59 48.6915 100.602 48.6514 100.611 48.6239C100.619 48.5992 100.642 48.5828 100.668 48.5828H100.706C100.724 48.5828 100.741 48.591 100.752 48.6041C100.763 48.6176 100.768 48.6355 100.766 48.6528C100.738 48.8228 100.738 49.0863 100.738 49.3412V54.6641ZM101.543 54.7848H100.678C100.645 54.7848 100.618 54.7578 100.618 54.7245V49.3412C100.618 49.2249 100.618 49.1071 100.62 48.9956C100.58 49.1206 100.532 49.2558 100.482 49.3663L98.2124 54.7477C98.2028 54.7699 98.1812 54.7848 98.1573 54.7848H97.2432C97.2188 54.7848 97.1973 54.7699 97.1877 54.7477L94.9272 49.3552C94.8913 49.2703 94.8559 49.165 94.8252 49.0612C94.8286 49.1462 94.831 49.2394 94.831 49.3412V54.7245C94.831 54.7578 94.8042 54.7848 94.7711 54.7848H93.9049C93.8724 54.7848 93.8451 54.7578 93.8451 54.7245V47.8379C93.8451 47.8046 93.8724 47.7776 93.9049 47.7776H95.2997C95.3241 47.7776 95.3462 47.7921 95.3553 47.8148L97.5731 53.1879C97.6344 53.3443 97.6761 53.4515 97.7082 53.5625C97.7345 53.4766 97.7647 53.3926 97.8034 53.2835L97.8508 53.1526L100.084 47.8143C100.093 47.7921 100.115 47.7776 100.139 47.7776H101.543C101.576 47.7776 101.603 47.8046 101.603 47.8379V54.7245C101.603 54.7578 101.576 54.7848 101.543 54.7848Z" fill="#4D443D"/>
<path fill-rule="evenodd" clip-rule="evenodd" d="M109.539 49.9229C109.539 49.1278 108.943 48.6325 108 48.6325H105.816V51.2418H107.99C108.943 51.2418 109.539 50.7378 109.539 49.9229ZM110.53 49.9229C110.53 51.2129 109.549 52.0369 108.028 52.0369H105.816V54.7244H104.874V47.8374H108.125C109.597 47.8374 110.53 48.6523 110.53 49.9229Z" fill="#4D443D"/>
<path fill-rule="evenodd" clip-rule="evenodd" d="M105.876 51.182H107.99C108.909 51.182 109.479 50.6997 109.479 49.923C109.479 49.1646 108.912 48.6929 108 48.6929H105.876V51.182ZM107.99 51.3027H105.816C105.783 51.3027 105.756 51.2757 105.756 51.2423V48.6326C105.756 48.5992 105.783 48.5722 105.816 48.5722H108C108.971 48.5722 109.599 49.1028 109.599 49.923C109.599 50.7741 108.983 51.3027 107.99 51.3027ZM104.933 54.6641H105.756V52.0375C105.756 52.0041 105.783 51.9771 105.816 51.9771H108.028C109.512 51.9771 110.47 51.1709 110.47 49.923C110.47 48.6929 109.55 47.8983 108.125 47.8983H104.933V54.6641ZM105.816 54.7848H104.874C104.841 54.7848 104.814 54.7578 104.814 54.7245V47.8379C104.814 47.8046 104.841 47.7776 104.874 47.7776H108.125C109.622 47.7776 110.59 48.6195 110.59 49.923C110.59 51.2443 109.585 52.0978 108.028 52.0978H105.876V54.7245C105.876 54.7578 105.849 54.7848 105.816 54.7848Z" fill="#4D443D"/>
<path fill-rule="evenodd" clip-rule="evenodd" d="M116.544 52.1441L115.524 49.739C115.293 49.3021 115.158 49.04 115.043 48.6721H115.023C114.909 49.04 114.783 49.3021 114.552 49.739L113.532 52.1441H116.544ZM116.88 52.9397H113.196L112.436 54.7244H111.445L114.562 47.8374H115.514L118.631 54.7244H117.631L116.88 52.9397Z" fill="#4D443D"/>
<path fill-rule="evenodd" clip-rule="evenodd" d="M113.624 52.0838H116.454L115.469 49.7622C115.27 49.3866 115.14 49.1366 115.034 48.8334C114.929 49.1356 114.809 49.3823 114.605 49.767L113.624 52.0838ZM116.544 52.2045H113.533C113.513 52.2045 113.494 52.1939 113.483 52.1775C113.472 52.1606 113.47 52.1388 113.478 52.1205L114.498 49.7154C114.731 49.2741 114.853 49.0173 114.967 48.6538C114.975 48.6287 114.998 48.6118 115.023 48.6118H115.043C115.069 48.6118 115.092 48.6287 115.101 48.6538C115.214 49.0168 115.349 49.279 115.577 49.7106L116.599 52.1205C116.607 52.1388 116.606 52.1606 116.594 52.1775C116.583 52.1939 116.564 52.2045 116.544 52.2045ZM117.671 54.6641H118.538L115.476 47.8983H114.601L111.538 54.6641H112.396L113.141 52.9161C113.15 52.8939 113.172 52.8794 113.196 52.8794H116.881C116.905 52.8794 116.927 52.8943 116.936 52.9166L117.671 54.6641ZM118.632 54.7848H117.631C117.607 54.7848 117.585 54.7699 117.576 54.7477L116.841 53.0001H113.236L112.491 54.7481C112.481 54.7703 112.46 54.7848 112.436 54.7848H111.445C111.425 54.7848 111.406 54.7742 111.395 54.7568C111.384 54.7399 111.382 54.7177 111.39 54.6994L114.508 47.8128C114.517 47.7911 114.539 47.7776 114.562 47.7776H115.515C115.538 47.7776 115.559 47.7911 115.569 47.8128L118.686 54.6994C118.695 54.7177 118.693 54.7399 118.682 54.7568C118.671 54.7742 118.652 54.7848 118.632 54.7848Z" fill="#4D443D"/>
<path fill-rule="evenodd" clip-rule="evenodd" d="M122.076 51.1066H124.327C125.453 51.1066 125.809 50.5046 125.809 49.8553C125.809 49.2051 125.453 48.6325 124.336 48.6325H122.076V51.1066ZM124.135 51.8921H122.076V54.7244H121.133V47.8374H124.461C126.29 47.8374 126.799 48.885 126.799 49.8645C126.799 50.6311 126.386 51.5136 125.174 51.7661L127.04 54.7244H125.934L124.135 51.8921Z" fill="#4D443D"/>
<path fill-rule="evenodd" clip-rule="evenodd" d="M122.136 51.0464H124.327C125.564 51.0464 125.749 50.3005 125.749 49.8559C125.749 49.3253 125.504 48.6929 124.337 48.6929H122.136V51.0464ZM124.327 51.167H122.076C122.043 51.167 122.016 51.14 122.016 51.1067V48.6326C122.016 48.5992 122.043 48.5722 122.076 48.5722H124.337C125.669 48.5722 125.869 49.3765 125.869 49.8559C125.869 50.3454 125.668 51.167 124.327 51.167ZM125.967 54.6641H126.931L125.123 51.7985C125.113 51.7816 125.111 51.7608 125.118 51.7425C125.126 51.7241 125.142 51.7106 125.161 51.7072C126.626 51.4026 126.74 50.2203 126.74 49.865C126.74 49.1308 126.444 47.8983 124.461 47.8983H121.193V54.6641H122.016V51.8921C122.016 51.8588 122.043 51.8318 122.076 51.8318H124.135C124.155 51.8318 124.174 51.8424 124.185 51.8598L125.967 54.6641ZM127.04 54.7848H125.934C125.914 54.7848 125.894 54.7742 125.883 54.7568L124.102 51.9525H122.136V54.7245C122.136 54.7578 122.109 54.7848 122.076 54.7848H121.133C121.1 54.7848 121.073 54.7578 121.073 54.7245V47.8379C121.073 47.8046 121.1 47.7776 121.133 47.7776H124.461C125.182 47.7776 126.859 47.9808 126.859 49.865C126.859 50.2363 126.743 51.4557 125.27 51.8067L127.091 54.6917C127.103 54.7105 127.103 54.7341 127.092 54.7535C127.082 54.7728 127.062 54.7848 127.04 54.7848Z" fill="#4D443D"/>
<path fill-rule="evenodd" clip-rule="evenodd" d="M134.689 48.6426H132.082V54.7244H131.139V48.6426H128.532V47.8374H134.689V48.6426Z" fill="#4D443D"/>
<path fill-rule="evenodd" clip-rule="evenodd" d="M131.199 54.6641H132.022V48.6432C132.022 48.6099 132.049 48.5828 132.082 48.5828H134.63V47.8983H128.593V48.5828H131.139C131.172 48.5828 131.199 48.6099 131.199 48.6432V54.6641ZM132.082 54.7848H131.139C131.106 54.7848 131.08 54.7578 131.08 54.7245V48.7035H128.533C128.5 48.7035 128.473 48.6765 128.473 48.6432V47.8379C128.473 47.8046 128.5 47.7776 128.533 47.7776H134.69C134.723 47.7776 134.75 47.8046 134.75 47.8379V48.6432C134.75 48.6765 134.723 48.7035 134.69 48.7035H132.142V54.7245C132.142 54.7578 132.116 54.7848 132.082 54.7848Z" fill="#4D443D"/>
<path fill-rule="evenodd" clip-rule="evenodd" d="M137.095 54.7244H138.038V47.8374H137.095V54.7244Z" fill="#4D443D"/>
<path fill-rule="evenodd" clip-rule="evenodd" d="M137.155 54.6641H137.979V47.8983H137.155V54.6641ZM138.039 54.7848H137.095C137.062 54.7848 137.036 54.7578 137.036 54.7245V47.8379C137.036 47.8046 137.062 47.7776 137.095 47.7776H138.039C138.072 47.7776 138.098 47.8046 138.098 47.8379V54.7245C138.098 54.7578 138.072 54.7848 138.039 54.7848Z" fill="#4D443D"/>
<path fill-rule="evenodd" clip-rule="evenodd" d="M142.319 51.1066H144.57C145.696 51.1066 146.052 50.5046 146.052 49.8553C146.052 49.2051 145.696 48.6325 144.58 48.6325H142.319V51.1066ZM144.378 51.8921H142.319V54.7244H141.376V47.8374H144.705C146.533 47.8374 147.042 48.885 147.042 49.8645C147.042 50.6311 146.629 51.5136 145.417 51.7661L147.283 54.7244H146.178L144.378 51.8921Z" fill="#4D443D"/>
<path fill-rule="evenodd" clip-rule="evenodd" d="M142.38 51.0464H144.571C145.807 51.0464 145.992 50.3005 145.992 49.8559C145.992 49.3253 145.747 48.6929 144.58 48.6929H142.38V51.0464ZM144.571 51.167H142.32C142.287 51.167 142.26 51.14 142.26 51.1067V48.6326C142.26 48.5992 142.287 48.5722 142.32 48.5722H144.58C145.913 48.5722 146.112 49.3765 146.112 49.8559C146.112 50.3454 145.912 51.167 144.571 51.167ZM146.21 54.6641H147.175L145.366 51.7985C145.356 51.7816 145.354 51.7608 145.362 51.7425C145.37 51.7241 145.386 51.7106 145.405 51.7072C146.869 51.4026 146.983 50.2203 146.983 49.865C146.983 49.1308 146.687 47.8983 144.705 47.8983H141.436V54.6641H142.26V51.8921C142.26 51.8588 142.287 51.8318 142.32 51.8318H144.378C144.399 51.8318 144.417 51.8424 144.428 51.8598L146.21 54.6641ZM147.284 54.7848H146.178C146.157 54.7848 146.138 54.7742 146.127 54.7568L144.346 51.9525H142.38V54.7245C142.38 54.7578 142.353 54.7848 142.32 54.7848H141.376C141.343 54.7848 141.317 54.7578 141.317 54.7245V47.8379C141.317 47.8046 141.343 47.7776 141.376 47.7776H144.705C145.426 47.7776 147.103 47.9808 147.103 49.865C147.103 50.2363 146.986 51.4557 145.513 51.8067L147.334 54.6917C147.346 54.7105 147.347 54.7341 147.336 54.7535C147.326 54.7728 147.306 54.7848 147.284 54.7848Z" fill="#4D443D"/>
<path fill-rule="evenodd" clip-rule="evenodd" d="M158.253 51.2712C158.253 49.1177 159.628 47.6438 161.927 47.6438C163.803 47.6438 164.91 48.604 165.198 50.1368L164.217 50.2333C163.996 49.1278 163.178 48.449 161.879 48.449C160.225 48.449 159.243 49.5541 159.243 51.2616C159.243 52.9102 160.234 54.1036 161.908 54.1036C163.139 54.1036 163.967 53.4823 164.265 52.4062L165.198 52.5708C164.794 53.9776 163.736 54.918 161.889 54.918C159.522 54.918 158.253 53.3664 158.253 51.2712Z" fill="#4D443D"/>
<path fill-rule="evenodd" clip-rule="evenodd" d="M161.928 47.7042C159.732 47.7042 158.313 49.1042 158.313 51.2713C158.313 53.4838 159.683 54.8582 161.889 54.8582C163.559 54.8582 164.676 54.0838 165.122 52.6182L164.308 52.4748C163.985 53.5644 163.135 54.164 161.908 54.164C160.253 54.164 159.183 53.0247 159.183 51.2616C159.183 49.4894 160.216 48.3887 161.879 48.3887C163.149 48.3887 164.016 49.0361 164.265 50.1677L165.127 50.0827C164.811 48.548 163.678 47.7042 161.928 47.7042ZM161.889 54.9789C159.61 54.9789 158.193 53.5586 158.193 51.2713C158.193 49.0313 159.659 47.5835 161.928 47.5835C163.766 47.5835 164.948 48.4863 165.257 50.1252C165.26 50.1416 165.256 50.1595 165.246 50.173C165.236 50.1865 165.221 50.1952 165.204 50.1967L164.223 50.2932C164.192 50.2995 164.165 50.2758 164.159 50.2449C163.938 49.1418 163.107 48.5094 161.879 48.5094C160.29 48.5094 159.303 49.5638 159.303 51.2616C159.303 52.9513 160.326 54.0433 161.908 54.0433C163.096 54.0433 163.912 53.4563 164.208 52.3903C164.216 52.3599 164.245 52.342 164.276 52.3469L165.209 52.5115C165.226 52.5144 165.24 52.524 165.25 52.5385C165.258 52.5535 165.261 52.5714 165.256 52.5878C164.943 53.6788 164.104 54.9789 161.889 54.9789Z" fill="#4D443D"/>
<path fill-rule="evenodd" clip-rule="evenodd" d="M168.663 47.8374V51.95C168.663 53.1917 169.461 54.094 170.856 54.094C172.251 54.094 173.04 53.1917 173.04 51.95V47.8374H173.992V51.9988C173.992 53.7053 172.866 54.918 170.856 54.918C168.836 54.918 167.72 53.7053 167.72 51.9988V47.8374H168.663Z" fill="#4D443D"/>
<path fill-rule="evenodd" clip-rule="evenodd" d="M167.78 47.8983V51.9988C167.78 53.7623 168.958 54.8582 170.856 54.8582C172.754 54.8582 173.932 53.7623 173.932 51.9988V47.8983H173.1V51.9506C173.1 53.2892 172.219 54.1543 170.856 54.1543C169.487 54.1543 168.603 53.2892 168.603 51.9506V47.8983H167.78ZM170.856 54.9789C168.885 54.9789 167.66 53.8372 167.66 51.9988V47.8379C167.66 47.8046 167.687 47.7776 167.72 47.7776H168.663C168.696 47.7776 168.722 47.8046 168.722 47.8379V51.9506C168.722 53.2159 169.56 54.0337 170.856 54.0337C172.146 54.0337 172.98 53.2159 172.98 51.9506V47.8379C172.98 47.8046 173.007 47.7776 173.04 47.7776H173.992C174.025 47.7776 174.052 47.8046 174.052 47.8379V51.9988C174.052 53.8092 172.798 54.9789 170.856 54.9789Z" fill="#4D443D"/>
<path fill-rule="evenodd" clip-rule="evenodd" d="M177.129 54.7244H178.073V47.8374H177.129V54.7244Z" fill="#4D443D"/>
<path fill-rule="evenodd" clip-rule="evenodd" d="M177.19 54.6641H178.013V47.8983H177.19V54.6641ZM178.073 54.7848H177.13C177.097 54.7848 177.07 54.7578 177.07 54.7245V47.8379C177.07 47.8046 177.097 47.7776 177.13 47.7776H178.073C178.106 47.7776 178.133 47.8046 178.133 47.8379V54.7245C178.133 54.7578 178.106 54.7848 178.073 54.7848Z" fill="#4D443D"/>
<path fill-rule="evenodd" clip-rule="evenodd" d="M184.335 53.9288C186 53.9288 186.971 52.833 186.971 51.2225C186.971 49.6028 185.932 48.6325 184.288 48.6325H182.354V53.9288H184.335ZM181.411 47.8374H184.346C186.5 47.8374 187.972 49.1085 187.972 51.2225C187.972 53.3273 186.491 54.7244 184.346 54.7244H181.411V47.8374Z" fill="#4D443D"/>
<path fill-rule="evenodd" clip-rule="evenodd" d="M182.414 53.8686H184.336C185.925 53.8686 186.912 52.8552 186.912 51.223C186.912 49.6623 185.906 48.6929 184.288 48.6929H182.414V53.8686ZM184.336 53.9892H182.354C182.321 53.9892 182.294 53.9627 182.294 53.9289V48.6326C182.294 48.5992 182.321 48.5722 182.354 48.5722H184.288C185.98 48.5722 187.031 49.5879 187.031 51.223C187.031 52.9035 185.973 53.9892 184.336 53.9892ZM181.471 54.6641H184.346C186.479 54.6641 187.913 53.281 187.913 51.223C187.913 49.2032 186.512 47.8983 184.346 47.8983H181.471V54.6641ZM184.346 54.7848H181.411C181.377 54.7848 181.351 54.7578 181.351 54.7245V47.8379C181.351 47.8046 181.377 47.7776 181.411 47.7776H184.346C186.585 47.7776 188.033 49.1303 188.033 51.223C188.033 53.3535 186.551 54.7848 184.346 54.7848Z" fill="#4D443D"/>
<path fill-rule="evenodd" clip-rule="evenodd" d="M194.601 52.1441L193.582 49.739C193.351 49.3021 193.216 49.04 193.101 48.6721H193.082C192.966 49.04 192.841 49.3021 192.609 49.739L191.591 52.1441H194.601ZM194.938 52.9397H191.253L190.494 54.7244H189.502L192.62 47.8374H193.572L196.689 54.7244H195.688L194.938 52.9397Z" fill="#4D443D"/>
<path fill-rule="evenodd" clip-rule="evenodd" d="M191.681 52.0838H194.511L193.526 49.7622C193.328 49.3876 193.199 49.1385 193.092 48.8339C192.985 49.1385 192.861 49.3924 192.663 49.767L191.681 52.0838ZM194.602 52.2045H191.591C191.57 52.2045 191.551 52.1939 191.54 52.1775C191.529 52.1606 191.527 52.1388 191.535 52.1205L192.555 49.7154C192.788 49.2766 192.909 49.0207 193.025 48.6533C193.033 48.6287 193.056 48.6118 193.082 48.6118H193.101C193.127 48.6118 193.15 48.6287 193.158 48.6538C193.272 49.0192 193.407 49.2804 193.635 49.7106L194.657 52.1205C194.665 52.1388 194.663 52.1606 194.652 52.1775C194.641 52.1939 194.622 52.2045 194.602 52.2045ZM195.728 54.6641H196.597L193.534 47.8983H192.658L189.596 54.6641H190.454L191.199 52.9161C191.209 52.8939 191.23 52.8794 191.254 52.8794H194.938C194.962 52.8794 194.984 52.8943 194.993 52.9166L195.728 54.6641ZM196.689 54.7848H195.688C195.664 54.7848 195.642 54.7699 195.633 54.7477L194.899 53.0001H191.293L190.549 54.7481C190.539 54.7703 190.518 54.7848 190.494 54.7848H189.503C189.482 54.7848 189.464 54.7742 189.453 54.7568C189.442 54.7399 189.44 54.7177 189.449 54.6994L192.566 47.8128C192.575 47.7911 192.597 47.7776 192.62 47.7776H193.572C193.596 47.7776 193.617 47.7911 193.626 47.8128L196.744 54.6994C196.753 54.7177 196.751 54.7399 196.74 54.7568C196.729 54.7742 196.71 54.7848 196.689 54.7848Z" fill="#4D443D"/>
<path fill-rule="evenodd" clip-rule="evenodd" d="M200.135 51.1066H202.385C203.511 51.1066 203.867 50.5046 203.867 49.8553C203.867 49.2051 203.511 48.6325 202.395 48.6325H200.135V51.1066ZM202.193 51.8921H200.134V54.7244H199.192V47.8374H202.52C204.348 47.8374 204.858 48.885 204.858 49.8645C204.858 50.6311 204.444 51.5136 203.232 51.7661L205.098 54.7244H203.992L202.193 51.8921Z" fill="#4D443D"/>
<path fill-rule="evenodd" clip-rule="evenodd" d="M200.194 51.0464H202.386C203.623 51.0464 203.807 50.3005 203.807 49.8559C203.807 49.3253 203.562 48.6929 202.395 48.6929H200.194V51.0464ZM202.386 51.167H200.134C200.101 51.167 200.075 51.14 200.075 51.1067V48.6326C200.075 48.5992 200.101 48.5722 200.134 48.5722H202.395C203.728 48.5722 203.927 49.3765 203.927 49.8559C203.927 50.3454 203.727 51.167 202.386 51.167ZM204.025 54.6641H204.99L203.182 51.7985C203.171 51.7816 203.17 51.7608 203.177 51.7425C203.185 51.7241 203.201 51.7106 203.22 51.7072C204.685 51.4021 204.798 50.2203 204.798 49.865C204.798 49.1308 204.502 47.8983 202.52 47.8983H199.252V54.6641H200.075V51.8921C200.075 51.8588 200.101 51.8318 200.134 51.8318H202.193C202.214 51.8318 202.233 51.8424 202.244 51.8598L204.025 54.6641ZM205.099 54.7848H203.993C203.972 54.7848 203.953 54.7742 203.942 54.7568L202.161 51.9525H200.194V54.7245C200.194 54.7578 200.168 54.7848 200.134 54.7848H199.192C199.159 54.7848 199.132 54.7578 199.132 54.7245V47.8379C199.132 47.8046 199.159 47.7776 199.192 47.7776H202.52C203.241 47.7776 204.918 47.9808 204.918 49.865C204.918 50.2363 204.802 51.4557 203.329 51.8067L205.15 54.6917C205.161 54.7105 205.162 54.7341 205.151 54.7535C205.141 54.7728 205.121 54.7848 205.099 54.7848Z" fill="#4D443D"/>
</svg>
